<?xml version="1.0" encoding="utf-8"?>
<!-- Generator: Adobe Illustrator 26.0.2, SVG Export Plug-In . SVG Version: 6.00 Build 0)  -->
<svg version="1.1" baseProfile="basic" id="Ebene_1"
	 xmlns="http://www.w3.org/2000/svg" xmlns:xlink="http://www.w3.org/1999/xlink" x="0px" y="0px" width="173.92px"
	 height="36.077px" viewBox="0 0 173.92 36.077" xml:space="preserve">
<style type="text/css">
	.st0{fill:#003554;}
	.st1{fill:#156CC4;}
	.st2{fill:url(#SVGID_1_);}
</style>
<g>
	<polygon class="st0" points="36.15,20.69 34.203,20.69 27.068,6.645 31.479,6.645 35.177,14.754 38.94,6.645 40.756,6.645 
		44.519,14.754 48.217,6.645 52.629,6.645 45.492,20.69 43.546,20.69 39.848,12.418 	"/>
	<g>
		<path class="st0" d="M63.463,11.802c-0.324-1.914-1.881-2.822-3.341-2.822c-1.46,0-2.984,0.94-3.309,2.822H63.463z M67.096,16.765
			c-0.422,1.038-2.011,4.379-6.909,4.379c-2.271,0-3.99-0.649-5.385-1.979c-1.557-1.46-2.206-3.276-2.206-5.482
			c0-2.789,1.135-4.509,2.141-5.515c1.654-1.622,3.601-1.978,5.288-1.978c2.854,0,4.509,1.135,5.482,2.303
			c1.492,1.784,1.687,3.99,1.687,5.514v0.325h-10.51c0,0.843,0.227,1.751,0.681,2.368c0.422,0.584,1.298,1.33,2.822,1.33
			c1.492,0,2.628-0.714,3.276-1.849L67.096,16.765z"/>
	</g>
	<rect x="69.701" y="0.119" class="st0" width="3.958" height="20.571"/>
	<polygon class="st0" points="77.152,0.119 77.152,6.644 75.595,6.644 75.595,10.018 77.152,10.018 77.152,20.69 81.109,20.69 
		81.109,10.018 83.834,10.018 83.834,6.644 81.109,6.644 81.109,0.119 	"/>
	<path class="st0" d="M92.978,9.985c-0.94-0.876-1.881-0.941-2.303-0.941c-0.941,0-1.525,0.454-1.525,1.135
		c0,0.357,0.162,0.908,1.265,1.265l0.941,0.292c1.103,0.357,2.757,0.908,3.568,2.011c0.421,0.584,0.713,1.427,0.713,2.335
		c0,1.265-0.422,2.53-1.557,3.569c-1.136,1.038-2.498,1.492-4.217,1.492c-2.919,0-4.574-1.395-5.45-2.335l2.076-2.4
		c0.778,0.908,1.946,1.622,3.114,1.622c1.103,0,1.947-0.552,1.947-1.525c0-0.876-0.714-1.233-1.233-1.428l-0.908-0.324
		c-1.006-0.357-2.173-0.811-3.017-1.687c-0.649-0.681-1.07-1.557-1.07-2.692c0-1.362,0.649-2.497,1.46-3.179
		c1.103-0.876,2.53-1.005,3.666-1.005c1.038,0,2.692,0.129,4.477,1.492L92.978,9.985z"/>
	<path class="st0" d="M102.772,10.634c-0.876,0.746-1.33,1.72-1.33,3.017s0.519,2.368,1.297,3.049
		c0.519,0.454,1.362,0.941,2.595,0.941c1.298,0,2.141-0.519,2.66-1.006c0.844-0.779,1.233-1.947,1.233-2.984
		c0-1.038-0.421-2.206-1.2-2.952c-0.714-0.648-1.752-1.006-2.692-1.006C104.296,9.693,103.485,9.986,102.772,10.634 M101.83,27.219
		h-3.958V6.644h3.958v1.817c0.617-0.876,1.979-2.271,4.574-2.271c1.233,0,3.211,0.292,4.801,1.881
		c1.038,1.038,2.108,2.789,2.108,5.579c0,3.179-1.395,4.898-2.206,5.677c-1.07,1.005-2.692,1.816-4.769,1.816
		c-0.973,0-2.952-0.162-4.509-2.271V27.219z"/>
	<path class="st0" d="M119.12,13.651c0,2.238,1.622,3.99,3.893,3.99c2.27,0,3.892-1.752,3.892-3.99c0-2.238-1.622-3.958-3.892-3.958
		C120.742,9.693,119.12,11.413,119.12,13.651 M126.516,6.644h3.957V20.69h-3.957v-1.816c-1.428,2.043-3.309,2.271-4.314,2.271
		c-4.314,0-7.169-3.374-7.169-7.493c0-4.152,2.822-7.461,6.974-7.461c1.07,0,3.178,0.194,4.509,2.27V6.644z"/>
	<path class="st0" d="M154.054,11.802c-0.324-1.914-1.881-2.822-3.341-2.822c-1.46,0-2.984,0.94-3.309,2.822H154.054z
		 M157.687,16.765c-0.422,1.038-2.012,4.379-6.909,4.379c-2.271,0-3.99-0.649-5.385-1.979c-1.557-1.46-2.206-3.276-2.206-5.482
		c0-2.789,1.135-4.509,2.141-5.515c1.654-1.622,3.6-1.978,5.287-1.978c2.855,0,4.509,1.135,5.482,2.303
		c1.492,1.784,1.687,3.99,1.687,5.514v0.325h-10.51c0,0.843,0.227,1.751,0.681,2.368c0.422,0.584,1.298,1.33,2.822,1.33
		c1.492,0,2.628-0.714,3.276-1.849L157.687,16.765z"/>
	<path class="st0" d="M160.259,6.644h3.957v1.816c0.746-1.038,2.076-2.27,4.346-2.27c1.233,0,3.05,0.357,4.152,1.719
		c0.973,1.201,1.103,2.595,1.103,3.958v8.823h-3.957v-7.655c0-0.778-0.032-2.011-0.746-2.757c-0.616-0.649-1.459-0.714-1.849-0.714
		c-1.038,0-1.849,0.357-2.433,1.233c-0.584,0.908-0.616,1.914-0.616,2.725v7.169h-3.957V6.644z"/>
	<path class="st1" d="M127.277,32.002c-0.411,0.453-0.917,0.679-1.52,0.679c-0.547,0-0.99-0.182-1.33-0.546
		c-0.341-0.355-0.511-0.824-0.511-1.408c0-0.696,0.198-1.263,0.594-1.701c0.397-0.448,0.899-0.672,1.506-0.672
		c0.56,0,1.016,0.187,1.365,0.56c0.35,0.374,0.525,0.854,0.525,1.443C127.908,31.001,127.698,31.549,127.277,32.002 M126.367,27.058
		c-0.364,0-0.702,0.054-1.015,0.161c-0.299,0.103-0.651,0.306-1.058,0.609l0.339-2.993h-1.547l-1.074,8.98h1.548l0.112-0.882
		c0.672,0.691,1.457,1.036,2.353,1.036c0.962,0,1.776-0.35,2.444-1.051c0.663-0.691,0.994-1.557,0.994-2.598
		c0-0.948-0.291-1.728-0.875-2.339C128.003,27.366,127.264,27.058,126.367,27.058"/>
	<polygon class="st1" points="133.208,31.435 131.576,27.219 129.923,27.219 132.283,32.996 130.699,36.012 132.463,36.012 
		137.367,27.219 135.596,27.219 	"/>
	<g>
		<path class="st1" d="M143.782,27.786l0.07-0.567h-1.547l-0.813,6.597h1.547l0.407-3.291c0.042-0.364,0.099-0.677,0.171-0.938
			c0.072-0.261,0.164-0.475,0.273-0.641c0.11-0.166,0.24-0.287,0.389-0.364c0.149-0.077,0.322-0.116,0.518-0.116
			c0.285,0,0.57,0.121,0.855,0.364l0.987-1.274c-0.383-0.34-0.808-0.511-1.274-0.511C144.833,27.044,144.305,27.291,143.782,27.786"
			/>
		<path class="st1" d="M151.654,31.995c-0.416,0.462-0.909,0.693-1.478,0.693c-0.514,0-0.934-0.184-1.261-0.553
			c-0.327-0.369-0.49-0.843-0.49-1.422c0-0.663,0.196-1.223,0.588-1.68c0.392-0.453,0.877-0.679,1.456-0.679
			c0.532,0,0.966,0.185,1.303,0.553c0.336,0.364,0.504,0.838,0.504,1.422C152.277,30.968,152.069,31.524,151.654,31.995
			 M152.508,28.087c-0.35-0.378-0.693-0.644-1.029-0.798c-0.331-0.154-0.733-0.231-1.204-0.231c-0.999,0-1.818,0.348-2.458,1.043
			c-0.63,0.696-0.946,1.587-0.946,2.675c0,0.943,0.275,1.711,0.826,2.304c0.551,0.593,1.263,0.89,2.136,0.89
			c0.71,0,1.396-0.29,2.059-0.869l-0.091,0.714h1.547l0.813-6.596h-1.547L152.508,28.087z"/>
		<path class="st1" d="M156.917,24.835c-0.224,0-0.418,0.082-0.582,0.245c-0.158,0.159-0.237,0.352-0.237,0.581
			c0,0.229,0.081,0.432,0.245,0.609c0.168,0.168,0.366,0.252,0.595,0.252c0.229,0,0.425-0.082,0.588-0.245
			c0.164-0.163,0.245-0.357,0.245-0.581c0-0.233-0.086-0.434-0.259-0.602C157.344,24.922,157.146,24.835,156.917,24.835"/>
	</g>
	<polygon class="st1" points="155.218,33.816 156.766,33.816 157.578,27.219 156.031,27.219 	"/>
	<g>
		<path class="st1" d="M161.367,28.27c0.35,0,0.73,0.184,1.141,0.553l0.875-0.875c-0.63-0.63-1.318-0.945-2.065-0.945
			c-0.677,0-1.235,0.196-1.674,0.588c-0.439,0.392-0.658,0.887-0.658,1.484c0,0.397,0.095,0.733,0.287,1.008
			c0.191,0.262,0.534,0.53,1.03,0.806c0.28,0.15,0.502,0.278,0.665,0.385c0.164,0.107,0.278,0.191,0.343,0.252
			c0.136,0.121,0.203,0.28,0.203,0.476c0,0.224-0.08,0.406-0.241,0.546c-0.161,0.14-0.375,0.21-0.641,0.21
			c-0.471,0-0.915-0.249-1.33-0.749l-1.016,0.707c0.635,0.873,1.435,1.31,2.402,1.31c0.709,0,1.285-0.187,1.73-0.56
			c0.434-0.378,0.651-0.88,0.651-1.505c0-0.435-0.108-0.787-0.322-1.058c-0.202-0.276-0.598-0.579-1.191-0.91
			c-0.416-0.229-0.689-0.411-0.819-0.547c-0.131-0.13-0.196-0.291-0.196-0.483c0-0.197,0.078-0.361,0.234-0.494
			C160.931,28.336,161.129,28.27,161.367,28.27"/>
		<path class="st1" d="M165.839,24.835c-0.224,0-0.418,0.082-0.582,0.245c-0.159,0.159-0.237,0.352-0.237,0.581
			c0,0.229,0.081,0.432,0.245,0.609c0.168,0.168,0.366,0.252,0.595,0.252c0.229,0,0.425-0.082,0.588-0.245
			c0.164-0.163,0.245-0.357,0.245-0.581c0-0.233-0.086-0.434-0.259-0.602C166.266,24.922,166.068,24.835,165.839,24.835"/>
	</g>
	<polygon class="st1" points="164.14,33.816 165.687,33.816 166.5,27.219 164.952,27.219 	"/>
	<g>
		<path class="st1" d="M173.251,27.597c-0.387-0.359-0.904-0.539-1.547-0.539c-0.626,0-1.244,0.257-1.856,0.77l0.07-0.609h-1.54
			l-0.812,6.597h1.547l0.392-3.179c0.033-0.267,0.07-0.501,0.112-0.704c0.042-0.203,0.094-0.374,0.154-0.515
			c0.112-0.275,0.285-0.509,0.518-0.7c0.285-0.243,0.626-0.364,1.023-0.364c0.644,0,0.966,0.299,0.966,0.896
			c0,0.088-0.004,0.189-0.01,0.301c-0.007,0.112-0.02,0.241-0.038,0.385l-0.477,3.879h1.541l0.441-3.543
			c0.056-0.467,0.084-0.868,0.084-1.205C173.818,28.447,173.629,27.957,173.251,27.597"/>
	</g>
	<polyline class="st0" points="133.62,20.692 133.62,6.642 137.578,6.642 137.578,13.943 137.578,20.692 	"/>
	<g>
		<path class="st0" d="M142.65,8.557c0,1.298-1.071,2.369-2.369,2.369c-1.298,0-2.369-1.071-2.369-2.369
			c0-1.298,1.071-2.369,2.369-2.369C141.579,6.188,142.65,7.259,142.65,8.557"/>
	</g>
	<linearGradient id="SVGID_1_" gradientUnits="userSpaceOnUse" x1="3.3201" y1="17.9302" x2="18.0523" y2="3.198">
		<stop  offset="0" style="stop-color:#156CC4"/>
		<stop  offset="0.1554" style="stop-color:#1368BB"/>
		<stop  offset="0.409" style="stop-color:#0F5CA3"/>
		<stop  offset="0.727" style="stop-color:#07487B"/>
		<stop  offset="1" style="stop-color:#003554"/>
	</linearGradient>
	<path class="st2" d="M10.619,0.119c-5.806,0-10.512,4.706-10.512,10.512c0,2.182,0.665,4.209,1.803,5.889L7.8,10.631H2.905l0-3.988
		l7.715,0v0h3.988v0v3.988v2.093v5.621h-3.988V13.45l-2.453,2.453L4.73,19.34c1.68,1.138,3.707,1.803,5.889,1.803
		c5.806,0,10.512-4.706,10.512-10.512C21.131,4.825,16.425,0.119,10.619,0.119z"/>
</g>
<g>
</g>
<g>
</g>
<g>
</g>
<g>
</g>
<g>
</g>
<g>
</g>
<g>
</g>
<g>
</g>
<g>
</g>
<g>
</g>
<g>
</g>
<g>
</g>
<g>
</g>
<g>
</g>
<g>
</g>
</svg>
