<svg width="80" height="80" xmlns="http://www.w3.org/2000/svg"><g fill="none" fill-rule="evenodd"><circle stroke="#D7D7D7" fill="#FFF" cx="40" cy="40" r="39.5"/><path d="M47 21h3.5a1.5 1.5 0 0 1 1.5 1.5v35a1.5 1.5 0 0 1-1.5 1.5H39l8-38z" fill-opacity=".2" fill="#156CC4"/><path d="M41.008 54.023c.26 0 .488.098.683.293a.937.937 0 0 1 .293.684.982.982 0 0 1-.293.723.937.937 0 0 1-.683.293h-2.031a.937.937 0 0 1-.684-.293A.982.982 0 0 1 38 55c0-.26.098-.488.293-.684a.937.937 0 0 1 .684-.293h2.03zM39.994 33A6 6 0 1 1 36.6 43.941l3.43-3.413v2.839h2.15v-6.542h-6.541v2.174h2.838l-3.413 3.41A6 6 0 0 1 39.994 33zm9.983 27h-19.97a2.9 2.9 0 0 1-2.128-.879A2.9 2.9 0 0 1 27 56.992V23.008a2.9 2.9 0 0 1 .879-2.13A2.9 2.9 0 0 1 30.008 20h19.969a2.9 2.9 0 0 1 2.128.879 2.9 2.9 0 0 1 .88 2.129v33.984a2.9 2.9 0 0 1-.88 2.13 2.9 2.9 0 0 1-2.128.878zm-19.97-38.008a.982.982 0 0 0-.722.293.982.982 0 0 0-.293.723v33.984c0 .287.098.528.293.723a.982.982 0 0 0 .723.293h19.969a.982.982 0 0 0 .722-.293.982.982 0 0 0 .293-.723V23.008a.982.982 0 0 0-.293-.723.982.982 0 0 0-.722-.293h-19.97z" fill="#004B8C" fill-rule="nonzero"/></g></svg>