<?xml version="1.0" encoding="UTF-8"?>
<svg version="1.1" xmlns="http://www.w3.org/2000/svg" width="920" height="325">
<path d="M0 0 C1.36440038 -0.00178616 2.72879984 -0.00444896 4.09319702 -0.00790086 C7.83035175 -0.0148325 11.56739963 -0.00938056 15.30454936 -0.00184478 C19.3749818 0.00414597 23.44540113 -0.00150971 27.51583356 -0.0056656 C34.64592269 -0.01134426 41.77597997 -0.00960558 48.90606785 -0.00298023 C59.50895025 0.00684484 70.11180936 0.00520306 80.71469447 0.00126947 C98.55501663 -0.00500462 116.39532558 -0.00183508 134.23564625 0.00686359 C151.90809089 0.01547849 169.58052958 0.02038374 187.25297642 0.02019596 C188.90201313 0.02018449 188.90201313 0.02018449 190.58436371 0.02017279 C195.047025 0.02013188 199.50968629 0.02006627 203.97234758 0.01996698 C245.84071618 0.01906081 287.70907575 0.02900674 329.57744121 0.04439665 C366.77070273 0.05801774 403.96395781 0.06425805 441.15722179 0.06358624 C443.54495501 0.06354582 445.93268822 0.06350546 448.32042143 0.06346516 C450.09109937 0.06343463 450.09109937 0.06343463 451.89754857 0.06340349 C457.83985894 0.06330269 463.78216931 0.06321211 469.72447968 0.06313324 C471.48298923 0.06310817 471.48298923 0.06310817 473.27702424 0.06308259 C504.35758533 0.06271732 535.43814561 0.06725725 566.51870602 0.0734598 C567.62450527 0.07368008 568.73030452 0.07390035 569.86961283 0.07412729 C574.31624491 0.07501552 578.76287699 0.07590392 583.20950906 0.07681825 C598.67419187 0.07997677 614.13887404 0.08148733 629.60355715 0.08192974 C649.53583413 0.08252713 669.46810581 0.08652724 689.40038053 0.0963612 C699.93986495 0.10147146 710.4793416 0.10388715 721.0188272 0.10236501 C728.06163267 0.10162949 735.10443059 0.10454244 742.14723364 0.11040882 C746.15808987 0.11365197 750.16892983 0.11535374 754.17978684 0.11264823 C757.83541768 0.11021822 761.49101612 0.1124551 765.14664288 0.11826634 C767.06644635 0.12016023 768.98625278 0.11721989 770.90605453 0.11402628 C802.64264742 0.18899982 802.64264742 0.18899982 815.26977062 12.24888897 C823.73855148 21.34148627 826.42283173 31.99839644 826.41021252 44.09695721 C826.4146692 45.43422886 826.4146692 45.43422886 826.41921592 46.79851609 C826.42788812 49.78613363 826.42940992 52.77371102 826.43090343 55.76134014 C826.43553267 57.90346137 826.44055748 60.04558178 826.4459486 62.18770123 C826.45906486 68.00813858 826.46551612 73.82856441 826.46995926 79.64901423 C826.47289138 83.28659422 826.47699647 86.92417106 826.48146343 90.56174946 C826.49513665 101.9463357 826.50480403 113.33091475 826.50866532 124.71550864 C826.51314504 137.85081162 826.53068974 150.98601048 826.55966592 164.1212818 C826.58129375 174.27856954 826.5913702 184.435828 826.59270644 194.59313852 C826.59375372 200.6576356 826.59964526 206.72203479 826.61752605 212.78650761 C826.63402555 218.49351135 826.63615302 224.20034381 826.62738705 229.90736294 C826.62661767 231.99788338 826.63094623 234.08841311 826.6408453 236.17891026 C826.65360138 239.04144327 826.64766806 241.90337295 826.6372633 244.76590252 C826.6453197 245.58548118 826.65337611 246.40505985 826.66167665 247.24947423 C826.56886947 258.23014126 822.67002521 268.44861552 815.16039562 276.51451397 C803.84615663 287.04846062 792.62985528 288.5549109 777.57981777 288.50615788 C776.19527467 288.50885423 774.81073305 288.51242374 773.42619419 288.51678234 C769.62380339 288.52621769 765.82150867 288.52324706 762.01911322 288.5182268 C757.88144331 288.51495579 753.74379375 288.52324635 749.60613036 288.53004515 C742.35492878 288.54034808 735.10375391 288.54318843 727.85254574 288.54113293 C717.06958133 288.53808373 706.28664649 288.54640511 695.50368783 288.55688218 C675.12502779 288.57622941 654.74637781 288.58185066 634.36770967 288.58299629 C618.63147627 288.58391516 602.89524682 288.58803072 587.1590147 288.59439754 C582.63036339 288.59619261 578.10171207 288.59797224 573.57306075 288.5997473 C572.44724601 288.6001894 571.32143128 288.60063149 570.16150094 288.60108699 C538.49226513 288.61339624 506.82303069 288.62128802 475.15379238 288.62040043 C473.95966328 288.62036927 472.76553417 288.62033811 471.53521933 288.62030601 C465.48278847 288.6201398 459.4303576 288.61994171 453.37792674 288.6197366 C452.17587811 288.61969671 450.97382948 288.61965682 449.73535514 288.61961572 C447.30451997 288.61953484 444.8736848 288.61945125 442.44284963 288.61936493 C404.61886522 288.61813929 366.79491665 288.63315473 328.9709425 288.66051006 C286.48246302 288.69122619 243.9940071 288.70844286 201.50551581 288.70658362 C196.97560708 288.70643436 192.44569834 288.70633694 187.9157896 288.70627499 C186.80039902 288.70625168 185.68500843 288.70622837 184.53581813 288.70620435 C166.58099947 288.70614279 148.62621192 288.71891818 130.67140251 288.73613952 C112.62908049 288.75308698 94.58680402 288.75507676 76.54447845 288.74192087 C65.82478063 288.73452596 55.10522112 288.73820589 44.38553794 288.75780555 C37.22381364 288.76979399 30.06218964 288.76722712 22.90046997 288.75286456 C18.82076494 288.74509202 14.74132778 288.74357715 10.66164151 288.75977926 C6.9446086 288.77441168 3.22806491 288.77037782 -0.48894677 288.75193153 C-2.44392333 288.74690595 -4.39892101 288.76135552 -6.35384321 288.77677709 C-19.58525496 288.67069419 -30.92152489 285.35249489 -40.73022938 276.24888897 C-48.24315935 267.70396312 -51.19559528 258.92050833 -51.12463856 247.66751385 C-51.13072966 246.74540798 -51.13682076 245.82330211 -51.14309645 244.87325364 C-51.15964854 241.8058734 -51.15496176 238.73891182 -51.15015125 235.67149639 C-51.15749612 233.46306206 -51.16608356 231.25463157 -51.17581654 229.04620647 C-51.19799776 223.06261933 -51.20096488 217.07917005 -51.19906902 211.09554744 C-51.19894916 206.0932488 -51.20751985 201.09097921 -51.21584654 196.08868867 C-51.23616667 183.60855196 -51.23723529 171.12848225 -51.23003942 158.64833973 C-51.22446663 147.83195592 -51.24528315 137.01580916 -51.27839988 126.19948073 C-51.31220636 115.07076157 -51.3268229 103.94213926 -51.32268286 92.81336576 C-51.3206187 86.57443111 -51.32604348 80.33573258 -51.35057545 74.09684086 C-51.37289404 68.22715305 -51.37092175 62.35795733 -51.35064793 56.48826694 C-51.34724692 54.34053188 -51.3522875 52.19276336 -51.36663151 50.04507351 C-51.45534673 35.77117316 -50.91685405 23.78865667 -40.48022938 12.92467022 C-39.90272938 12.37166241 -39.32522938 11.81865459 -38.73022938 11.24888897 C-38.23522938 10.76806866 -37.74022938 10.28724834 -37.23022938 9.79185772 C-26.6311038 0.25840509 -13.59452169 -0.05435574 0 0 Z " fill="#060808" transform="translate(73.73022937774658,16.751111030578613)"/>
<path d="M0 0 C1.36440038 -0.00178616 2.72879984 -0.00444896 4.09319702 -0.00790086 C7.83035175 -0.0148325 11.56739963 -0.00938056 15.30454936 -0.00184478 C19.3749818 0.00414597 23.44540113 -0.00150971 27.51583356 -0.0056656 C34.64592269 -0.01134426 41.77597997 -0.00960558 48.90606785 -0.00298023 C59.50895025 0.00684484 70.11180936 0.00520306 80.71469447 0.00126947 C98.55501663 -0.00500462 116.39532558 -0.00183508 134.23564625 0.00686359 C151.90809089 0.01547849 169.58052958 0.02038374 187.25297642 0.02019596 C188.90201313 0.02018449 188.90201313 0.02018449 190.58436371 0.02017279 C195.047025 0.02013188 199.50968629 0.02006627 203.97234758 0.01996698 C245.84071618 0.01906081 287.70907575 0.02900674 329.57744121 0.04439665 C366.77070273 0.05801774 403.96395781 0.06425805 441.15722179 0.06358624 C443.54495501 0.06354582 445.93268822 0.06350546 448.32042143 0.06346516 C450.09109937 0.06343463 450.09109937 0.06343463 451.89754857 0.06340349 C457.83985894 0.06330269 463.78216931 0.06321211 469.72447968 0.06313324 C471.48298923 0.06310817 471.48298923 0.06310817 473.27702424 0.06308259 C504.35758533 0.06271732 535.43814561 0.06725725 566.51870602 0.0734598 C567.62450527 0.07368008 568.73030452 0.07390035 569.86961283 0.07412729 C574.31624491 0.07501552 578.76287699 0.07590392 583.20950906 0.07681825 C598.67419187 0.07997677 614.13887404 0.08148733 629.60355715 0.08192974 C649.53583413 0.08252713 669.46810581 0.08652724 689.40038053 0.0963612 C699.93986495 0.10147146 710.4793416 0.10388715 721.0188272 0.10236501 C728.06163267 0.10162949 735.10443059 0.10454244 742.14723364 0.11040882 C746.15808987 0.11365197 750.16892983 0.11535374 754.17978684 0.11264823 C757.83541768 0.11021822 761.49101612 0.1124551 765.14664288 0.11826634 C767.06644635 0.12016023 768.98625278 0.11721989 770.90605453 0.11402628 C802.64264742 0.18899982 802.64264742 0.18899982 815.26977062 12.24888897 C823.73855148 21.34148627 826.42283173 31.99839644 826.41021252 44.09695721 C826.4146692 45.43422886 826.4146692 45.43422886 826.41921592 46.79851609 C826.42788812 49.78613363 826.42940992 52.77371102 826.43090343 55.76134014 C826.43553267 57.90346137 826.44055748 60.04558178 826.4459486 62.18770123 C826.45906486 68.00813858 826.46551612 73.82856441 826.46995926 79.64901423 C826.47289138 83.28659422 826.47699647 86.92417106 826.48146343 90.56174946 C826.49513665 101.9463357 826.50480403 113.33091475 826.50866532 124.71550864 C826.51314504 137.85081162 826.53068974 150.98601048 826.55966592 164.1212818 C826.58129375 174.27856954 826.5913702 184.435828 826.59270644 194.59313852 C826.59375372 200.6576356 826.59964526 206.72203479 826.61752605 212.78650761 C826.63402555 218.49351135 826.63615302 224.20034381 826.62738705 229.90736294 C826.62661767 231.99788338 826.63094623 234.08841311 826.6408453 236.17891026 C826.65360138 239.04144327 826.64766806 241.90337295 826.6372633 244.76590252 C826.6453197 245.58548118 826.65337611 246.40505985 826.66167665 247.24947423 C826.56886947 258.23014126 822.67002521 268.44861552 815.16039562 276.51451397 C803.84615663 287.04846062 792.62985528 288.5549109 777.57981777 288.50615788 C776.19527467 288.50885423 774.81073305 288.51242374 773.42619419 288.51678234 C769.62380339 288.52621769 765.82150867 288.52324706 762.01911322 288.5182268 C757.88144331 288.51495579 753.74379375 288.52324635 749.60613036 288.53004515 C742.35492878 288.54034808 735.10375391 288.54318843 727.85254574 288.54113293 C717.06958133 288.53808373 706.28664649 288.54640511 695.50368783 288.55688218 C675.12502779 288.57622941 654.74637781 288.58185066 634.36770967 288.58299629 C618.63147627 288.58391516 602.89524682 288.58803072 587.1590147 288.59439754 C582.63036339 288.59619261 578.10171207 288.59797224 573.57306075 288.5997473 C572.44724601 288.6001894 571.32143128 288.60063149 570.16150094 288.60108699 C538.49226513 288.61339624 506.82303069 288.62128802 475.15379238 288.62040043 C473.95966328 288.62036927 472.76553417 288.62033811 471.53521933 288.62030601 C465.48278847 288.6201398 459.4303576 288.61994171 453.37792674 288.6197366 C452.17587811 288.61969671 450.97382948 288.61965682 449.73535514 288.61961572 C447.30451997 288.61953484 444.8736848 288.61945125 442.44284963 288.61936493 C404.61886522 288.61813929 366.79491665 288.63315473 328.9709425 288.66051006 C286.48246302 288.69122619 243.9940071 288.70844286 201.50551581 288.70658362 C196.97560708 288.70643436 192.44569834 288.70633694 187.9157896 288.70627499 C186.80039902 288.70625168 185.68500843 288.70622837 184.53581813 288.70620435 C166.58099947 288.70614279 148.62621192 288.71891818 130.67140251 288.73613952 C112.62908049 288.75308698 94.58680402 288.75507676 76.54447845 288.74192087 C65.82478063 288.73452596 55.10522112 288.73820589 44.38553794 288.75780555 C37.22381364 288.76979399 30.06218964 288.76722712 22.90046997 288.75286456 C18.82076494 288.74509202 14.74132778 288.74357715 10.66164151 288.75977926 C6.9446086 288.77441168 3.22806491 288.77037782 -0.48894677 288.75193153 C-2.44392333 288.74690595 -4.39892101 288.76135552 -6.35384321 288.77677709 C-19.58525496 288.67069419 -30.92152489 285.35249489 -40.73022938 276.24888897 C-48.24315935 267.70396312 -51.19559528 258.92050833 -51.12463856 247.66751385 C-51.13072966 246.74540798 -51.13682076 245.82330211 -51.14309645 244.87325364 C-51.15964854 241.8058734 -51.15496176 238.73891182 -51.15015125 235.67149639 C-51.15749612 233.46306206 -51.16608356 231.25463157 -51.17581654 229.04620647 C-51.19799776 223.06261933 -51.20096488 217.07917005 -51.19906902 211.09554744 C-51.19894916 206.0932488 -51.20751985 201.09097921 -51.21584654 196.08868867 C-51.23616667 183.60855196 -51.23723529 171.12848225 -51.23003942 158.64833973 C-51.22446663 147.83195592 -51.24528315 137.01580916 -51.27839988 126.19948073 C-51.31220636 115.07076157 -51.3268229 103.94213926 -51.32268286 92.81336576 C-51.3206187 86.57443111 -51.32604348 80.33573258 -51.35057545 74.09684086 C-51.37289404 68.22715305 -51.37092175 62.35795733 -51.35064793 56.48826694 C-51.34724692 54.34053188 -51.3522875 52.19276336 -51.36663151 50.04507351 C-51.45534673 35.77117316 -50.91685405 23.78865667 -40.48022938 12.92467022 C-39.90272938 12.37166241 -39.32522938 11.81865459 -38.73022938 11.24888897 C-38.23522938 10.76806866 -37.74022938 10.28724834 -37.23022938 9.79185772 C-26.6311038 0.25840509 -13.59452169 -0.05435574 0 0 Z M-6.73022938 20.24888897 C-6.73022938 20.57888897 -6.73022938 20.90888897 -6.73022938 21.24888897 C-4.42022938 21.24888897 -2.11022938 21.24888897 0.26977062 21.24888897 C0.59977062 99.45888897 0.92977062 177.66888897 1.26977062 258.24888897 C71.55977062 258.24888897 141.84977062 258.24888897 214.26977062 258.24888897 C215.54829853 254.41330523 215.40763713 250.80729078 215.39675426 246.81096172 C215.39831426 245.9394572 215.39987425 245.06795269 215.40148151 244.17003894 C215.40548257 241.23829747 215.40230525 238.30660742 215.39916515 235.37486553 C215.40051963 233.27743277 215.40229982 231.18000024 215.40447521 229.08256817 C215.40904515 223.37584033 215.40726148 217.66913051 215.40409613 211.96240234 C215.40156894 205.99456323 215.40391119 200.0267257 215.40548229 194.05888653 C215.4073035 184.03139754 215.40489954 174.00391591 215.40014172 163.97642803 C215.39470512 152.38456292 215.39645757 140.79271541 215.40196812 129.20085073 C215.40650771 119.25341556 215.40714547 109.3059857 215.40452945 99.35854983 C215.40297058 93.41544065 215.40276215 87.47233973 215.40606594 81.52923107 C215.4089567 75.93803618 215.40694673 70.34686395 215.40117168 64.7556715 C215.39985031 62.70421162 215.40022764 60.65274983 215.40243435 58.6012907 C215.40517044 55.79908507 215.40173454 52.99695182 215.39675426 50.19475079 C215.39898499 49.3845241 215.40121571 48.57429741 215.40351403 47.7395184 C215.40090628 46.98198451 215.39829853 46.22445061 215.39561176 45.44396114 C215.39544941 44.7981642 215.39528706 44.15236725 215.39511979 43.4870007 C215.22165147 40.38972057 214.70847862 37.31984497 214.26977062 34.24888897 C222.84977062 34.24888897 231.42977062 34.24888897 240.26977062 34.24888897 C239.93977062 36.55888897 239.60977062 38.86888897 239.26977062 41.24888897 C239.19138273 42.65796499 239.14428038 44.06952783 239.14392948 45.48078251 C239.14132173 46.24651659 239.13871399 47.01225068 239.13602722 47.80118883 C239.13825794 48.62056165 239.14048866 49.43993447 239.14278698 50.28413677 C239.14122699 51.17145949 239.139667 52.05878221 239.13805974 52.97299349 C239.13408417 55.93395362 239.13722595 58.8948621 239.14037609 61.85582256 C239.13902058 63.98328462 239.13723981 66.11074644 239.13506603 68.23820782 C239.13051118 74.00627739 239.13227283 79.77432905 239.13544512 85.54239893 C239.13797678 91.57441506 239.13562911 97.60642966 239.13405895 103.63844585 C239.13224046 113.76136329 239.13463606 123.88427342 239.13939953 134.00718975 C239.14485035 145.72649798 239.14307226 157.44578883 239.13757312 169.16509664 C239.13304339 179.21952411 239.13239049 189.27394634 239.13501179 199.32837451 C239.1365742 205.33718471 239.13676913 211.34598673 239.1334753 217.35479641 C239.13059832 222.99691366 239.13256906 228.63900836 239.13836956 234.28112316 C239.13969771 236.35768248 239.13930212 238.43424368 239.1371069 240.51080227 C239.13439777 243.33240862 239.13777347 246.15394143 239.14278698 248.97554302 C239.14055626 249.80830017 239.13832554 250.64105733 239.13602722 251.49904954 C238.79842001 255.17493311 238.79842001 255.17493311 240.26977062 258.24888897 C243.11846134 258.34883552 245.94296813 258.38248443 248.79217052 258.37473011 C249.70136981 258.37618355 250.61056911 258.37763699 251.54731989 258.37913448 C254.63418171 258.38282215 257.720995 258.37929534 260.80785656 258.37587261 C263.02714978 258.37702334 265.24644281 258.37861053 267.46573544 258.38059986 C273.5955973 258.38479983 279.72544373 258.3826995 285.85530567 258.37961364 C291.77720198 258.37759331 297.69909491 258.38024298 303.62099075 258.382761 C316.48765665 258.38803794 329.3543176 258.38756591 342.22098398 258.38468209 C353.48053286 258.38217074 364.74007992 258.38150787 375.99962902 258.38270473 C376.74526972 258.38278112 377.49091043 258.3828575 378.2591463 258.3829362 C381.2856214 258.38324752 384.3120965 258.38356592 387.33857159 258.38389597 C415.75387227 258.38695789 444.16916978 258.38417687 472.58446997 258.37879907 C497.8532698 258.37405314 523.12206459 258.37447776 548.39086437 258.37926006 C576.75278456 258.38460977 605.11470196 258.38674078 633.47662258 258.3836478 C636.49771913 258.38332706 639.51881568 258.38301422 642.53991222 258.38270473 C643.28383326 258.38262566 644.02775429 258.38254658 644.79421839 258.38246511 C656.0492128 258.38132559 667.3042052 258.3826617 678.55919933 258.38518429 C691.35117842 258.388037 704.14315176 258.38734275 716.93513012 258.38190354 C723.4687741 258.37926528 730.00240783 258.37826357 736.53605175 258.3815527 C742.50676925 258.3845131 748.4774669 258.38292715 754.44818258 258.37757514 C756.61841166 258.37644986 758.78864238 258.37704457 760.95887041 258.37945093 C763.88839502 258.38245225 766.81784988 258.37941323 769.74737072 258.37473011 C770.60759571 258.37707128 771.46782069 258.37941244 772.3541131 258.38182455 C776.11745816 258.73452524 776.11745816 258.73452524 779.26977062 257.24888897 C779.37441085 254.32127006 779.41308714 251.41702492 779.41021252 248.48874187 C779.41318364 247.55839849 779.41615476 246.6280551 779.41921592 245.66951948 C779.42794388 242.52661486 779.42941463 239.38374814 779.43090343 236.24083233 C779.43552885 233.99753519 779.44055313 231.75423884 779.4459486 229.51094341 C779.45910449 223.39702439 779.46552419 217.28311637 779.46995926 211.1691854 C779.47288591 207.3514022 779.47699001 203.53362202 779.48146343 199.71584034 C779.49357931 189.1464208 779.50395805 178.5770039 779.50733852 168.0075779 C779.50766787 166.99202486 779.50766787 166.99202486 779.50800388 165.9559556 C779.50822215 165.27728428 779.50844043 164.59861297 779.50866532 163.89937586 C779.50910879 162.52409963 779.50955535 161.1488234 779.510005 159.77354717 C779.51033714 158.75026698 779.51033714 158.75026698 779.510676 157.70631445 C779.51462011 146.66369154 779.53205979 135.62113478 779.55536452 124.5785374 C779.57909594 113.24217769 779.59128347 101.90586229 779.59270644 90.56947333 C779.59375512 84.20428699 779.59967592 77.83919379 779.61752605 71.47403049 C779.63399838 65.48309998 779.63616619 59.49233268 779.62738705 53.5013876 C779.62661613 51.30360191 779.63096659 49.10580748 779.6408453 46.90804386 C779.65355273 43.90447547 779.64769414 40.90148608 779.6372633 37.89792156 C779.6453197 37.03087925 779.65337611 36.16383695 779.66167665 35.27052063 C779.65179188 34.05100671 779.65179188 34.05100671 779.64170742 32.80685616 C779.64230451 32.11478835 779.6429016 31.42272054 779.64351678 30.70968097 C779.09336764 27.08742944 777.5562138 23.67940412 776.26977062 20.24888897 C517.87977062 20.24888897 259.48977062 20.24888897 -6.73022938 20.24888897 Z " fill="#020202" transform="translate(73.73022937774658,16.751111030578613)"/>
<path d="M0 0 C5.31786754 3.55627222 9.78269778 7.4727009 13.51171875 12.6796875 C12.03348532 16.40385571 10.07084614 17.91251738 6.82421875 20.1796875 C-0.42134833 25.77901141 -5.27297972 33.78727993 -7.48828125 42.6796875 C-7.79477245 46.4540561 -7.81290556 50.20697908 -7.80078125 53.9921875 C-7.81689453 54.98669922 -7.83300781 55.98121094 -7.84960938 57.00585938 C-7.85815069 70.01427925 -2.9661839 78.99507095 5.82421875 88.4296875 C9.86511669 92.31374693 14.6238003 94.99477455 19.51171875 97.6796875 C14.87507118 113.61816353 6.99960082 126.92800861 -3.48828125 139.6796875 C-3.99488281 140.30536621 -4.50148437 140.93104492 -5.0234375 141.57568359 C-7.83256022 144.96825324 -10.46471641 147.69946255 -14.23828125 150.0546875 C-15.37523437 150.77785156 -15.37523437 150.77785156 -16.53515625 151.515625 C-22.3689464 154.99256393 -29.85540688 154.44401965 -36.48828125 153.6796875 C-41.00970048 152.38922919 -45.1947651 150.57931531 -49.48828125 148.6796875 C-60.64294908 144.66562078 -70.92526393 146.59214334 -81.67578125 150.6796875 C-90.12217455 153.85445882 -97.09365886 156.38325247 -106.05078125 153.5546875 C-130.69709258 140.11124495 -142.91927501 111.28119326 -150.48828125 85.6796875 C-150.85308594 84.46023437 -151.21789062 83.24078125 -151.59375 81.984375 C-153.67970965 73.54260401 -153.78714955 65.15484662 -153.86328125 56.4921875 C-153.87738037 55.3158374 -153.89147949 54.1394873 -153.90600586 52.92749023 C-153.8129998 36.15461195 -148.58325703 21.03372443 -136.8125 8.86328125 C-125.27595938 -1.97525019 -113.96875108 -7.2286565 -97.9453125 -6.78125 C-89.32490694 -6.17637685 -80.70012223 -2.73305583 -72.90625 0.875 C-65.85296247 3.22229763 -59.70492782 0.68826239 -53.05078125 -1.6953125 C-34.66490813 -8.15202169 -17.64397286 -10.35456509 0 0 Z " fill="#FEFEFE" transform="translate(241.48828125,109.3203125)"/>
<path d="M0 0 C6.39367835 5.60066398 9.65258243 11.30741619 10.27734375 19.74609375 C10.61438078 29.38353101 10.05146184 37.46335049 3.9375 45.25 C-1.08185371 50.53353022 -7.22624805 54.19384475 -14.625 54.5 C-21.68906031 54.04990058 -26.00171939 51.99828061 -31 47 C-31.33 56.24 -31.66 65.48 -32 75 C-35.3 75 -38.6 75 -42 75 C-42.33 49.26 -42.66 23.52 -43 -3 C-39.7 -3 -36.4 -3 -33 -3 C-32.67 -0.36 -32.34 2.28 -32 5 C-31.49210937 4.51789063 -30.98421875 4.03578125 -30.4609375 3.5390625 C-21.28520637 -4.88061587 -10.88463965 -7.07104328 0 0 Z " fill="#F9F9F9" transform="translate(450,178)"/>
<path d="M0 0 C5.32118231 3.51454713 9.71928221 8.73868896 11.671875 14.86328125 C13.40972904 24.99293495 13.38197489 36.09380301 7.4765625 44.7890625 C2.42653344 51.09394727 -3.02159008 54.46558298 -11.02734375 55.7265625 C-15.9353238 55.97677325 -20.63199665 54.79053944 -24.89453125 52.390625 C-26.21453125 51.070625 -27.53453125 49.750625 -28.89453125 48.390625 C-29.22453125 57.630625 -29.55453125 66.870625 -29.89453125 76.390625 C-33.19453125 76.390625 -36.49453125 76.390625 -39.89453125 76.390625 C-39.89453125 50.980625 -39.89453125 25.570625 -39.89453125 -0.609375 C-36.92453125 -0.609375 -33.95453125 -0.609375 -30.89453125 -0.609375 C-30.56453125 1.700625 -30.23453125 4.010625 -29.89453125 6.390625 C-28.90453125 5.276875 -28.90453125 5.276875 -27.89453125 4.140625 C-19.96854206 -3.65215429 -9.92493002 -4.98881438 0 0 Z " fill="#F8F8F8" transform="translate(512.89453125,176.609375)"/>
<path d="M0 0 C5.97600095 4.31600069 9.41414518 9.8263391 11 17 C12.04140349 26.67719283 11.62399958 34.70337088 6 43 C5.443125 43.928125 4.88625 44.85625 4.3125 45.8125 C-1.97410341 51.75928701 -10.06245082 54.35057552 -18.56640625 54.2109375 C-26.08212513 53.55949477 -31.9655319 50.59822364 -37 45 C-42.97306189 36.88036899 -43.95240194 27.79115655 -43 18 C-41.01090288 10.42297542 -37.72989685 4.65716599 -31.125 0.3125 C-21.01075842 -5.58902077 -10.26386774 -5.90259971 0 0 Z " fill="#F8F8F8" transform="translate(694,178)"/>
<path d="M0 0 C1.65322266 0.01740234 1.65322266 0.01740234 3.33984375 0.03515625 C4.99693359 0.04869141 4.99693359 0.04869141 6.6875 0.0625 C7.54214844 0.07410156 8.39679688 0.08570313 9.27734375 0.09765625 C10.03590948 1.8230824 10.78352807 3.55332035 11.52734375 5.28515625 C11.945 6.24808594 12.36265625 7.21101562 12.79296875 8.203125 C14.09505564 11.43944532 15.1060281 14.73522832 16.11328125 18.07421875 C18.17681743 24.89508186 20.52580289 31.59943406 22.9390564 38.30236816 C24.15715443 41.68842325 25.3636935 45.07859065 26.5703125 48.46875 C26.92350304 49.4606987 26.92350304 49.4606987 27.28382874 50.47268677 C29.21942917 55.9170443 31.12111397 61.37151228 32.96484375 66.84765625 C33.20831543 67.56074951 33.45178711 68.27384277 33.70263672 69.00854492 C34.64659219 71.84289728 35.27734375 74.08626556 35.27734375 77.09765625 C31.64734375 77.09765625 28.01734375 77.09765625 24.27734375 77.09765625 C21.63734375 69.17765625 18.99734375 61.25765625 16.27734375 53.09765625 C7.36734375 52.76765625 -1.54265625 52.43765625 -10.72265625 52.09765625 C-11.05265625 53.74765625 -11.38265625 55.39765625 -11.72265625 57.09765625 C-12.15550111 58.56893766 -12.61404483 60.03289689 -13.09765625 61.48828125 C-13.360625 62.27976563 -13.62359375 63.07125 -13.89453125 63.88671875 C-14.1678125 64.69882813 -14.44109375 65.5109375 -14.72265625 66.34765625 C-14.9959375 67.17523438 -15.26921875 68.0028125 -15.55078125 68.85546875 C-15.81375 69.64179688 -16.07671875 70.428125 -16.34765625 71.23828125 C-16.70730469 72.31384277 -16.70730469 72.31384277 -17.07421875 73.41113281 C-17.72265625 75.09765625 -17.72265625 75.09765625 -18.72265625 76.09765625 C-20.40874591 76.16971136 -22.09766284 76.18151693 -23.78515625 76.16015625 C-25.16380859 76.14662109 -25.16380859 76.14662109 -26.5703125 76.1328125 C-27.28058594 76.12121094 -27.99085938 76.10960937 -28.72265625 76.09765625 C-26.88577957 68.31279795 -24.2652757 60.89798102 -21.41186523 53.44018555 C-19.32171954 47.92395488 -17.55462751 42.35142576 -15.8449707 36.70654297 C-13.94474274 30.59621672 -11.8608171 24.54942834 -9.77612305 18.5 C-9.02214336 16.30985671 -8.27364762 14.11788542 -7.52539062 11.92578125 C-7.04589781 10.52983628 -6.56609239 9.13399863 -6.0859375 7.73828125 C-5.86303543 7.08426331 -5.64013336 6.43024536 -5.41047668 5.75640869 C-3.4606105 0.1241252 -3.4606105 0.1241252 0 0 Z " fill="#F9F9F9" transform="translate(361.72265625,153.90234375)"/>
<path d="M0 0 C4.60214839 3.49988558 7.42455475 8.269758 9.234375 13.69921875 C9.234375 18.31921875 9.234375 22.93921875 9.234375 27.69921875 C-3.635625 27.69921875 -16.505625 27.69921875 -29.765625 27.69921875 C-26.2989706 38.56427783 -26.2989706 38.56427783 -18.578125 45.01171875 C-10.60995554 46.95949351 -2.65117574 45.37827138 5.234375 43.69921875 C5.729375 47.65921875 5.729375 47.65921875 6.234375 51.69921875 C-4.64072866 55.29570973 -15.0985913 56.59626017 -25.765625 51.69921875 C-31.5137314 48.76881157 -34.84078327 44.34883161 -37.765625 38.69921875 C-40.1426356 30.26512693 -40.33180165 18.42054003 -36.0859375 10.65625 C-27.39671122 -2.2233428 -14.59086493 -8.10861761 0 0 Z " fill="#F7F7F7" transform="translate(788.765625,177.30078125)"/>
<path d="M0 0 C1.2375 -0.02416992 1.2375 -0.02416992 2.5 -0.04882812 C7.9700194 -0.05316941 11.74859942 0.82172396 16.625 3.3125 C15.965 5.9525 15.305 8.5925 14.625 11.3125 C11.86223823 10.78981534 9.2989124 10.20380413 6.625 9.3125 C-0.28835622 8.78692321 -6.35094706 8.64568516 -12.375 12.3125 C-15.07033745 15.59378037 -14.66244019 19.21647729 -14.375 23.3125 C-13.83481189 26.12422873 -13.83481189 26.12422873 -12.375 28.3125 C-10.17567065 29.47763613 -10.17567065 29.47763613 -7.375 30.3125 C-5.49448978 31.23625941 -3.6156991 32.16407466 -1.75390625 33.125 C0.00771253 34.00436307 1.79650303 34.82974707 3.59765625 35.625 C10.38836447 38.72163026 15.02509103 41.63915096 18.625 48.3125 C20.69780214 54.53090642 20.34669497 61.48434007 17.71484375 67.5 C14.04829736 73.59776891 8.16346504 76.47770507 1.57421875 78.6171875 C-8.10522808 80.89922927 -17.29618012 79.16923899 -26.375 75.3125 C-27.97531344 72.11187313 -26.40673691 69.58978194 -25.375 66.3125 C-22.66800107 66.79020569 -20.21514953 67.37193159 -17.6328125 68.33203125 C-14.06856633 69.40472404 -11.09137625 69.61277508 -7.375 69.625 C-6.199375 69.64175781 -5.02375 69.65851563 -3.8125 69.67578125 C0.9774819 69.16956725 4.39296873 67.79093752 7.5 64.0625 C8.93658806 60.55084029 9.02859922 58.07942609 8.625 54.3125 C5.51006019 47.26289938 -0.50107709 44.63612778 -7.25 41.9375 C-14.60176315 38.84097158 -20.12003867 36.09501578 -24.3125 29.0625 C-25.85866848 23.60543479 -26.65686877 18.45691313 -24.4609375 13.0703125 C-18.6554958 3.14487992 -11.13009454 -0.04307312 0 0 Z " fill="#F7F7F7" transform="translate(585.375,152.6875)"/>
<path d="M0 0 C1.19666895 14.42650906 -3.97864705 26.13269364 -13 37 C-18.31784161 42.59256405 -25.05444058 48.26087819 -33 49 C-36.33531418 49.06691217 -39.66465183 49.05828764 -43 49 C-43.91215443 36.43253894 -41.10071326 26.78636144 -32.9296875 17.08984375 C-24.28689705 7.72973668 -13.24055774 -0.29423462 0 0 Z " fill="#FBFBFB" transform="translate(217,51)"/>
<path d="M0 0 C5.16731808 1.78868703 7.90559452 4.53030319 11 9 C13.88039041 16.13239529 14.24921936 23.66687922 11.3125 30.8125 C8.71678201 36.00393597 5.38058482 39.69830538 0 42 C-5.01448504 42.98027527 -9.02828032 42.45979209 -13.3125 39.625 C-18.4858042 35.21581658 -20.47880563 29.85466667 -21.375 23.2265625 C-21.66310988 16.7981107 -20.56565962 11.41371491 -17 6 C-11.79001343 0.4444531 -7.36961553 -0.67222844 0 0 Z " fill="#080909" transform="translate(682,182)"/>
<path d="M0 0 C6.09658357 3.16553377 9.85293195 7.50374283 12 14 C12.806017 21.84460727 13.07553573 29.57409238 8 36 C4.123855 40.02795225 0.82787208 41.85017442 -4.8125 42.3125 C-9.20360994 42.24804334 -11.61154946 40.84937886 -15 38 C-19.90709631 32.42978257 -20.25577684 29.05006636 -20.375 21.875 C-20.41238281 21.04484375 -20.44976562 20.2146875 -20.48828125 19.359375 C-20.57708864 13.06391797 -19.10991327 8.82098329 -15 4 C-10.34565765 -0.02325717 -5.91750167 -0.75142878 0 0 Z " fill="#080A0A" transform="translate(438,182)"/>
<path d="M0 0 C4.54271448 2.96263988 7.18789336 6.14087372 9.1875 11.1875 C10.65022225 19.03301024 10.42717042 26.57262876 6.875 33.875 C2.88781067 38.53143387 -0.7600181 40.68114902 -6.9375 41.1875 C-11.32860994 41.12304334 -13.73654946 39.72437886 -17.125 36.875 C-22.03209631 31.30478257 -22.38077684 27.92506636 -22.5 20.75 C-22.53738281 19.91984375 -22.57476562 19.0896875 -22.61328125 18.234375 C-22.70200254 11.94502143 -21.24352666 7.68517674 -17.125 2.875 C-11.83035916 -1.60227272 -6.46900185 -2.32884067 0 0 Z " fill="#080909" transform="translate(505.125,183.125)"/>
<path d="M0 0 C1.98 0 3.96 0 6 0 C6 16.5 6 33 6 50 C4.35 50 2.7 50 1 50 C0.67 48.68 0.34 47.36 0 46 C-0.763125 46.639375 -1.52625 47.27875 -2.3125 47.9375 C-6.10824341 50.85051239 -9.17724126 51.35125381 -13.9375 51.28125 C-17.38132092 50.81163806 -19.40999592 49.22860816 -22 47 C-26.38893213 40.94630051 -26.88845988 34.29950558 -26 27 C-23.87191114 21.46880351 -20.39480385 17.53873123 -15 15 C-9.13300557 13.97709716 -6.56639084 15.21680458 -1 18 C-0.67 12.06 -0.34 6.12 0 0 Z " fill="#F9F9F9" transform="translate(605,77)"/>
<path d="M0 0 C4.40460012 2.41965928 7.13190665 5.27537024 9.1015625 9.90625 C10.57729809 15.24302966 10.37193044 20.16632857 8.66015625 25.40234375 C5.54709193 29.82088666 1.90092629 33.42625374 -3.27734375 35.15234375 C-9.1354787 35.54288608 -13.01776619 35.0855697 -18.27734375 32.15234375 C-22.64096264 27.67078922 -24.56152339 23.0718653 -24.71484375 16.83984375 C-24.5914608 11.11795964 -23.17136849 7.35275115 -19.27734375 3.15234375 C-13.86196537 -1.69950541 -6.75477812 -2.51421416 0 0 Z " fill="#F3F3F3" transform="translate(392.27734375,92.84765625)"/>
<path d="M0 0 C4.64208036 2.67812328 7.51728395 5.67685186 9.25 10.875 C9.94177795 17.89484506 9.79729024 24.19730993 5.25 29.875 C1.34377525 33.56521232 -2.44591962 35.18428236 -7.8125 35.4375 C-12.84413454 35.15152384 -15.73860454 33.92366055 -19.75 30.875 C-24.34279269 24.95271469 -25.39626736 20.17904053 -24.75 12.875 C-22.98015105 6.73258305 -19.80085136 3.5018764 -14.75 -0.125 C-10.16867248 -2.41566376 -4.71947978 -1.41584394 0 0 Z " fill="#F3F4F3" transform="translate(658.75,93.125)"/>
<path d="M0 0 C0 4.95 0 9.9 0 15 C4.95 15 9.9 15 15 15 C15 17.64 15 20.28 15 23 C10.05 23 5.1 23 0 23 C0.11840796 27.91145542 0.24266723 32.8227151 0.37231445 37.73388672 C0.41558489 39.40409334 0.45726549 41.07434194 0.49731445 42.74462891 C0.55520851 45.14758955 0.6188474 47.55034041 0.68359375 49.953125 C0.70030624 50.69806213 0.71701874 51.44299927 0.73423767 52.21051025 C0.83309323 55.68205988 1.15166747 58.60666987 2 62 C5.96 62.33 9.92 62.66 14 63 C14 65.64 14 68.28 14 71 C8.43400474 72.56150093 3.15772205 72.773523 -2.3125 70.8125 C-5.73622749 68.50347448 -8.3427146 66.1084757 -9.59837341 62.08050537 C-10.2724698 58.58855241 -10.12084116 55.05846045 -10.09765625 51.515625 C-10.0962413 50.70003113 -10.09482635 49.88443726 -10.09336853 49.04412842 C-10.08778303 46.44604788 -10.07523321 43.84805437 -10.0625 41.25 C-10.05748312 39.48567833 -10.05292054 37.72135531 -10.04882812 35.95703125 C-10.03781835 31.63798744 -10.02056369 27.31900846 -10 23 C-12.64 23 -15.28 23 -18 23 C-18 20.36 -18 17.72 -18 15 C-15.36 15 -12.72 15 -10 15 C-10 10.71 -10 6.42 -10 2 C-4 0 -4 0 0 0 Z " fill="#F5F6F5" transform="translate(630,160)"/>
<path d="M0 0 C3.83084349 2.61193874 6.65161815 5.67823629 8.75 9.875 C9.73319328 23.56407563 9.73319328 23.56407563 5.75 28.875 C1.35163209 33.37193078 -2.42257542 34.98075251 -8.625 35.1875 C-13.22458048 35.12707858 -15.71188493 33.91942459 -19.25 30.875 C-24.24050501 25.34498094 -24.54808343 21.05342502 -24.4609375 13.8203125 C-24.08083504 8.51295587 -22.13593749 5.48444495 -18.25 2.0625 C-12.63336126 -2.03296575 -6.4763665 -2.24181917 0 0 Z " fill="#F6F6F6" transform="translate(533.25,93.125)"/>
<path d="M0 0 C7.48218408 0.10314107 13.85600528 0.65225772 19.74414062 5.67236328 C25.46828423 11.86107506 26.72966849 18.17838121 26.50585938 26.31689453 C25.67414824 33.41416292 22.29967833 39.4001967 17.15429688 44.31689453 C10.24877566 48.24134375 3.93697502 49.45868366 -3.97070312 49.44189453 C-5.19015625 49.44447266 -6.40960938 49.44705078 -7.66601562 49.44970703 C-10.84570312 49.31689453 -10.84570312 49.31689453 -13.84570312 48.31689453 C-13.87097258 41.64169113 -13.8885358 34.96649997 -13.90063477 28.29125977 C-13.90567638 26.01846862 -13.9125095 23.74568073 -13.92114258 21.47290039 C-13.93321573 18.21385902 -13.938933 14.95486036 -13.94335938 11.69580078 C-13.94852066 10.67289444 -13.95368195 9.6499881 -13.95899963 8.59608459 C-13.95907516 7.65518478 -13.9591507 6.71428497 -13.95922852 5.74487305 C-13.96144913 4.91214371 -13.96366974 4.07941437 -13.96595764 3.22145081 C-13.63312426 -2.04986814 -3.94335224 0.00595873 0 0 Z M-7.84570312 5.31689453 C-7.87035162 10.71036441 -7.88853843 16.10380179 -7.90063477 21.49731445 C-7.90567544 23.33358328 -7.91250789 25.16984807 -7.92114258 27.00610352 C-7.93321985 29.63965854 -7.93893394 32.2731607 -7.94335938 34.90673828 C-7.94852066 35.73278061 -7.95368195 36.55882294 -7.95899963 37.40989685 C-7.95919517 39.37925821 -7.90774464 41.34851067 -7.84570312 43.31689453 C-6.32298322 44.83961444 -4.96635154 44.52271436 -2.84570312 44.56689453 C3.59662837 44.47456812 8.92492687 43.06161889 14.02929688 39.06689453 C19.54897942 31.92377594 20.18617377 25.21396642 19.15429688 16.31689453 C16.76996177 11.2832982 13.15436114 7.81692666 8.15429688 5.31689453 C5.43669579 5.24507632 2.745703 5.22389947 0.02929688 5.25439453 C-1.10185547 5.26116211 -1.10185547 5.26116211 -2.25585938 5.26806641 C-4.11917439 5.27985954 -5.98244868 5.29779511 -7.84570312 5.31689453 Z " fill="#F3F3F3" transform="translate(337.845703125,78.68310546875)"/>
<path d="M0 0 C0 3.3 0 6.6 0 10 C-2.3203125 10.309375 -2.3203125 10.309375 -4.6875 10.625 C-8.43815829 11.35813151 -10.60712179 12.02158264 -13.0625 15 C-16.04064421 19.61132006 -16.20373968 22.9025887 -16.31640625 28.2890625 C-16.33718735 29.10748627 -16.35796844 29.92591003 -16.37937927 30.76913452 C-16.44484812 33.38766966 -16.50374726 36.00630639 -16.5625 38.625 C-16.60568776 40.39844807 -16.64930214 42.17188581 -16.69335938 43.9453125 C-16.80052676 48.29677046 -16.90180169 52.64833077 -17 57 C-20.3 57 -23.6 57 -27 57 C-27.33 38.52 -27.66 20.04 -28 1 C-25.03 1 -22.06 1 -19 1 C-18.67 4.3 -18.34 7.6 -18 11 C-17.62875 10.278125 -17.2575 9.55625 -16.875 8.8125 C-12.43864656 2.15796985 -7.91113666 -0.14650253 0 0 Z " fill="#F4F4F4" transform="translate(745,174)"/>
<path d="M0 0 C1.98 0 3.96 0 6 0 C6.79375862 2.66605949 7.58505071 5.33281167 8.375 8 C8.59671875 8.74378906 8.8184375 9.48757812 9.046875 10.25390625 C10.4922941 15.14282378 11.79531345 20.04614877 13 25 C13.23710693 24.27820557 13.47421387 23.55641113 13.71850586 22.81274414 C14.78840239 19.56163243 15.86288718 16.31205569 16.9375 13.0625 C17.31068359 11.92619141 17.68386719 10.78988281 18.06835938 9.61914062 C18.42607422 8.53955078 18.78378906 7.45996094 19.15234375 6.34765625 C19.48226318 5.34742432 19.81218262 4.34719238 20.15209961 3.31665039 C21 1 21 1 22 0 C23.98 0 25.96 0 28 0 C30.31 7.59 32.62 15.18 35 23 C37.22929691 20.77070309 37.5072622 19.71406984 38.25390625 16.71875 C38.46853516 15.87699219 38.68316406 15.03523438 38.90429688 14.16796875 C39.23010742 12.84732422 39.23010742 12.84732422 39.5625 11.5 C39.9994247 9.75994418 40.43814218 8.02033725 40.87890625 6.28125 C41.16616577 5.12206055 41.16616577 5.12206055 41.45922852 3.93945312 C42 2 42 2 43 0 C44.98 0 46.96 0 49 0 C48.42834741 4.76025914 47.4748238 9.05298348 45.93359375 13.58984375 C45.3293457 15.38325195 45.3293457 15.38325195 44.71289062 17.21289062 C44.29201172 18.44201172 43.87113281 19.67113281 43.4375 20.9375 C43.00790487 22.20619117 42.57886341 23.47506996 42.15039062 24.74414062 C41.10568206 27.83131312 40.05540218 30.91647035 39 34 C36.69 34 34.38 34 32 34 C31.03781983 31.1679225 30.0801792 28.33443873 29.125 25.5 C28.85558594 24.70851563 28.58617187 23.91703125 28.30859375 23.1015625 C26.63039965 18.10791177 25.21128032 13.12736137 24 8 C23.74307373 8.91495239 23.74307373 8.91495239 23.48095703 9.84838867 C22.69845296 12.62889351 21.91176734 15.40819863 21.125 18.1875 C20.85558594 19.14720703 20.58617187 20.10691406 20.30859375 21.09570312 C20.04433594 22.02705078 19.78007812 22.95839844 19.5078125 23.91796875 C19.26691895 24.77156982 19.02602539 25.6251709 18.77783203 26.50463867 C17.97942429 29.0660089 17.02809264 31.52287868 16 34 C13.69 34 11.38 34 9 34 C7.8677538 30.21045974 6.7455611 26.4180104 5.625 22.625 C5.30789063 21.56410156 4.99078125 20.50320312 4.6640625 19.41015625 C2.77193374 12.98480233 1.17288048 6.59583652 0 0 Z " fill="#F1F2F1" transform="translate(404,93)"/>
<path d="M0 0 C2.93652301 2.07705286 3.99254755 3.59159989 5.5625 6.8125 C5.90307617 9.85864258 5.90307617 9.85864258 5.85546875 13.20703125 C5.84580078 14.40908203 5.83613281 15.61113281 5.82617188 16.84960938 C5.80103516 18.09548828 5.77589844 19.34136719 5.75 20.625 C5.72969727 22.52282227 5.72969727 22.52282227 5.70898438 24.45898438 C5.67368318 27.57725643 5.62436819 30.69466042 5.5625 33.8125 C3.9125 33.8125 2.2625 33.8125 0.5625 33.8125 C0.5625 32.4925 0.5625 31.1725 0.5625 29.8125 C-0.0975 29.8125 -0.7575 29.8125 -1.4375 29.8125 C-1.7675 30.8025 -2.0975 31.7925 -2.4375 32.8125 C-6.44071246 35.1173799 -10.92553415 35.73312333 -15.4375 34.8125 C-18.12855198 32.63675584 -19.89282928 30.90184144 -21.4375 27.8125 C-21.66362241 22.80831269 -21.20070879 19.66656697 -17.8125 15.875 C-12.04954246 12.35319261 -7.13668092 11.53906404 -0.4375 11.8125 C-1.03933749 9.79204558 -1.71056096 7.79138961 -2.4375 5.8125 C-7.03293291 3.51478355 -13.60997654 4.56668749 -18.4375 5.8125 C-18.4375 4.1625 -18.4375 2.5125 -18.4375 0.8125 C-12.64089801 -2.27902106 -6.08228947 -2.10115454 0 0 Z " fill="#F3F3F3" transform="translate(567.4375,93.1875)"/>
<path d="M0 0 C3.43769083 2.34388011 4.90883069 4.12446993 6.75 7.875 C7.08 11.175 7.41 14.475 7.75 17.875 C-0.5 17.875 -8.75 17.875 -17.25 17.875 C-15.02317076 25.20206905 -15.02317076 25.20206905 -12.546875 27.86328125 C-9.2247082 29.32661663 -6.05401469 29.1935081 -2.5 29.0625 C-1.80261719 29.04896484 -1.10523438 29.03542969 -0.38671875 29.02148438 C1.32585541 28.9862945 3.03802941 28.93249155 4.75 28.875 C4.42 30.525 4.09 32.175 3.75 33.875 C-2.1607637 35.84525457 -8.87848544 35.67962101 -14.75 33.6875 C-18.72424899 30.80616948 -21.34129033 27.37468152 -23.25 22.875 C-24.26153686 16.11367468 -23.48794067 10.54324689 -19.796875 4.7578125 C-14.51903829 -1.66622107 -7.66109712 -2.65191823 0 0 Z " fill="#F3F4F3" transform="translate(809.25,93.125)"/>
<path d="M0 0 C1.98 0 3.96 0 6 0 C6.33 6.27 6.66 12.54 7 19 C8.98 17.68 10.96 16.36 13 15 C16.79611 14.53381105 19.16108808 14.64882757 22.6875 16.125 C26.65942947 19.34548336 28.75886857 21.80286174 29.32104492 26.92529297 C29.39359923 30.41655523 29.34832601 33.88442655 29.25 37.375 C29.23195313 38.58800781 29.21390625 39.80101562 29.1953125 41.05078125 C29.14832216 44.0346679 29.08263372 47.01692279 29 50 C27.02 50 25.04 50 23 50 C22.99589111 49.29915283 22.99178223 48.59830566 22.98754883 47.8762207 C22.95456628 44.68746795 22.88391668 41.50061395 22.8125 38.3125 C22.80669922 37.20970703 22.80089844 36.10691406 22.79492188 34.97070312 C22.80782538 28.31642956 22.80782538 28.31642956 19.67578125 22.734375 C17.02431509 20.6804996 17.02431509 20.6804996 13.375 20.9375 C9.61019358 22.12271684 8.91850915 22.67992613 7 26 C6.49967042 28.69964156 6.49967042 28.69964156 6.48828125 31.640625 C6.43510742 33.24550781 6.43510742 33.24550781 6.38085938 34.8828125 C6.35830078 35.99398437 6.33574219 37.10515625 6.3125 38.25 C6.27833984 39.37664062 6.24417969 40.50328125 6.20898438 41.6640625 C6.12656986 44.44260901 6.05739702 47.22084252 6 50 C4.02 50 2.04 50 0 50 C0 33.5 0 17 0 0 Z " fill="#FAFAFA" transform="translate(751,77)"/>
<path d="M0 0 C4.15757553 1.59906751 6.7122114 3.14688235 9 7 C10.0592918 10.17787541 10.11458939 12.42588943 10.09765625 15.76171875 C10.09443359 16.87998047 10.09121094 17.99824219 10.08789062 19.15039062 C10.07951172 20.31763672 10.07113281 21.48488281 10.0625 22.6875 C10.05798828 23.86634766 10.05347656 25.04519531 10.04882812 26.25976562 C10.03703273 29.17322789 10.0205727 32.08658863 10 35 C7.69 35 5.38 35 3 35 C2.98598145 33.89543457 2.98598145 33.89543457 2.97167969 32.76855469 C2.91795845 29.42835782 2.83431378 26.08955881 2.75 22.75 C2.73582031 21.59113281 2.72164063 20.43226562 2.70703125 19.23828125 C2.67480469 18.12324219 2.64257812 17.00820312 2.609375 15.859375 C2.58842773 14.83295898 2.56748047 13.80654297 2.54589844 12.74902344 C1.8635716 9.31297685 0.77742947 8.08587068 -2 6 C-5.96041454 5.92927831 -8.11555208 6.25553665 -11.171875 8.828125 C-13.94999274 13.648278 -13.67645288 18.33992583 -13.75 23.8125 C-13.77964844 24.88693359 -13.80929687 25.96136719 -13.83984375 27.06835938 C-13.91034921 29.71231427 -13.96314143 32.3553973 -14 35 C-15.98 35 -17.96 35 -20 35 C-20 23.78 -20 12.56 -20 1 C-18.02 1 -16.04 1 -14 1 C-13.67 1.99 -13.34 2.98 -13 4 C-12.154375 3.34 -11.30875 2.68 -10.4375 2 C-6.45336991 -0.31803932 -4.53455517 -0.5668194 0 0 Z " fill="#F0F2F1" transform="translate(478,92)"/>
<path d="M0 0 C3.62775899 1.48408322 6.02583687 3.58940087 8.17089844 6.89111328 C10.07710584 11.73970562 9.39426856 17.25346598 9.25 22.375 C9.23195313 23.58800781 9.21390625 24.80101563 9.1953125 26.05078125 C9.14832216 29.0346679 9.08263372 32.01692279 9 35 C7.02 35 5.04 35 3 35 C2.98541748 34.3294458 2.97083496 33.6588916 2.95581055 32.96801758 C2.881117 29.91561178 2.78452701 26.86427415 2.6875 23.8125 C2.66494141 22.75740234 2.64238281 21.70230469 2.61914062 20.61523438 C2.5659668 19.08286133 2.5659668 19.08286133 2.51171875 17.51953125 C2.48553467 16.58214111 2.45935059 15.64475098 2.43237305 14.67895508 C1.87564174 11.2294844 0.48982221 8.48982221 -2 6 C-5.72871661 5.49153864 -7.48361358 5.65853092 -10.65234375 7.75390625 C-14.59567537 11.93654296 -13.78411722 17.9166187 -13.8125 23.3125 C-13.83763672 24.43462891 -13.86277344 25.55675781 -13.88867188 26.71289062 C-13.9474532 29.47561286 -13.9837998 32.23675392 -14 35 C-16.31 35 -18.62 35 -21 35 C-21 23.78 -21 12.56 -21 1 C-19.02 1 -17.04 1 -15 1 C-14.67 2.32 -14.34 3.64 -14 5 C-13.38125 4.360625 -12.7625 3.72125 -12.125 3.0625 C-8.43772547 -0.51632528 -4.95324565 -0.5153666 0 0 Z " fill="#F1F1F1" transform="translate(695,92)"/>
<path d="M0 0 C2.69105198 2.17574416 4.45532928 3.91065856 6 7 C6.40837661 11.87695917 6.64885631 16.44274485 4.75 21 C1.74127772 24.43853975 0.20894324 25.82415371 -4.4375 26.5 C-8.95412225 25.8660881 -10.23332666 24.55715143 -13 21 C-15.2150309 16.99184885 -15.39783781 13.53535108 -15 9 C-12.19463644 1.70605474 -8.09168704 -1.76604281 0 0 Z " fill="#090B0B" transform="translate(389,97)"/>
<path d="M0 0 C3.96539693 1.17735497 5.8874267 4.17173658 8.20703125 7.375 C9.59508686 11.79154058 9.78926618 15.6366579 7.84375 19.82421875 C4.55114415 25.23419355 4.55114415 25.23419355 1.89453125 26.5625 C-1.35637567 26.93760464 -3.94935326 27.22790869 -6.86328125 25.55078125 C-10.40072352 22.70544725 -11.84727995 20.61493758 -12.4140625 16.109375 C-12.64219055 11.15968756 -12.6718399 7.43856502 -9.60546875 3.375 C-6.61846165 0.44448476 -4.15198876 -0.38106207 0 0 Z " fill="#090A0A" transform="translate(653.10546875,96.4375)"/>
<path d="M0 0 C3.94237155 2.36542293 5.85997429 4.54353587 7 9 C7.50527635 14.45698461 6.59712879 18.17676083 4 23 C1.5377631 25.72604799 0.24723056 25.96853429 -3.4375 26.4375 C-7.61907331 25.92397345 -9.1273824 25.03676718 -12 22 C-14.58321558 17.6946407 -14.57711948 12.88331871 -14 8 C-11.09983952 1.32963089 -7.23312421 -0.88827841 0 0 Z " fill="#070909" transform="translate(529,97)"/>
<path d="M0 0 C2.75329021 1.79562405 4.52627461 3.05254922 6 6 C6.14901491 8.10053716 6.22138453 10.20687825 6.25 12.3125 C6.27578125 13.44300781 6.3015625 14.57351562 6.328125 15.73828125 C5.96848788 19.31324551 5.11615577 21.13361786 3 24 C-0.20937409 26.32402951 -3.11506021 26.47570691 -7 26 C-10.26885225 24.06840549 -11.7046844 22.63281913 -13.3125 19.1875 C-14.665492 12.91453707 -14.49468528 8.49164829 -11 3 C-7.69662086 -0.53933479 -4.69425573 -0.57648755 0 0 Z " fill="#070909" transform="translate(599,97)"/>
<path d="M0 0 C2.55226927 2.55226927 2.82948613 4.5117369 3.75 8 C5.61289543 14.8023909 7.77622663 21.46393681 10.06933594 28.1328125 C12 33.79808156 12 33.79808156 12 36 C4.41 36 -3.18 36 -11 36 C-9.13001729 29.14339672 -7.23573297 22.45073039 -4.9375 15.75 C-3.15705349 10.52974878 -1.4698935 5.31693535 0 0 Z " fill="#090B0B" transform="translate(364,163)"/>
<path d="M0 0 C0 3.3 0 6.6 0 10 C2.97 10 5.94 10 9 10 C9 11.65 9 13.3 9 15 C6.03 15 3.06 15 0 15 C0.33 22.59 0.66 30.18 1 38 C3.31 38.66 5.62 39.32 8 40 C8 41.65 8 43.3 8 45 C0.06666667 45.62222222 0.06666667 45.62222222 -4 43.25 C-7.16968681 39.68410234 -7.12469379 36.44733268 -7.09765625 31.796875 C-7.09443359 30.8171875 -7.09121094 29.8375 -7.08789062 28.828125 C-7.07951172 27.81234375 -7.07113281 26.7965625 -7.0625 25.75 C-7.05798828 24.71875 -7.05347656 23.6875 -7.04882812 22.625 C-7.03706088 20.08327427 -7.02062011 17.54166681 -7 15 C-8.65 15 -10.3 15 -12 15 C-12 13.35 -12 11.7 -12 10 C-10.02 10 -8.04 10 -6 10 C-6 7.03 -6 4.06 -6 1 C-3 0 -3 0 0 0 Z " fill="#EBECEB" transform="translate(737,83)"/>
<path d="M0 0 C4.72957447 2.67323775 6.30538528 5.91615585 8 11 C8 12.65 8 14.3 8 16 C-1.57 16 -11.14 16 -21 16 C-20.06218098 9.43526684 -19.49658903 6.01524041 -14.49609375 1.703125 C-9.73677094 -1.52128859 -5.44994503 -1.57761567 0 0 Z " fill="#0F1010" transform="translate(781,182)"/>
<path d="M0 0 C1.98 0 3.96 0 6 0 C6 16.5 6 33 6 50 C4.02 50 2.04 50 0 50 C0 33.5 0 17 0 0 Z " fill="#FFFFFF" transform="translate(496,77)"/>
<path d="M0 0 C0.60356653 7.12208505 0.60356653 7.12208505 -2.0625 11 C-5.72510477 13.49368836 -7.65375654 13.72437391 -12 13 C-14 11.3125 -14 11.3125 -15 9 C-15 5.57169756 -14.24424873 4.28241259 -12 1.6875 C-7.92905632 -0.60240582 -4.56618517 -0.35813217 0 0 Z " fill="#060808" transform="translate(567,110)"/>
<path d="M0 0 C2.42710077 1.79849913 3.36326313 3.34030259 5 6 C5 7.32 5 8.64 5 10 C-1.27 10 -7.54 10 -14 10 C-12 3 -12 3 -10.375 1.0625 C-6.88767455 -0.49761928 -3.68644186 -0.91248561 0 0 Z " fill="#171818" transform="translate(806,97)"/>
<path d="M0 0 C2 2 2 2 2.22705078 5.43994141 C2.22673369 6.91051979 2.21540987 8.38112142 2.1953125 9.8515625 C2.1924826 10.62559418 2.18965271 11.39962585 2.18673706 12.19711304 C2.17552754 14.67323157 2.15042203 17.1489905 2.125 19.625 C2.11497118 21.30207812 2.10584516 22.97916189 2.09765625 24.65625 C2.07558574 28.77097223 2.04105102 32.88542511 2 37 C4.64 37 7.28 37 10 37 C10 37.66 10 38.32 10 39 C8.52093108 39.02689216 7.04172517 39.04634621 5.5625 39.0625 C4.73878906 39.07410156 3.91507812 39.08570313 3.06640625 39.09765625 C1 39 1 39 0 38 C-0.08861992 35.1883662 -0.11522355 32.40141745 -0.09765625 29.58984375 C-0.0962413 28.74780899 -0.09482635 27.90577423 -0.09336853 27.03822327 C-0.08775263 24.33794665 -0.07519748 21.63775172 -0.0625 18.9375 C-0.05748705 17.11132932 -0.05292379 15.28515734 -0.04882812 13.45898438 C-0.03777804 8.97262458 -0.02050279 4.48632616 0 0 Z " fill="#414241" transform="translate(330,84)"/>
<path d="M0 0 C8.91 0 17.82 0 27 0 C27.33 1.65 27.66 3.3 28 5 C27.01 4.34 26.02 3.68 25 3 C22.28621528 2.72374906 22.28621528 2.72374906 19.23828125 2.8046875 C17.56088867 2.81435547 17.56088867 2.81435547 15.84960938 2.82421875 C14.68236328 2.84097656 13.51511719 2.85773438 12.3125 2.875 C10.54422852 2.88853516 10.54422852 2.88853516 8.74023438 2.90234375 C5.82661974 2.92593577 2.91341108 2.9588546 0 3 C0 2.01 0 1.02 0 0 Z " fill="#1F1F1F" transform="translate(351,206)"/>
<path d="M0 0 C1.83212879 3.36027208 2.95066515 6.78070477 4.0625 10.4375 C4.40410156 11.54996094 4.74570312 12.66242188 5.09765625 13.80859375 C5.8680085 16.53317292 6.49525011 19.21607021 7 22 C6.34 22 5.68 22 5 22 C3.11304374 17.71146306 1.41807378 13.47238653 0 9 C-0.26554687 9.71027344 -0.53109375 10.42054687 -0.8046875 11.15234375 C-1.15789062 12.07144531 -1.51109375 12.99054688 -1.875 13.9375 C-2.22304688 14.85402344 -2.57109375 15.77054688 -2.9296875 16.71484375 C-4 19 -4 19 -6 20 C-4.22089072 13.24947898 -2.29561809 6.59379663 0 0 Z " fill="#202120" transform="translate(428,100)"/>
<path d="M0 0 C2.42130331 3.63195496 2.21022785 5.38349348 2.125 9.6875 C2.10695313 10.86699219 2.08890625 12.04648438 2.0703125 13.26171875 C2.03550781 14.61716797 2.03550781 14.61716797 2 16 C5.94618016 16.11519965 5.94618016 16.11519965 9.5625 15.375 C13 15 13 15 16 17 C15.43152344 17.02578125 14.86304688 17.0515625 14.27734375 17.078125 C13.50519531 17.13484375 12.73304688 17.1915625 11.9375 17.25 C10.80634766 17.31960937 10.80634766 17.31960937 9.65234375 17.390625 C6.08422195 18.07584216 6.08422195 18.07584216 0 22 C0 14.74 0 7.48 0 0 Z " fill="#000000" transform="translate(757,75)"/>
<path d="M0 0 C0.33 0.66 0.66 1.32 1 2 C3.7920301 1.8595017 6.58349796 1.71284617 9.375 1.5625 C10.1690625 1.52318359 10.963125 1.48386719 11.78125 1.44335938 C16.02601221 1.31106596 16.02601221 1.31106596 20 0 C20.33 1.32 20.66 2.64 21 4 C13.41 4 5.82 4 -2 4 C-1.34 2.68 -0.68 1.36 0 0 Z " fill="#2D2D2D" transform="translate(355,195)"/>
<path d="M0 0 C0.70576172 0.52400391 0.70576172 0.52400391 1.42578125 1.05859375 C2.35970703 1.74115234 2.35970703 1.74115234 3.3125 2.4375 C4.23482422 3.11619141 4.23482422 3.11619141 5.17578125 3.80859375 C9.16357008 6.41303827 13.11573918 6.1179929 17.6875 6.0625 C18.38939453 6.05798828 19.09128906 6.05347656 19.81445312 6.04882812 C21.54300538 6.03706927 23.27151365 6.01913454 25 6 C25 6.66 25 7.32 25 8 C17.42348631 10.02040365 10.4787886 9.87965763 3.59375 6.0703125 C2 5 2 5 0 3 C0 2.01 0 1.02 0 0 Z " fill="#0F0F0F" transform="translate(763,215)"/>
<path d="M0 0 C0.66 0 1.32 0 2 0 C1.96519531 1.08667969 1.96519531 1.08667969 1.9296875 2.1953125 C1.69247384 9.82808543 1.69247384 9.82808543 4 17 C6.00136244 18.42055068 6.00136244 18.42055068 8 19 C7.34 19.33 6.68 19.66 6 20 C1.77110947 17.10654858 0.08462061 15.02869554 -1 10 C-1.19047978 6.25389773 -1.18684691 3.56054073 0 0 Z " fill="#242424" transform="translate(586,103)"/>
<path d="M0 0 C0.66 0 1.32 0 2 0 C3.75075779 2.23872238 5.38901209 4.47656754 7 6.8125 C7.67675781 7.77639648 7.67675781 7.77639648 8.3671875 8.75976562 C10.27728108 11.48645247 12.15320245 14.22980367 14 17 C12 16 10 15 8 14 C7.67 13.01 7.34 12.02 7 11 C6.566875 10.566875 6.13375 10.13375 5.6875 9.6875 C3.36739482 7.36739482 1.71862579 4.78535904 0 2 C0 1.34 0 0.68 0 0 Z " fill="#0E0F0F" transform="translate(108,236)"/>
<path d="M0 0 C3.0390625 -0.29296875 3.0390625 -0.29296875 6.625 -0.1875 C7.81351562 -0.16042969 9.00203125 -0.13335937 10.2265625 -0.10546875 C11.14179688 -0.07066406 12.05703125 -0.03585938 13 0 C13 0.66 13 1.32 13 2 C11.73542969 2.05607422 11.73542969 2.05607422 10.4453125 2.11328125 C8.80175781 2.21189453 8.80175781 2.21189453 7.125 2.3125 C6.03445313 2.37050781 4.94390625 2.42851562 3.8203125 2.48828125 C2.42425781 2.74158203 2.42425781 2.74158203 1 3 C0.34 3.99 -0.32 4.98 -1 6 C-1.33 5.01 -1.66 4.02 -2 3 C-1.34 2.01 -0.68 1.02 0 0 Z " fill="#202020" transform="translate(358,152)"/>
<path d="M0 0 C0.99 0.33 1.98 0.66 3 1 C2.38125 1.0825 1.7625 1.165 1.125 1.25 C-1.09230398 1.82369058 -1.09230398 1.82369058 -2.3125 3.625 C-3.27383682 6.94598174 -2.64496692 9.64617202 -2 13 C-4.0625 11.3125 -4.0625 11.3125 -6 9 C-6.0625 6.5 -6.0625 6.5 -5 4 C-2.625 1.625 -2.625 1.625 0 0 Z " fill="#121313" transform="translate(558,110)"/>
<path d="M0 0 C2.50696229 0.95091673 3.94401245 1.93801378 5.75 3.9375 C7.63654688 8.55953986 7.23305871 13.07123991 7 18 C6.67 18 6.34 18 6 18 C5.96132813 17.12988281 5.96132813 17.12988281 5.921875 16.2421875 C5.51979774 10.70448699 4.44149402 7.5169609 1 3 C0.67 2.01 0.34 1.02 0 0 Z " fill="#222323" transform="translate(536,94)"/>
<path d="M0 0 C2.5654594 2.5654594 2.54046087 4.47686668 3 8 C2.34 8 1.68 8 1 8 C-0.32 9.32 -1.64 10.64 -3 12 C-2.01 8.04 -1.02 4.08 0 0 Z " fill="#1D1D1D" transform="translate(364,163)"/>
<path d="M0 0 C1.485 0.99 1.485 0.99 3 2 C3 2.66 3 3.32 3 4 C5.65228812 5.07525194 8.28368454 6.09456151 11 7 C11 7.66 11 8.32 11 9 C5.95030484 8.55443866 3.52381313 6.44186399 0 3 C0 2.01 0 1.02 0 0 Z " fill="#141414" transform="translate(665,215)"/>
<path d="M0 0 C0.33 0 0.66 0 1 0 C1 2.64 1 5.28 1 8 C-0.98 8 -2.96 8 -5 8 C-5 7.34 -5 6.68 -5 6 C-3.68 6 -2.36 6 -1 6 C-1.020625 5.195625 -1.04125 4.39125 -1.0625 3.5625 C-1 1 -1 1 0 0 Z " fill="#343434" transform="translate(730,85)"/>
<path d="M0 0 C1.50539661 0.94983358 3.00420347 1.91011891 4.5 2.875 C5.75296875 3.67550781 5.75296875 3.67550781 7.03125 4.4921875 C7.6809375 4.98976562 8.330625 5.48734375 9 6 C9 6.66 9 7.32 9 8 C2.18181818 6.03030303 2.18181818 6.03030303 0 3 C0 2.01 0 1.02 0 0 Z " fill="#151515" transform="translate(763,215)"/>
<path d="M0 0 C0.99 0.33 1.98 0.66 3 1 C3.73046875 2.84765625 3.73046875 2.84765625 4.1875 5.0625 C4.34605469 5.79597656 4.50460937 6.52945313 4.66796875 7.28515625 C4.83232422 8.13400391 4.83232422 8.13400391 5 9 C4.01 8.67 3.02 8.34 2 8 C1.26953125 6.15234375 1.26953125 6.15234375 0.8125 3.9375 C0.65394531 3.20402344 0.49539063 2.47054687 0.33203125 1.71484375 C0.22246094 1.14894531 0.11289062 0.58304688 0 0 Z " fill="#1B1B1B" transform="translate(370,186)"/>
<path d="M0 0 C0.99 0.33 1.98 0.66 3 1 C-0.465 3.97 -0.465 3.97 -4 7 C-4 4 -4 4 -2 1.8125 C-1.34 1.214375 -0.68 0.61625 0 0 Z " fill="#0F1010" transform="translate(647,97)"/>
<path d="M0 0 C5.50588235 0.48941176 5.50588235 0.48941176 7.875 2.9375 C9 5 9 5 9 7 C8.34 7 7.68 7 7 7 C5.65080468 5.34614767 4.31866272 3.678298 3 2 C2.01 1.34 1.02 0.68 0 0 Z " fill="#171717" transform="translate(771,92)"/>
<path d="M0 0 C3 1 3 1 4.75 3.3125 C6 6 6 6 5.6875 8.3125 C5.460625 8.869375 5.23375 9.42625 5 10 C1.125 3.375 1.125 3.375 0 0 Z " fill="#141515" transform="translate(452,179)"/>
<path d="M0 0 C-1.39332574 3.36720387 -2.9789286 4.9859524 -6 7 C-6 5.68 -6 4.36 -6 3 C-2.78571429 0 -2.78571429 0 0 0 Z " fill="#151515" transform="translate(423,177)"/>
<path d="M0 0 C0.99 0.33 1.98 0.66 3 1 C3.33 3.64 3.66 6.28 4 9 C1.47740939 7.02579865 1.0070192 6.03254358 0.3125 2.8125 C0.209375 1.884375 0.10625 0.95625 0 0 Z " fill="#171717" transform="translate(792,111)"/>
<path d="M0 0 C2 1 2 1 2.6328125 2.84765625 C2.79523438 3.57855469 2.95765625 4.30945313 3.125 5.0625 C3.29257812 5.79597656 3.46015625 6.52945313 3.6328125 7.28515625 C3.75398438 7.85105469 3.87515625 8.41695312 4 9 C3.34 9 2.68 9 2 9 C0.93347808 6.69631264 -0.06421005 4.35981813 -1 2 C-0.67 1.34 -0.34 0.68 0 0 Z " fill="#1D1D1D" transform="translate(431,113)"/>
<path d="M0 0 C5.50588235 0.48941176 5.50588235 0.48941176 7.875 2.9375 C9 5 9 5 9 7 C8.34 7 7.68 7 7 7 C5.65080468 5.34614767 4.31866272 3.678298 3 2 C2.01 1.34 1.02 0.68 0 0 Z " fill="#151616" transform="translate(695,92)"/>
</svg>
