<svg width="98" height="34" xmlns="http://www.w3.org/2000/svg"><defs><radialGradient cx="86.856%" cy="57.878%" fx="86.856%" fy="57.878%" r="94.494%" id="a"><stop stop-color="#4D8AA5" offset="0%"/><stop stop-color="#61A7C7" offset="100%"/></radialGradient></defs><g fill="none"><g transform="translate(39.22)" fill="#0F0F0F"><path d="M6.27 20.274c1.456 0 2.65-.372 3.582-1.116.933-.744 1.469-1.816 1.61-3.218H8.89c-.108.733-.393 1.286-.857 1.658-.463.372-1.062.558-1.795.558-.948 0-1.687-.332-2.215-.995-.528-.663-.792-1.593-.792-2.79v-.129c0-1.185.27-2.118.808-2.797.54-.68 1.267-1.019 2.183-1.019 1.423 0 2.232.712 2.426 2.135h2.684c-.13-1.38-.655-2.426-1.577-3.137-.921-.712-2.105-1.068-3.55-1.068-1.66 0-3.031.55-4.114 1.65-1.084 1.1-1.626 2.517-1.626 4.253v.129c0 1.811.504 3.245 1.512 4.301 1.008 1.057 2.44 1.585 4.294 1.585zm8.739-.178V7.806H12.68v12.29h2.329zm3.014-9.605c.377 0 .695-.119.954-.356.258-.248.388-.555.388-.922a1.2 1.2 0 0 0-.388-.913 1.342 1.342 0 0 0-.954-.364c-.378 0-.693.121-.946.364-.254.242-.38.547-.38.913 0 .367.126.672.38.914.253.243.568.364.946.364zm1.18 9.605v-8.457h-2.329v8.457h2.329zm4.162 0v-4.997c0-.55.154-.975.46-1.277.308-.302.699-.453 1.173-.453.884 0 1.326.523 1.326 1.569v5.158h2.329v-4.997c0-.55.153-.975.46-1.277.308-.302.698-.453 1.173-.453.884 0 1.326.523 1.326 1.569v5.158h2.328v-5.417c0-1.078-.256-1.887-.768-2.426-.512-.539-1.183-.808-2.013-.808-1.24 0-2.188.49-2.846 1.471-.399-.98-1.186-1.471-2.36-1.471-.594 0-1.117.14-1.57.42-.452.28-.792.636-1.018 1.068v-1.294H21.02v8.457h2.345zm14.527.178c1.132 0 1.983-.399 2.555-1.197v1.019h2.28v-5.514c0-2.091-1.18-3.137-3.541-3.137-1.09 0-1.979.243-2.669.728s-1.067 1.207-1.131 2.166H37.6c.108-.797.587-1.196 1.439-1.196.507 0 .862.126 1.067.38.205.253.307.644.307 1.172v.34h-.954c-2.932 0-4.398.905-4.398 2.716 0 .841.264 1.472.792 1.892.529.42 1.208.63 2.038.63zm.695-1.633c-.82 0-1.229-.34-1.229-1.019 0-.431.18-.738.542-.922.361-.183.897-.275 1.609-.275h.905v.712c0 .463-.172.83-.517 1.1-.345.269-.782.404-1.31.404zm8.9 1.617c.517 0 .992-.076 1.423-.227v-1.81a2.296 2.296 0 0 1-.89.16c-.625 0-.937-.333-.937-1.002v-4.074h1.778v-1.666h-1.778V9.812h-2.329v1.827h-1.083v1.666h1.083v4.285c0 .873.232 1.536.696 1.989.463.452 1.142.679 2.037.679zm6.571.016c1.154 0 2.08-.245 2.782-.736.7-.49 1.12-1.194 1.26-2.11h-2.214c-.162.787-.75 1.18-1.763 1.18-.636 0-1.137-.194-1.504-.582-.366-.388-.566-.932-.598-1.633h6.096v-.647c0-1.423-.39-2.495-1.172-3.218-.782-.722-1.766-1.083-2.951-1.083-1.25 0-2.288.404-3.113 1.213-.825.808-1.237 1.87-1.237 3.185v.13c0 1.326.41 2.374 1.229 3.145.82.77 1.88 1.156 3.185 1.156zm1.779-5.32h-3.784c.086-.604.3-1.07.639-1.399.34-.329.773-.493 1.302-.493 1.153 0 1.768.63 1.843 1.892zM2.617 33.668l.791-2.571h4.188l.793 2.57h2.733L7.37 22.108H3.958l-3.8 11.56h2.458zm4.414-4.43H3.974l1.537-4.997 1.52 4.996zm8.721 4.608c1.208 0 2.167-.31 2.879-.93.711-.62 1.1-1.442 1.164-2.466h-2.118c-.054.528-.248.932-.582 1.213-.335.28-.744.42-1.23.42-.657 0-1.166-.218-1.527-.655-.362-.436-.542-1.075-.542-1.916v-.13c0-.797.183-1.417.55-1.859.366-.442.857-.663 1.471-.663.981 0 1.552.48 1.714 1.44h2.215c-.097-1.133-.514-1.963-1.253-2.49-.738-.53-1.646-.793-2.724-.793-1.24 0-2.278.401-3.113 1.204-.836.804-1.253 1.868-1.253 3.194v.13c0 1.347.407 2.4 1.22 3.16.814.76 1.857 1.14 3.13 1.14zm8.27-.017c.517 0 .991-.075 1.423-.226v-1.811a2.296 2.296 0 0 1-.89.162c-.625 0-.938-.334-.938-1.003v-4.075h1.78v-1.665h-1.78v-1.827H21.29v1.827h-1.084v1.665h1.084v4.285c0 .874.232 1.537.695 1.99.464.452 1.143.678 2.038.678zm3.887-9.766c.377 0 .695-.119.954-.356.258-.248.388-.555.388-.922a1.2 1.2 0 0 0-.388-.913 1.342 1.342 0 0 0-.954-.364c-.378 0-.693.121-.946.364-.254.242-.38.547-.38.913 0 .367.126.671.38.914.253.242.568.364.946.364zm1.18 9.605V25.21h-2.328v8.457h2.328zm5.747.178c1.293 0 2.36-.4 3.201-1.197.841-.798 1.262-1.854 1.262-3.17v-.129c0-1.304-.418-2.352-1.253-3.145-.836-.792-1.9-1.188-3.194-1.188s-2.36.404-3.202 1.213c-.84.808-1.261 1.864-1.261 3.169v.13c0 1.293.42 2.336 1.261 3.128.841.792 1.903 1.189 3.186 1.189zm.016-1.78c-.658 0-1.17-.225-1.536-.678-.356-.464-.534-1.1-.534-1.908v-.13c0-.808.183-1.436.55-1.883.366-.448.873-.672 1.52-.672.658 0 1.167.23 1.528.688.361.458.542 1.091.542 1.9v.113c0 .808-.18 1.439-.542 1.892-.361.453-.87.679-1.528.679zm8.027 1.602v-4.884c0-.603.161-1.064.485-1.382.323-.318.749-.477 1.277-.477.518 0 .895.137 1.132.412.237.275.356.704.356 1.286v5.045h2.344v-5.385c0-1.089-.256-1.905-.768-2.45-.512-.544-1.204-.816-2.078-.816-.668 0-1.237.143-1.705.428a2.704 2.704 0 0 0-1.043 1.108V25.21h-2.345v8.457h2.345zM2.127 5.335l1.011-3.633.984 3.633h.927L6.298.35h-.865L4.54 4.03 3.55.35h-.767l-.97 3.661L.948.35H0l1.241 4.986h.886zm6 .07c.47 0 .851-.102 1.144-.307.293-.204.47-.497.53-.879h-.816c-.065.372-.344.558-.837.558-.311 0-.553-.093-.725-.279-.172-.186-.265-.453-.279-.802h2.671v-.244c0-.614-.164-1.074-.491-1.38-.328-.308-.738-.461-1.231-.461-.526 0-.96.174-1.301.523-.342.349-.513.802-.513 1.36v.056c0 .567.172 1.018.516 1.353.345.335.789.502 1.333.502zm.851-2.274h-1.82c.042-.283.145-.505.31-.666a.86.86 0 0 1 .625-.24c.548 0 .844.302.885.906zm4.204 2.267c.219 0 .41-.03.572-.09v-.67c-.111.046-.249.07-.411.07-.28 0-.419-.156-.419-.468V2.322h.802v-.634h-.802V.886h-.844v.802h-.488v.634h.488v1.995c0 .349.094.616.283.802.188.186.461.279.82.279zm2.179.007c.483 0 .855-.172 1.116-.516v.446h.83V2.943c0-.888-.486-1.332-1.458-1.332-.437 0-.799.1-1.084.3-.286.2-.446.502-.478.907h.816c.042-.382.274-.572.697-.572.242 0 .413.059.513.178.1.118.15.303.15.554v.188h-.454c-.567 0-1.02.093-1.36.28-.339.185-.509.478-.509.878 0 .363.114.633.342.812.228.18.52.269.879.269zm.202-.607c-.39 0-.586-.17-.586-.509 0-.395.351-.593 1.053-.593h.433v.363a.653.653 0 0 1-.251.54c-.168.133-.384.2-.649.2zm3.413.537V3.543l1.367 1.792h.976l-1.534-1.973 1.416-1.674h-.92l-1.305 1.604V0h-.844v5.335h.844zm4.208.07c.47 0 .851-.102 1.144-.307.293-.204.47-.497.53-.879h-.816c-.065.372-.344.558-.837.558-.311 0-.553-.093-.725-.279-.172-.186-.265-.453-.28-.802h2.672v-.244c0-.614-.164-1.074-.492-1.38-.328-.308-.738-.461-1.23-.461-.526 0-.96.174-1.301.523-.342.349-.513.802-.513 1.36v.056c0 .567.172 1.018.516 1.353.344.335.788.502 1.332.502zm.851-2.274h-1.82c.042-.283.145-.505.31-.666a.86.86 0 0 1 .624-.24c.549 0 .844.302.886.906z"/></g><path d="M16.943.412c2.513 0 4.804.482 6.872 1.446 2.068.964 3.834 2.24 5.297 3.825a17.191 17.191 0 0 1 3.389 5.412c.525 1.333.876 2.68 1.055 4.041l-4.883 6.546-1.81-3.708v-.07c0-1.177-.22-2.337-.662-3.48a9.744 9.744 0 0 0-1.88-3.057 9.297 9.297 0 0 0-2.939-2.162c-1.147-.545-2.418-.817-3.813-.817-1.36 0-2.613.259-3.76.777a9.555 9.555 0 0 0-2.98 2.083 9.486 9.486 0 0 0-1.959 3.019 9.305 9.305 0 0 0-.701 3.559c0 1.213.225 2.39.675 3.533a9.78 9.78 0 0 0 1.893 3.045 9.397 9.397 0 0 0 2.94 2.148c1.147.545 2.418.818 3.813.818 1.359 0 2.612-.264 3.76-.791a9.575 9.575 0 0 0 2.965-2.096 9.602 9.602 0 0 0 1.947-3.019l.025-.067 2.035 4.021 5.366-6.294a16.25 16.25 0 0 1-1.159 4.426 16.96 16.96 0 0 1-3.507 5.342c-1.496 1.54-3.278 2.775-5.346 3.708-2.068.933-4.327 1.4-6.777 1.4-2.513 0-4.804-.482-6.872-1.446-2.068-.964-3.834-2.232-5.298-3.802a17.261 17.261 0 0 1-3.412-5.388A16.637 16.637 0 0 1 0 17.113c0-2.177.422-4.277 1.265-6.298a16.757 16.757 0 0 1 3.531-5.342c1.512-1.539 3.301-2.767 5.37-3.685C12.234.871 14.493.412 16.943.412z" fill="url(#a)"/></g></svg>