<?xml version="1.0" encoding="UTF-8"?>
<svg version="1.1" xmlns="http://www.w3.org/2000/svg" width="920" height="322">
<path d="M0 0 C1.38994149 -0.00239106 2.7798817 -0.00565702 4.16981933 -0.0097166 C7.9965048 -0.01834404 11.82309231 -0.01450707 15.64977932 -0.00866088 C19.81026066 -0.0044946 23.97072399 -0.01189024 28.13120097 -0.01781338 C35.42546992 -0.0265848 42.71971081 -0.02788416 50.01398373 -0.02431011 C60.86085644 -0.01900936 71.70770192 -0.0250921 82.55457167 -0.03339304 C103.05296814 -0.0486484 123.55135227 -0.05033653 144.04975323 -0.04787002 C159.87711648 -0.04603862 175.70447567 -0.04779374 191.53183842 -0.05209446 C193.80432091 -0.05269686 196.0768034 -0.05329805 198.3492859 -0.05389806 C201.7735455 -0.0548053 205.19780511 -0.05571396 208.62206471 -0.05663041 C240.46706036 -0.06506234 272.31205448 -0.06939399 304.15705109 -0.06522369 C305.95850344 -0.06498913 305.95850344 -0.06498913 307.79634877 -0.06474983 C313.88357137 -0.06394402 319.97079398 -0.06309825 326.05801658 -0.06223653 C327.87148456 -0.06197989 327.87148456 -0.06197989 329.72158826 -0.06171808 C332.16643793 -0.06137142 334.61128759 -0.06102289 337.05613726 -0.06067249 C375.10129807 -0.05531482 413.14643572 -0.06324604 451.19159222 -0.08170605 C493.91917823 -0.10241366 536.64674988 -0.11315112 579.37434119 -0.10913056 C583.92866115 -0.1087352 588.4829811 -0.10837366 593.03730106 -0.10803318 C594.15871952 -0.10794245 595.28013798 -0.10785172 596.43553881 -0.10775824 C613.37798534 -0.10659137 630.32041739 -0.11324735 647.2628603 -0.1238451 C666.52749818 -0.13588301 685.79210412 -0.13747235 705.05674247 -0.12505493 C715.84146909 -0.11841486 726.62611941 -0.12008379 737.41083997 -0.13364345 C744.61215377 -0.14186884 751.81341024 -0.13921531 759.01471935 -0.12766818 C763.11949719 -0.12139277 767.2241258 -0.11985975 771.32889519 -0.13153151 C775.06515717 -0.14205781 778.80114329 -0.13871042 782.53739045 -0.12442699 C784.50995053 -0.12042321 786.48252387 -0.13109107 788.45505556 -0.14240405 C800.43726082 -0.06902752 810.08568557 2.58304679 819.48529339 10.25447559 C831.97141787 23.34712874 832.07356168 38.55509943 831.98700237 55.55159473 C831.99079155 57.6818016 831.99629651 59.812006 832.00337505 61.94220448 C832.01726782 67.69422906 832.00620368 73.44595246 831.98966384 79.19796014 C831.97575091 85.23547233 831.98228044 91.27296814 831.98579693 97.31049061 C831.98849392 107.44559517 831.97506672 117.58058095 831.95184612 127.71565723 C831.92523254 139.41220386 831.92349355 151.10855208 831.93523449 162.80511862 C831.94603478 174.08559541 831.93980798 185.36600084 831.92567921 196.64647198 C831.91993967 201.43444931 831.91998604 206.22237407 831.92474461 211.01035213 C831.92953688 216.65348121 831.91931974 222.29639459 831.89778996 227.93948269 C831.89225277 230.00335685 831.89172837 232.06725186 831.89674282 234.13112736 C831.92913083 249.38026287 831.54859044 262.88988193 821.48529339 275.25447559 C813.87362149 282.72724837 804.49403564 287.37545375 793.78932762 287.38327676 C792.61804497 287.38654895 791.44676231 287.38982115 790.23998624 287.3931925 C788.94959162 287.39170888 787.659197 287.39022525 786.32969952 287.38869667 C784.9421554 287.39064942 783.55461183 287.39303819 782.16706914 287.39582464 C778.33306375 287.40223746 774.49907928 287.40238524 770.66506955 287.40154723 C766.5018136 287.40171648 762.3385652 287.40761978 758.175313 287.41278809 C749.9084403 287.42212508 741.64157296 287.42603799 733.37469564 287.42830706 C723.47643596 287.43126628 713.57818341 287.43996204 703.67992746 287.44872134 C679.75296342 287.4695783 655.82599813 287.48003751 631.89902711 287.48885095 C620.58285455 287.49305568 609.26668252 287.4982779 597.95051041 287.50353548 C559.22447575 287.52142675 520.49844094 287.53642339 481.77240276 287.54385567 C479.34057577 287.54433043 476.90874879 287.54480632 474.4769218 287.54528333 C473.27093727 287.5455197 472.06495275 287.54575608 470.82242323 287.54599962 C464.7121625 287.54720084 458.60190177 287.54841628 452.49164104 287.54964161 C450.67273136 287.55000183 450.67273136 287.55000183 448.81707603 287.55036934 C409.49570007 287.55826341 370.17435427 287.58169693 330.85299148 287.61419755 C289.29381541 287.64848519 247.73465699 287.66820582 206.17546654 287.67149991 C201.61432361 287.67191746 197.05318069 287.67239702 192.49203777 287.67292309 C190.80737838 287.67310788 190.80737838 287.67310788 189.08868546 287.6732964 C171.00414534 287.67562976 152.9196402 287.69129735 134.83511255 287.71176493 C116.66113636 287.73200761 98.48720224 287.73750761 80.31321687 287.7279943 C69.51334776 287.72277327 58.7136186 287.72868525 47.91376959 287.75052897 C40.69970919 287.76401857 33.48574532 287.76297633 26.271684 287.75012701 C22.16117516 287.74321815 18.05093423 287.74260244 13.94044912 287.7596871 C10.19658042 287.77512108 6.45319429 287.77193847 2.70933966 287.75427682 C0.73757427 287.74967038 -1.23420773 287.76458715 -3.2059148 287.78043661 C-16.08716692 287.68046915 -26.15494324 284.40266466 -35.41705036 275.40681934 C-43.23988693 267.08781978 -45.66428791 258.50061239 -45.66187763 247.3056078 C-45.66555432 246.39115204 -45.66923101 245.47669628 -45.67301911 244.53452975 C-45.68405241 241.46322674 -45.68789922 238.39195756 -45.69170856 235.3206377 C-45.69797355 233.12117372 -45.70462038 230.9217108 -45.71162128 228.72224903 C-45.73266224 221.4921133 -45.74302461 214.26197736 -45.75298786 207.03181934 C-45.75703559 204.54199239 -45.76115251 202.05216555 -45.76533794 199.56233883 C-45.7822075 189.20383343 -45.79684143 178.8453296 -45.80408669 168.48681259 C-45.80599645 165.80007329 -45.8079168 163.113334 -45.80987263 160.42659473 C-45.81059824 159.42498338 -45.81059824 159.42498338 -45.81133851 158.40313745 C-45.81963196 147.59550437 -45.84495775 136.78798221 -45.8774533 125.98039751 C-45.91057578 114.87332741 -45.9282078 103.76630341 -45.93173093 92.65918261 C-45.93407975 86.42749029 -45.94301851 80.19597328 -45.9681921 73.96432781 C-45.99150643 68.09807033 -45.99569233 62.23210318 -45.98543072 56.36581135 C-45.98493605 54.21765457 -45.99123604 52.06948333 -46.00498676 49.92137051 C-46.09861476 34.42245453 -45.25843068 22.13575812 -33.85455036 10.57088184 C-23.81493909 1.40030299 -13.15644885 -0.04513694 0 0 Z " fill="#000000" transform="translate(68.5147066116333,16.745524406433105)"/>
<path d="M0 0 C2.69529561 0.80512767 4.84280419 1.8283443 7.28051758 3.22729492 C8.17794678 3.7381665 9.07537598 4.24903809 10 4.77539062 C11.44403198 5.61203247 11.44403198 5.61203247 12.91723633 6.46557617 C13.93342041 7.04718506 14.94960449 7.62879395 15.99658203 8.22802734 C24.1146522 12.88536401 32.19611091 17.60646013 40.27246094 22.33569336 C47.97999472 26.84542716 55.72227665 31.29248309 63.47973633 35.71557617 C81.88374874 46.21159721 100.23808522 56.7917305 118.52709961 67.48706055 C123.89920814 70.62606079 129.28052146 73.74812969 134.67504883 76.84838867 C135.26566101 77.1880365 135.85627319 77.52768433 136.46478271 77.87762451 C139.32630499 79.52293346 142.18908218 81.16594507 145.05395508 82.80541992 C147.91325958 84.4479991 150.75940162 86.11147621 153.60473633 87.77807617 C154.28761719 88.15416016 154.97049805 88.53024414 155.67407227 88.91772461 C157.34692383 89.89526367 157.34692383 89.89526367 159.60473633 91.77807617 C160.10058594 94.15576172 160.10058594 94.15576172 159.60473633 96.77807617 C157.22460937 98.75048828 157.22460937 98.75048828 153.92895508 100.61791992 C153.3416008 100.95774399 152.75424652 101.29756805 152.14909363 101.64768982 C150.30982457 102.70758395 148.45778416 103.74251138 146.60473633 104.77807617 C144.44447377 106.02919472 142.28431496 107.28049241 140.12426758 108.53198242 C137.8897393 109.80353463 135.65402247 111.073 133.41723633 112.34057617 C130.94656036 113.74573095 128.47685527 115.1525889 126.00708008 116.55932617 C125.38698059 116.91225235 124.7668811 117.26517853 124.12799072 117.62879944 C117.89835548 121.17591673 111.68723412 124.75487281 105.47973633 128.34057617 C104.41601807 128.95489502 103.3522998 129.56921387 102.25634766 130.20214844 C100.11164046 131.4409984 97.96702753 132.68001159 95.82250977 133.91918945 C90.41802987 137.04132222 85.01126221 140.15948821 79.60473633 143.27807617 C77.43805882 144.52805739 75.27139215 145.77805738 73.10473633 147.02807617 C68.77140299 149.52807617 64.43806966 152.02807617 60.10473633 154.52807617 C59.03126953 155.14739014 57.95780273 155.7667041 56.85180664 156.40478516 C54.6949273 157.64912615 52.53802641 158.89342981 50.38110352 160.13769531 C43.66667173 164.01113264 36.95293842 167.88577635 30.24023438 171.76220703 C28.01338762 173.04705602 25.78570824 174.33046321 23.55712891 175.61230469 C19.03454529 178.21401914 14.51641814 180.81910194 10.03833008 183.49682617 C9.06428223 184.07315796 9.06428223 184.07315796 8.07055664 184.66113281 C6.45631904 185.6182844 4.84850623 186.58625079 3.24145508 187.55541992 C0.39039763 188.87746582 -1.29712904 189.29532068 -4.39526367 188.77807617 C-6.67184133 185.36320969 -6.64379683 184.18366852 -6.63818359 180.17480469 C-6.64120483 178.99806686 -6.64422607 177.82132904 -6.64733887 176.6089325 C-6.64020874 175.30478897 -6.63307861 174.00064545 -6.62573242 172.65698242 C-6.62499873 171.25222289 -6.6250632 169.84746275 -6.62585449 168.44270325 C-6.62499867 164.56048852 -6.61063149 160.67842833 -6.59310532 156.79625702 C-6.58277299 154.34278954 -6.57557658 151.88933351 -6.56948853 149.43585205 C-6.5443485 139.38583047 -6.5002186 129.33599494 -6.4451952 119.28609467 C-6.40896267 112.61217026 -6.37849932 105.9382433 -6.35143757 99.26427555 C-6.29633463 85.68221131 -6.22151632 72.10038975 -6.12979126 58.51852417 C-6.09697498 53.59855328 -6.07068452 48.67861046 -6.0496521 43.75857544 C-6.02403894 37.90973282 -5.98374805 32.06116995 -5.93226624 26.21249962 C-5.91550255 24.0338238 -5.90388893 21.85510185 -5.89759827 19.67637062 C-5.88807997 16.68832495 -5.86024674 13.70100446 -5.82763672 10.71313477 C-5.82907275 9.82968667 -5.83050879 8.94623857 -5.83198833 8.03601933 C-5.79399109 5.60726929 -5.79399109 5.60726929 -5.39526367 1.77807617 C-2.39526367 -0.22192383 -2.39526367 -0.22192383 0 0 Z " fill="#4998B9" transform="translate(94.395263671875,75.221923828125)"/>
<path d="M0 0 C3.69601582 0.58078497 6.43707508 1.59059581 9.67578125 3.44921875 C10.57321045 3.96009033 11.47063965 4.47096191 12.39526367 4.99731445 C13.83929565 5.8339563 13.83929565 5.8339563 15.3125 6.6875 C16.32868408 7.26910889 17.34486816 7.85071777 18.3918457 8.44995117 C26.50991587 13.10728784 34.59137458 17.82838396 42.66772461 22.55761719 C50.37525839 27.06735099 58.11754032 31.51440692 65.875 35.9375 C84.27901241 46.43352103 102.6333489 57.01365433 120.92236328 67.70898438 C126.29447181 70.84798462 131.67578514 73.97005352 137.0703125 77.0703125 C137.66092468 77.40996033 138.25153687 77.74960815 138.86004639 78.09954834 C141.72156866 79.74485729 144.58434585 81.38786889 147.44921875 83.02734375 C150.30852325 84.66992293 153.15466529 86.33340004 156 88 C156.68288086 88.37608398 157.36576172 88.75216797 158.06933594 89.13964844 C159.7421875 90.1171875 159.7421875 90.1171875 162 92 C162.49584961 94.37768555 162.49584961 94.37768555 162 97 C159.61987305 98.97241211 159.61987305 98.97241211 156.32421875 100.83984375 C155.73686447 101.17966782 155.14951019 101.51949188 154.5443573 101.86961365 C152.70508824 102.92950778 150.85304784 103.96443521 149 105 C146.83973745 106.25111855 144.67957863 107.50241624 142.51953125 108.75390625 C140.28500298 110.02545846 138.04928614 111.29492382 135.8125 112.5625 C133.34182403 113.96765477 130.87211894 115.37451273 128.40234375 116.78125 C127.78224426 117.13417618 127.16214478 117.48710236 126.52325439 117.85072327 C120.29361915 121.39784056 114.0824978 124.97679664 107.875 128.5625 C106.81128174 129.17681885 105.74756348 129.7911377 104.65161133 130.42407227 C102.50690413 131.66292223 100.3622912 132.90193541 98.21777344 134.14111328 C92.81329355 137.26324605 87.40652588 140.38141204 82 143.5 C79.8333225 144.74998122 77.66665583 145.99998121 75.5 147.25 C71.16666667 149.75 66.83333333 152.25 62.5 154.75 C61.4265332 155.36931396 60.35306641 155.98862793 59.24707031 156.62670898 C57.09019097 157.87104998 54.93329008 159.11535364 52.77636719 160.35961914 C46.06177806 164.23314724 39.34790304 168.1079088 32.63500977 171.984375 C30.40974713 173.26833469 28.18369522 174.55092761 25.95678711 175.83203125 C21.41037033 178.44782595 16.86848637 181.06762881 12.36328125 183.75390625 C11.37569824 184.33700562 11.37569824 184.33700562 10.36816406 184.93188477 C8.72169512 185.90583036 7.08121555 186.88988303 5.44140625 187.875 C3 189 3 189 0 188 C11.69393636 176.25939884 23.39354916 164.52448914 35.1000042 152.79637146 C40.53504843 147.35100276 45.96819917 141.90376939 51.39697266 136.45214844 C56.1272015 131.70202147 60.86090353 126.95538856 65.59885705 122.21296597 C68.1087939 119.70041565 70.61692416 117.18611846 73.12090683 114.66763306 C75.91226736 111.86023598 78.71137395 109.06064406 81.51123047 106.26171875 C82.34560638 105.42015228 83.1799823 104.57858582 84.03964233 103.71151733 C84.79966553 102.95424347 85.55968872 102.1969696 86.34274292 101.41674805 C87.00459028 100.7530571 87.66643764 100.08936615 88.34834099 99.40556335 C90 98 90 98 92 98 C92 97.34 92 96.68 92 96 C92.66 96 93.32 96 94 96 C92.9171875 94.6696875 92.9171875 94.6696875 91.8125 93.3125 C91.40644531 92.81363281 91.00039062 92.31476563 90.58203125 91.80078125 C86.86777082 87.57294407 82.7061929 83.71587235 78.70707703 79.75837708 C75.92717639 77.00521554 73.15255477 74.2467595 70.37817383 71.48803711 C68.91053111 70.03053524 67.44111081 68.57482128 65.9699707 67.12084961 C63.84380008 65.01880507 61.72403729 62.91048384 59.60546875 60.80078125 C58.94306686 60.14870193 58.28066498 59.49662262 57.59819031 58.82478333 C56.99368546 58.22042953 56.3891806 57.61607574 55.76635742 56.9934082 C55.23072678 56.46221878 54.69509613 55.93102936 54.14323425 55.38374329 C53 54 53 54 53 52 C52.34 52 51.68 52 51 52 C51 51.34 51 50.68 51 50 C50.34 50 49.68 50 49 50 C49 49.34 49 48.68 49 48 C48.34 48 47.68 48 47 48 C47 47.34 47 46.68 47 46 C46.34 46 45.68 46 45 46 C45 45.34 45 44.68 45 44 C44.34 44 43.68 44 43 44 C43 43.34 43 42.68 43 42 C42.42320496 41.74819473 41.84640991 41.49638947 41.25213623 41.23695374 C38.71126165 39.84141457 37.01279644 38.25998127 34.96582031 36.20874023 C34.18531311 35.43130966 33.40480591 34.65387909 32.60064697 33.85289001 C31.76821472 33.01327225 30.93578247 32.17365448 30.078125 31.30859375 C28.78814606 30.01792747 28.78814606 30.01792747 27.47210693 28.70118713 C25.65758061 26.88364161 23.84548347 25.06366816 22.03564453 23.24145508 C19.25216706 20.43968131 16.46073067 17.64603183 13.66796875 14.85351562 C11.90838058 13.0890138 10.14924998 11.32405555 8.390625 9.55859375 C7.55009583 8.71695175 6.70956665 7.87530975 5.84356689 7.00816345 C5.07566833 6.23388504 4.30776978 5.45960663 3.51660156 4.66186523 C2.83583557 3.97728745 2.15506958 3.29270966 1.45367432 2.58738708 C0 1 0 1 0 0 Z " fill="#C1DC9F" transform="translate(92,75)"/>
<path d="M0 0 C0.99 0 1.98 0 3 0 C3.495 2.475 3.495 2.475 4 5 C3.01 4.67 2.02 4.34 1 4 C1.99 6.475 1.99 6.475 3 9 C6.16666667 7.16666667 6.16666667 7.16666667 8 4 C8.99 5.485 8.99 5.485 10 7 C10.28875 6.38125 10.5775 5.7625 10.875 5.125 C12 3 12 3 14 1 C14.99 3.97 14.99 3.97 16 7 C16.99 7 17.98 7 19 7 C14.48231594 12.41513654 9.6966332 17.44070184 4.69970703 22.41381836 C3.88928452 23.2243869 3.078862 24.03495544 2.24388123 24.87008667 C-0.41577634 27.52905167 -3.07895054 30.18446431 -5.7421875 32.83984375 C-7.59471113 34.69050087 -9.44701304 36.54137997 -11.29910278 38.39247131 C-15.6636848 42.75395677 -20.03080752 47.11288886 -24.39886963 51.47088867 C-29.37551106 56.43631671 -34.34928177 61.4046161 -39.32282424 66.37314785 C-49.54537869 76.58527587 -59.77149833 86.79382877 -70 97 C-70.99 96.67 -71.98 96.34 -73 96 C-74.48579821 93.02840358 -74.12736602 90.35014682 -74.12939453 87.03442383 C-74.13114685 86.3169548 -74.13289917 85.59948578 -74.13470459 84.86027527 C-74.1391224 82.4758363 -74.13618136 80.09147105 -74.1328125 77.70703125 C-74.13348652 76.04188523 -74.13445736 74.37673931 -74.13571167 72.71159363 C-74.13718932 69.20851715 -74.13503547 65.7054661 -74.13037109 62.20239258 C-74.12473107 57.75352557 -74.12791551 53.30471965 -74.13394356 48.85585499 C-74.13759672 45.40760355 -74.13638804 41.95936603 -74.13381577 38.51111412 C-74.13315655 36.87397949 -74.13393901 35.23684353 -74.13629532 33.59971046 C-74.14778611 23.35305893 -73.82602172 13.2162343 -73 3 C-72.01 2.67 -71.02 2.34 -70 2 C-70 3.98 -70 5.96 -70 8 C-69.34 7.67 -68.68 7.34 -68 7 C-67.67 8.32 -67.34 9.64 -67 11 C-65.35 9.35 -63.7 7.7 -62 6 C-61.34 6.33 -60.68 6.66 -60 7 C-59.01 7.33 -58.02 7.66 -57 8 C-56.01 8.33 -55.02 8.66 -54 9 C-50.35055759 7.6314591 -47.24481751 6.16321167 -44 4 C-43.4465236 6.07553648 -43 7.84365964 -43 10 C-41.35 8.68 -39.7 7.36 -38 6 C-37.34 6.33 -36.68 6.66 -36 7 C-35.67 6.34 -35.34 5.68 -35 5 C-33 6 -33 6 -32 8 C-31.01 7.34 -30.02 6.68 -29 6 C-28.01 7.65 -27.02 9.3 -26 11 C-22.76681408 9.4911799 -20.64697278 8.29394556 -19 5 C-18.01 5.66 -17.02 6.32 -16 7 C-15.01 7 -14.02 7 -13 7 C-12.505 7.495 -12.505 7.495 -12 8 C-11.67 7.01 -11.34 6.02 -11 5 C-11.99 5 -12.98 5 -14 5 C-14.495 3.515 -14.495 3.515 -15 2 C-14.34 1.67 -13.68 1.34 -13 1 C-10.69363725 3.30636275 -8.82224023 5.26663965 -7 8 C-5.68 7.34 -4.36 6.68 -3 6 C-2.505 7.485 -2.505 7.485 -2 9 C-1.34 8.34 -0.68 7.68 0 7 C-0.29299023 5.32577014 -0.62690101 3.65821773 -1 2 C-0.67 1.34 -0.34 0.68 0 0 Z " fill="#71B1B9" transform="translate(162,167)"/>
<path d="M0 0 C1.55337248 0.01507027 3.10675906 0.02875454 4.66015625 0.04101562 C8.44045615 0.07384503 12.22007063 0.12549746 16 0.1875 C11.32733754 3.76987455 8.97976363 4.29823636 3 4.1875 C3 4.8475 3 5.5075 3 6.1875 C3.66 6.1875 4.32 6.1875 5 6.1875 C8.99842859 10.3070931 10.38605681 14.65220257 10.5625 20.3125 C10.19287571 27.87558173 7.04082011 31.19370206 1.75 36.25 C1.04359375 36.88035156 0.3371875 37.51070312 -0.390625 38.16015625 C-2.13425453 40.08997537 -2.13425453 40.08997537 -2.6640625 42.52734375 C-1.59426332 46.81283339 1.58312677 48.91098853 4.875 51.6875 C13.33986402 58.9119681 13.33986402 58.9119681 14.3359375 65.36328125 C14.45809445 72.04526644 12.83645589 76.67839885 8.6328125 81.87890625 C1.65971359 88.7999671 -8.29086664 90.4065662 -17.75 90.625 C-26.869387 90.34324757 -33.48098598 88.70651402 -40 82.1875 C-42.73193002 77.72816405 -42.64446901 73.27074934 -42 68.1875 C-38.95271194 61.97572049 -34.26926834 57.80598869 -27.8125 55.5 C-22.63350235 53.94453313 -17.33403744 53.03496389 -12 52.1875 C-12.66 51.1975 -13.32 50.2075 -14 49.1875 C-14.25760279 46.49297479 -14.08900053 43.90201625 -14 41.1875 C-15.155 41.27 -16.31 41.3525 -17.5 41.4375 C-23.05707484 41.41782894 -27.57582792 39.53966697 -31.578125 35.65625 C-36.34503884 30.06745446 -36.45838081 25.95911225 -36.4140625 18.75 C-35.80593989 13.51785078 -33.7570011 10.72930295 -30 7.1875 C-29.21625 6.424375 -28.4325 5.66125 -27.625 4.875 C-18.83140456 -0.77802564 -10.04882334 -0.16979415 0 0 Z " fill="#F6F7F6" transform="translate(545,150.8125)"/>
<path d="M0 0 C6.24884178 3.27920871 9.61873346 8.59810159 11.9375 15.125 C14.65777246 25.64986368 14.1460049 37.17258933 8.80859375 46.75 C5.48289004 51.67965345 1.90931867 55.04955654 -3.9375 56.5 C-11.91403976 57.41734576 -18.96991307 57.70977214 -25.6171875 52.7890625 C-26.9375 51.5 -26.9375 51.5 -27.9375 49.5 C-27.9375 60.06 -27.9375 70.62 -27.9375 81.5 C-30.9075 81.5 -33.8775 81.5 -36.9375 81.5 C-36.9375 54.44 -36.9375 27.38 -36.9375 -0.5 C-34.6275 -0.5 -32.3175 -0.5 -29.9375 -0.5 C-29.2775 1.48 -28.6175 3.46 -27.9375 5.5 C-27.03 4.71625 -26.1225 3.9325 -25.1875 3.125 C-18.09594722 -2.99952286 -8.67325451 -3.33359782 0 0 Z " fill="#F6F6F6" transform="translate(715.9375,150.5)"/>
<path d="M0 0 C4.18723179 3.51148257 8.13394584 7.13394584 12 11 C13.09743008 11.90407335 14.20170339 12.79990084 15.3125 13.6875 C16.199375 14.450625 17.08625 15.21375 18 16 C18 16.66 18 17.32 18 18 C18.66 18 19.32 18 20 18 C20 18.66 20 19.32 20 20 C20.66 20 21.32 20 22 20 C22 20.66 22 21.32 22 22 C22.66 22 23.32 22 24 22 C24 22.66 24 23.32 24 24 C25.485 24.495 25.485 24.495 27 25 C23.59166354 27.8455204 20.16533016 30.18211602 16.30078125 32.36328125 C15.18735352 32.99508301 14.07392578 33.62688477 12.92675781 34.27783203 C12.3385022 34.6089801 11.75024658 34.94012817 11.14416504 35.28131104 C8.63483426 36.69401158 6.13109703 38.11650093 3.62686157 39.53820801 C2.33106981 40.27366346 1.03498562 41.00860393 -0.26138306 41.74304199 C-6.60869686 45.33957763 -12.93234363 48.97663388 -19.25 52.625 C-20.31968018 53.2422998 -21.38936035 53.85959961 -22.49145508 54.49560547 C-29.63230128 58.62080198 -36.75633975 62.77416771 -43.875 66.9375 C-56.26189665 74.18146944 -68.70967688 81.32005356 -81.19580078 88.39160156 C-82.89467473 89.36602099 -84.5838447 90.35802394 -86.25341797 91.38183594 C-87.79514516 92.32420409 -89.39221139 93.17538115 -91 94 C-91.99 93.67 -92.98 93.34 -94 93 C-82.30606364 81.25939884 -70.60645084 69.52448914 -58.8999958 57.79637146 C-53.46495157 52.35100276 -48.03180083 46.90376939 -42.60302734 41.45214844 C-37.8727985 36.70202147 -33.13909647 31.95538856 -28.40114295 27.21296597 C-25.8912061 24.70041565 -23.38307584 22.18611846 -20.87909317 19.66763306 C-18.08773264 16.86023598 -15.28862605 14.06064406 -12.48876953 11.26171875 C-11.23720566 9.99936905 -11.23720566 9.99936905 -9.96035767 8.71151733 C-9.20033447 7.95424347 -8.44031128 7.1969696 -7.65725708 6.41674805 C-6.99540972 5.7530571 -6.33356236 5.08936615 -5.65165901 4.40556335 C-4 3 -4 3 -2 3 C-2 2.34 -2 1.68 -2 1 C-1.34 0.67 -0.68 0.34 0 0 Z " fill="#BE4063" transform="translate(186,170)"/>
<path d="M0 0 C-0.55570855 3.740665 -2.009785 5.3425749 -4.8125 7.8125 C-5.49957031 8.43769531 -6.18664062 9.06289062 -6.89453125 9.70703125 C-9 11 -9 11 -11.26171875 10.69921875 C-11.83535156 10.46847656 -12.40898437 10.23773438 -13 10 C-12.67 8.68 -12.34 7.36 -12 6 C-20.73138503 -1.35149312 -28.10410898 -3.63986963 -39.56640625 -3.34375 C-48.23109915 -2.47629497 -55.35160324 1.35999581 -61 8 C-67.75308927 18.90237547 -68.66485294 31.01380583 -66.3515625 43.5 C-62.86928671 54.92900773 -56.43800313 63.19597761 -46 69 C-37.29742327 73.5398891 -28.63313288 73.8748146 -19 73 C-16.03 72.01 -16.03 72.01 -13 71 C-12.67 64.73 -12.34 58.46 -12 52 C-13.32 52.33 -14.64 52.66 -16 53 C-18.24907152 53.06790675 -20.50001605 53.08499984 -22.75 53.0625 C-23.92046875 53.05347656 -25.0909375 53.04445312 -26.296875 53.03515625 C-27.18890625 53.02355469 -28.0809375 53.01195312 -29 53 C-24.19651726 49.22583499 -21.11971995 47.74392431 -14.921875 47.8046875 C-13.18164062 47.81435547 -13.18164062 47.81435547 -11.40625 47.82421875 C-10.1996875 47.84097656 -8.993125 47.85773438 -7.75 47.875 C-5.91695312 47.88853516 -5.91695312 47.88853516 -4.046875 47.90234375 C-1.03105218 47.92590487 1.98437492 47.95880294 5 48 C4.34 48.99 3.68 49.98 3 51 C2.34 51 1.68 51 1 51 C1 58.26 1 65.52 1 73 C-19.22031522 78.32113558 -41.53630585 83.8637376 -61.03125 73.27734375 C-70.21099993 67.32143457 -76.38228922 59.32065542 -80 49 C-82.8343448 35.61968397 -81.75411991 23.07538152 -74.35546875 11.40625 C-57.34387187 -11.63428753 -23.6746637 -14.95011171 0 0 Z " fill="#F5F6F6" transform="translate(370,131)"/>
<path d="M0 0 C13.51092612 6.75546306 13.51092612 6.75546306 18.2109375 9.5078125 C19.22800781 10.10207031 20.24507812 10.69632813 21.29296875 11.30859375 C22.31003906 11.90800781 23.32710937 12.50742188 24.375 13.125 C25.93541016 14.03572266 25.93541016 14.03572266 27.52734375 14.96484375 C29.50651318 16.12504652 31.48054024 17.29408579 33.44824219 18.47363281 C34.97252426 19.385402 36.50671521 20.28134827 38.05957031 21.14355469 C40.72570279 22.70075098 41.86503964 23.49583774 42.6796875 26.5390625 C42 29 42 29 40.0703125 30.7109375 C39.09835938 31.26007813 38.12640625 31.80921875 37.125 32.375 C36.57779297 32.68880615 36.03058594 33.0026123 35.46679688 33.32592773 C34.14342107 34.08409736 32.81581531 34.83490502 31.48535156 35.58056641 C28.46940887 37.30303112 25.49864055 39.09482535 22.5234375 40.88671875 C20.77168093 41.93103458 19.01837391 42.97267655 17.26409912 44.01275635 C16.0902237 44.71128188 14.91885289 45.41403411 13.75006104 46.12103271 C12.08139471 47.12736559 10.40023087 48.11288458 8.71875 49.09765625 C7.73841797 49.68039307 6.75808594 50.26312988 5.74804688 50.86352539 C2.6238847 52.1555452 1.17437099 52.00953389 -2 51 C-2 50.34 -2 49.68 -2 49 C-2.66 49 -3.32 49 -4 49 C-4 48.34 -4 47.68 -4 47 C-4.66 47 -5.32 47 -6 47 C-6 46.34 -6 45.68 -6 45 C-6.66 45 -7.32 45 -8 45 C-8 44.34 -8 43.68 -8 43 C-8.5775 42.7525 -9.155 42.505 -9.75 42.25 C-12.32939979 40.81700012 -14.06121592 39.21575324 -16 37 C-16 36.34 -16 35.68 -16 35 C-17.32 34.34 -18.64 33.68 -20 33 C-21.98 30.69 -23.96 28.38 -26 26 C-17.42 17.42 -8.84 8.84 0 0 Z " fill="#F3AE73" transform="translate(212,143)"/>
<path d="M0 0 C3.39452377 3.12159724 5.84916553 6.35707611 6.12025452 11.10710144 C6.11803391 11.91762466 6.11581329 12.72814789 6.11352539 13.56323242 C6.11344986 14.48396042 6.11337433 15.40468842 6.11329651 16.35331726 C6.10813522 17.34402725 6.10297394 18.33473724 6.09765625 19.35546875 C6.0962413 20.37224197 6.09482635 21.3890152 6.09336853 22.43659973 C6.08776707 25.68692964 6.07521432 28.93719088 6.0625 32.1875 C6.05748519 34.38997296 6.05292225 36.59244701 6.04882812 38.79492188 C6.03779717 44.19663804 6.02105762 49.59831412 6 55 C3.69 55 1.38 55 -1 55 C-1.66 52.69 -2.32 50.38 -3 48 C-3.886875 48.78375 -4.77375 49.5675 -5.6875 50.375 C-10.50893927 54.6358068 -15.09576189 55.31113557 -21.4375 55.375 C-22.71496094 55.40335938 -23.99242187 55.43171875 -25.30859375 55.4609375 C-30.58338643 54.80228614 -34.6202538 52.09127172 -38 48 C-40.00455433 41.98633702 -40.02063395 35.28622004 -37.4375 29.5 C-31.97371355 23.89611646 -25.11482335 20.92225648 -17.2578125 20.8046875 C-15.5467651 20.8178494 -13.83577018 20.84150601 -12.125 20.875 C-11.24585938 20.88402344 -10.36671875 20.89304688 -9.4609375 20.90234375 C-7.3071729 20.92575423 -5.15354986 20.9616199 -3 21 C-3.03773752 13.747397 -3.03773752 13.747397 -5.9375 7.375 C-10.52280205 4.31813196 -14.59860524 4.56145645 -20 5 C-23.73276107 5.80759107 -27.36299316 6.83837044 -31 8 C-32.4606285 5.35261084 -33 4.10551666 -33 1 C-22.5220243 -3.78993175 -10.49186202 -5.72283383 0 0 Z " fill="#F7F7F7" transform="translate(798,152)"/>
<path d="M0 0 C7.07063812 2.95271967 9.73467316 8.28211681 12.5703125 15.0703125 C14.21108424 19.55651278 14.44268369 23.69120683 14.3984375 28.43359375 C14.4284082 29.57924805 14.4284082 29.57924805 14.45898438 30.74804688 C14.45413299 36.4193108 13.19086531 39.7030229 9.9609375 44.37109375 C6.59749677 47.42165627 3.98945617 48.63564038 -0.4765625 48.87109375 C-5.02944795 48.61136539 -8.65956531 47.50746164 -12.0390625 44.37109375 C-18.99063986 35.55485799 -21.73849451 25.22003164 -21.37890625 14.1015625 C-20.76039363 9.13213351 -19.14136153 6.15873197 -15.23828125 2.83984375 C-10.19903159 -0.68273854 -6.07489286 -1.87367385 0 0 Z " fill="#020202" transform="translate(412.0390625,153.62890625)"/>
<path d="M0 0 C6.31409127 2.53045643 9.21092831 7.41043435 11.921875 13.4453125 C13.63761293 18.45150675 14.30949564 23.11558878 14.296875 28.3828125 C14.29445801 29.43505005 14.29445801 29.43505005 14.29199219 30.50854492 C14.13329906 37.2024387 12.81832659 41.63937502 7.921875 46.3828125 C3.65571954 48.64920759 -0.26609146 48.85311195 -5.078125 48.4453125 C-11.60612293 45.63152029 -15.27174891 41.76556198 -18.015625 35.203125 C-20.7963973 27.26188102 -23.31458151 17.23889165 -20.171875 9.09765625 C-15.50468618 1.09462414 -9.15785029 -2.44438861 0 0 Z " fill="#020202" transform="translate(476.078125,153.5546875)"/>
<path d="M0 0 C3.41185402 3.57054491 5.51569679 7.40832537 7.6875 11.8125 C8.1825 12.8025 8.1825 12.8025 8.6875 13.8125 C9.50383183 24.63893365 8.69248056 32.74763948 2.0625 41.5625 C-2.83734328 46.9100447 -10.08747825 50.36093614 -17.3125 50.8125 C-18.04984375 50.874375 -18.7871875 50.93625 -19.546875 51 C-27.68281654 51.40427039 -33.88043408 49.07895863 -40.625 44.625 C-47.83851487 37.07597281 -49.63493009 29.53177043 -49.51953125 19.32421875 C-49.08224994 11.90693767 -46.43680496 7.06946154 -41.4140625 1.640625 C-29.20734876 -8.97785461 -13.066016 -8.62850114 0 0 Z M-37.3125 6.5 C-40.44077573 16.86241335 -37.83562537 28.38708525 -32.9375 37.8125 C-30.22629546 42.32028586 -27.37034395 45.12655202 -22.3125 46.8125 C-16.84999632 47.23269259 -13.09860861 46.52161808 -8.3125 43.8125 C-2.3628992 36.29721478 -2.45680276 27.99179768 -3.3125 18.8125 C-4.81260249 12.26801142 -7.40592002 4.59419423 -13.0625 0.56640625 C-22.93958976 -5.00874793 -30.64645711 -2.45749513 -37.3125 6.5 Z " fill="#F5F5F5" transform="translate(493.3125,155.1875)"/>
<path d="M0 0 C3.41185402 3.57054491 5.51569679 7.40832537 7.6875 11.8125 C8.1825 12.8025 8.1825 12.8025 8.6875 13.8125 C9.50383183 24.63893365 8.69248056 32.74763948 2.0625 41.5625 C-2.83734328 46.9100447 -10.08747825 50.36093614 -17.3125 50.8125 C-18.04984375 50.874375 -18.7871875 50.93625 -19.546875 51 C-27.38212961 51.38932942 -33.56739716 49.22601072 -40.125 45 C-46.71534913 38.40965087 -49.58195401 32.01261576 -49.75 22.5625 C-49.62551794 14.63454886 -48.02112032 8.9621941 -42.703125 3.01171875 C-30.26574591 -8.48429908 -13.97218791 -9.22691654 0 0 Z M-36.8125 5.875 C-40.78412483 14.08420667 -38.30783671 23.64932289 -35.5078125 31.82421875 C-33.0478175 37.97420626 -30.43911942 43.19079102 -24.265625 46.18359375 C-19.81377588 47.61708917 -15.60332056 47.85177188 -11.2890625 45.89453125 C-7.12643897 43.18092224 -5.16598642 40.49785276 -3.3125 35.8125 C-2.87579658 32.88431108 -2.83656698 30.0193628 -2.875 27.0625 C-2.88112305 26.26553711 -2.88724609 25.46857422 -2.89355469 24.64746094 C-3.05971123 18.37185624 -4.18100341 13.31436554 -7.3125 7.8125 C-7.89 6.69875 -8.4675 5.585 -9.0625 4.4375 C-12.87853155 -0.01453681 -17.07563895 -1.82800447 -22.8125 -2.75 C-29.00060619 -1.75548293 -32.88503613 1.06385676 -36.8125 5.875 Z " fill="#F5F5F5" transform="translate(429.3125,155.1875)"/>
<path d="M0 0 C2.97 0 5.94 0 9 0 C12.73230462 8.1137057 15.9274537 16.41623759 19.125 24.75 C19.93301685 26.84949147 20.74167846 28.94873355 21.55050659 31.0479126 C22.27968084 32.94136638 23.00731753 34.83541207 23.73486328 36.72949219 C24.80440884 39.49437685 25.89173301 42.25045785 27 45 C27.235979 44.31188232 27.47195801 43.62376465 27.71508789 42.91479492 C32.64839695 28.54759317 37.66987679 14.22508768 43 0 C46.3 0 49.6 0 53 0 C52.63648438 1.02996094 52.27296875 2.05992187 51.8984375 3.12109375 C51.53866821 4.1407019 51.53866821 4.1407019 51.17163086 5.1809082 C50.63382344 6.70433879 50.0955638 8.22760981 49.55688477 9.75073242 C48.17464168 13.66100955 46.79877715 17.57320077 45.44140625 21.4921875 C42.9661048 28.61788549 40.39593754 35.63869163 37.41015625 42.5703125 C36.25334327 45.38383549 35.17199599 48.20096692 34.12109375 51.0546875 C24.73177016 76.53709525 24.73177016 76.53709525 16 81 C12.89936477 82.03354508 10.68555932 82.13364996 7.4375 82.125 C6.46683594 82.12757813 5.49617187 82.13015625 4.49609375 82.1328125 C2 82 2 82 0 81 C0 78.69 0 76.38 0 74 C0.80824219 73.97421875 1.61648438 73.9484375 2.44921875 73.921875 C8.9284175 73.60960553 8.9284175 73.60960553 15 71.5625 C18.60694783 66.94109809 21.22810105 61.86267948 20.75366211 55.90844727 C19.85473852 51.24668251 18.30943191 47.12666755 16.54296875 42.734375 C16.19873367 41.8603302 15.8544986 40.9862854 15.49983215 40.08575439 C14.40282175 37.3042991 13.29557408 34.52706391 12.1875 31.75 C10.74097137 28.09995273 9.29832506 24.44837515 7.85546875 20.796875 C7.51200409 19.93002075 7.16853943 19.0631665 6.81466675 18.17004395 C4.43416094 12.1483247 2.16149246 6.10437241 0 0 Z " fill="#F5F6F5" transform="translate(809,150)"/>
<path d="M0 0 C0.33 0 0.66 0 1 0 C1.33 8.58 1.66 17.16 2 26 C2.66 25.67 3.32 25.34 4 25 C3.67 24.01 3.34 23.02 3 22 C4.875 21.375 4.875 21.375 7 21 C7.66 21.66 8.32 22.32 9 23 C9.66 23 10.32 23 11 23 C11 21.68 11 20.36 11 19 C11.99 19.33 12.98 19.66 14 20 C14 21.32 14 22.64 14 24 C14.33 23.34 14.66 22.68 15 22 C19.44444444 20 19.44444444 20 21 20 C21 19.34 21 18.68 21 18 C25.875 19.75 25.875 19.75 27 22 C26.34 22.66 25.68 23.32 25 24 C25 24.66 25 25.32 25 26 C24.34 26.66 23.68 27.32 23 28 C22.67 27.67 22.34 27.34 22 27 C21.34 27.66 20.68 28.32 20 29 C19.34 28.01 18.68 27.02 18 26 C18.33 27.32 18.66 28.64 19 30 C19.99 30 20.98 30 22 30 C22.99 30.33 23.98 30.66 25 31 C25.99 28.36 26.98 25.72 28 23 C28.99 23.99 29.98 24.98 31 26 C31 24.68 31 23.36 31 22 C32.32 21.67 33.64 21.34 35 21 C35 21.66 35 22.32 35 23 C35.45375 22.505 35.9075 22.01 36.375 21.5 C38 20 38 20 40 20 C40.33 20.33 40.66 20.66 41 21 C41.66 20.01 42.32 19.02 43 18 C44.32 19.32 45.64 20.64 47 22 C46.01 22 45.02 22 44 22 C44.495 23.485 44.495 23.485 45 25 C46.32 24.34 47.64 23.68 49 23 C49.33 23.33 49.66 23.66 50 24 C50.66 23.34 51.32 22.68 52 22 C52.763125 22.37125 53.52625 22.7425 54.3125 23.125 C55.199375 23.41375 56.08625 23.7025 57 24 C57.99 23.34 58.98 22.68 60 22 C60.66 22.66 61.32 23.32 62 24 C64.02077346 24.05901922 64.02077346 24.05901922 66 23 C66.474375 22.154375 66.94875 21.30875 67.4375 20.4375 C67.953125 19.633125 68.46875 18.82875 69 18 C71.6875 17.6875 71.6875 17.6875 74 18 C74.99 19.98 74.99 19.98 76 22 C78.33075929 21.04134491 78.33075929 21.04134491 80 18 C82 20 82 20 82.5 22.5625 C82.665 23.366875 82.83 24.17125 83 25 C83.66 25.33 84.32 25.66 85 26 C85.33 24.68 85.66 23.36 86 22 C87.32 22.66 88.64 23.32 90 24 C90 24.66 90 25.32 90 26 C90.598125 26.268125 91.19625 26.53625 91.8125 26.8125 C93.99847854 27.99917406 95.41332594 29.09599113 97 31 C97 31.66 97 32.32 97 33 C96.34 33 95.68 33 95 33 C95 33.66 95 34.32 95 35 C93.02 35.66 91.04 36.32 89 37 C88.690625 36.360625 88.38125 35.72125 88.0625 35.0625 C87.1654837 33.06389179 87.1654837 33.06389179 86 32 C85.34 33.32 84.68 34.64 84 36 C83.01 36 82.02 36 81 36 C80.67 36.33 80.34 36.66 80 37 C78.67479497 37.68268138 77.34187818 38.3507041 76 39 C75.01 36.03 75.01 36.03 74 33 C74.66 33 75.32 33 76 33 C75.67 32.67 75.34 32.34 75 32 C74.34 32 73.68 32 73 32 C73.495 34.475 73.495 34.475 74 37 C73.34 37 72.68 37 72 37 C71.505 37.99 71.505 37.99 71 39 C70.67 38.01 70.34 37.02 70 36 C69.01 36.99 69.01 36.99 68 38 C64.83884224 36.63016497 64.0072908 36.0109362 62 33 C61.01 32.67 60.02 32.34 59 32 C59 32.66 59 33.32 59 34 C59.99 34 60.98 34 62 34 C62.33 34.99 62.66 35.98 63 37 C62.34 37 61.68 37 61 37 C60.505 37.99 60.505 37.99 60 39 C59.34 38.01 58.68 37.02 58 36 C57.01 36 56.02 36 55 36 C54.67 36.33 54.34 36.66 54 37 C52.00334402 38.67067133 50.00348966 40.33752986 48 42 C46.04783565 40.04783565 45.15173355 38.46800047 44 36 C42.68 36.66 41.36 37.32 40 38 C39.34 36.68 38.68 35.36 38 34 C37.67 34.99 37.34 35.98 37 37 C36.01 37 35.02 37 34 37 C32.30280873 37.94726954 30.63064764 38.94228261 29 40 C29 38.02 29 36.04 29 34 C28.608125 34.474375 28.21625 34.94875 27.8125 35.4375 C25.54152558 37.39523657 23.94533028 37.57923853 21 38 C20.071875 38.185625 19.14375 38.37125 18.1875 38.5625 C17.465625 38.706875 16.74375 38.85125 16 39 C15.34 38.01 14.68 37.02 14 36 C13.67 36.66 13.34 37.32 13 38 C12.34 37.01 11.68 36.02 11 35 C10.34 36.32 9.68 37.64 9 39 C8.34 39 7.68 39 7 39 C6.67 39.66 6.34 40.32 6 41 C5.34 40.01 4.68 39.02 4 38 C3.34 37.34 2.68 36.68 2 36 C2 34.68 2 33.36 2 32 C1.34 32 0.68 32 0 32 C0 21.44 0 10.88 0 0 Z M45 34 C46 36 46 36 46 36 Z " fill="#5CA6BA" transform="translate(89,138)"/>
<path d="M0 0 C4.62608803 3.04901256 7.44697689 6.90714488 9.2734375 12.17578125 C10.59781234 19.50326502 10.11885906 28.73063856 7.0625 35.5625 C4.44446939 39.24189437 2.90250155 41.00049932 -1.25 42.8125 C-6.22633741 43.44917846 -10.61613383 43.52731645 -15.25 41.5 C-15.91 40.943125 -16.57 40.38625 -17.25 39.8125 C-17.806875 39.35875 -18.36375 38.905 -18.9375 38.4375 C-23.12927345 33.24768525 -22.58322934 27.18086448 -22.5625 20.875 C-22.57861328 19.89853516 -22.59472656 18.92207031 -22.61132812 17.91601562 C-22.61502265 12.4665896 -22.36991341 8.48864707 -19.25 3.8125 C-13.48694118 -1.51832941 -7.3462207 -2.68419603 0 0 Z " fill="#030303" transform="translate(710.25,157.1875)"/>
<path d="M0 0 C0.80566406 0.00322266 1.61132812 0.00644531 2.44140625 0.00976562 C3.70404297 0.02233398 3.70404297 0.02233398 4.9921875 0.03515625 C5.84167969 0.03966797 6.69117188 0.04417969 7.56640625 0.04882812 C9.66669659 0.06062751 11.7669508 0.07856319 13.8671875 0.09765625 C13.37921188 0.44174026 12.89123627 0.78582428 12.38847351 1.14033508 C10.14036202 4.03280644 10.47249705 6.90343018 10.52661133 10.41479492 C10.52617325 11.15650436 10.52573517 11.89821381 10.52528381 12.66239929 C10.52737367 15.11374241 10.55071331 17.56440138 10.57421875 20.015625 C10.57981402 21.71527228 10.58408444 23.4149244 10.58708191 25.11457825 C10.59853616 29.58797566 10.62800823 34.06108084 10.66119385 38.53436279 C10.69188229 43.09904019 10.70558462 47.6637648 10.72070312 52.22851562 C10.75287745 61.18502422 10.80408075 70.14131594 10.8671875 79.09765625 C15.3221875 80.08765625 15.3221875 80.08765625 19.8671875 81.09765625 C16.79999825 83.78920795 14.94553243 84.46494305 10.8828125 84.390625 C9.94824219 84.38095703 9.01367188 84.37128906 8.05078125 84.36132812 C7.08269531 84.33619141 6.11460937 84.31105469 5.1171875 84.28515625 C4.13363281 84.27162109 3.15007813 84.25808594 2.13671875 84.24414062 C-0.28701665 84.20884351 -2.70963395 84.15953679 -5.1328125 84.09765625 C-4.80938873 83.5909137 -4.48596497 83.08417114 -4.15274048 82.56207275 C-2.79033573 79.27014153 -2.82484203 76.17294586 -2.81396484 72.66699219 C-2.80391922 71.92513672 -2.7938736 71.18328125 -2.78352356 70.41894531 C-2.75269801 67.97331498 -2.73565835 65.52779409 -2.71875 63.08203125 C-2.70003783 61.38379983 -2.68046438 59.68557771 -2.6600647 57.98736572 C-2.60874263 53.5223946 -2.56911733 49.05739333 -2.53192139 44.59228516 C-2.49188221 40.03410383 -2.44078947 35.4760479 -2.390625 30.91796875 C-2.29386483 21.97795268 -2.20946032 13.03786579 -2.1328125 4.09765625 C-4.7728125 4.09765625 -7.4128125 4.09765625 -10.1328125 4.09765625 C-6.55461413 1.35437083 -4.53599669 -0.03194364 0 0 Z " fill="#F4F4F4" transform="translate(570.1328125,119.90234375)"/>
<path d="M0 0 C4.99256349 3.72807143 7.68454319 7.20802165 8.7890625 13.3359375 C8.00668213 13.63363037 7.22430176 13.93132324 6.41821289 14.23803711 C3.52318428 15.34103849 0.62908321 16.44642964 -2.2644043 17.5534668 C-4.13584576 18.26862565 -6.00834967 18.9810022 -7.88085938 19.69335938 C-9.05068359 20.14130859 -10.22050781 20.58925781 -11.42578125 21.05078125 C-12.50980225 21.46448975 -13.59382324 21.87819824 -14.71069336 22.30444336 C-17.11007779 23.10708117 -17.11007779 23.10708117 -18.2109375 24.3359375 C-19.73021788 24.40773714 -21.25261232 24.41985757 -22.7734375 24.3984375 C-23.59972656 24.38941406 -24.42601562 24.38039062 -25.27734375 24.37109375 C-26.23447266 24.35369141 -26.23447266 24.35369141 -27.2109375 24.3359375 C-25.84328304 21.60062858 -24.38352029 21.36017343 -21.58984375 20.171875 C-20.65462891 19.77226562 -19.71941406 19.37265625 -18.75585938 18.9609375 C-17.77166016 18.5484375 -16.78746094 18.1359375 -15.7734375 17.7109375 C-14.79310547 17.29070312 -13.81277344 16.87046875 -12.80273438 16.4375 C-5.48687348 13.3359375 -5.48687348 13.3359375 -3.2109375 13.3359375 C-5.3419697 7.22421216 -5.3419697 7.22421216 -10.2109375 3.3359375 C-15.06515669 2.16152963 -17.01467849 1.74909346 -21.5234375 3.9609375 C-25.26384731 7.26641594 -27.00836495 9.73908181 -27.64453125 14.75390625 C-27.65429345 24.17443389 -26.69917434 31.97021914 -20.8984375 39.7109375 C-15.35173709 45.12864488 -10.72164013 46.96614204 -3.078125 47.453125 C1.48674581 47.2665499 5.54788861 45.96432748 9.7890625 44.3359375 C5.98084194 49.74115378 2.26042878 52.67160623 -4.2109375 54.3359375 C-13.22236048 55.46236537 -20.77157833 54.77904644 -28.2109375 49.3359375 C-35.2355189 43.47535225 -38.17418801 35.85570231 -39.58984375 26.953125 C-39.97735928 19.9778455 -37.80990039 12.81623186 -33.6328125 7.22265625 C-24.95405829 -1.90567306 -11.661007 -6.76626332 0 0 Z " fill="#F3F3F3" transform="translate(628.2109375,151.6640625)"/>
<path d="M0 0 C3.64025671 2.79285269 6.8467681 5.68248167 9.3203125 9.578125 C9.72542055 13.83175949 9.77341217 16.44537583 8.1953125 20.390625 C4.47466723 24.73137781 -0.62242334 26.28443506 -6.16015625 26.81640625 C-14.11651009 27.03454582 -20.10236176 25.70828502 -26.1796875 20.390625 C-28.25708028 16.49551353 -28.8641024 12.98002849 -28.6796875 8.578125 C-26.86513251 3.4746891 -23.33222906 1.86358401 -18.6796875 -0.421875 C-12.67941107 -2.27970117 -5.65317059 -2.99964154 0 0 Z " fill="#040404" transform="translate(541.6796875,209.421875)"/>
<path d="M0 0 C5.41257219 2.65322166 7.46617542 5.74466012 10 11 C11.6350546 16.15587216 11.54675342 21.66368657 11 27 C9.19196596 30.07365786 8.13960536 31.43019732 5 33 C0.63819334 33.52273125 -2.89285622 33.59047668 -6.8125 31.5 C-12.61144055 24.87263937 -14.46673444 17.71237619 -14 9 C-12.13718201 1.71807514 -7.29986251 -1.02454211 0 0 Z " fill="#020202" transform="translate(533,155)"/>
<path d="M0 0 C2.64 0 5.28 0 8 0 C8 26.73 8 53.46 8 81 C5.36 81 2.72 81 0 81 C0 54.27 0 27.54 0 0 Z " fill="#FDFDFD" transform="translate(740,126)"/>
<path d="M0 0 C3.90436141 0.59066766 6.75090753 1.77034539 10.16796875 3.73046875 C11.63266602 4.56481445 11.63266602 4.56481445 13.12695312 5.41601562 C14.13693359 6.00060547 15.14691406 6.58519531 16.1875 7.1875 C17.17814453 7.75275391 18.16878906 8.31800781 19.18945312 8.90039062 C21.16528911 10.03147575 23.13656044 11.17057456 25.10302734 12.31787109 C27.03472548 13.43951278 28.97796685 14.54150538 30.93212891 15.62353516 C32.29023682 16.39189697 32.29023682 16.39189697 33.67578125 17.17578125 C34.48571533 17.62477783 35.29564941 18.07377441 36.13012695 18.53637695 C38.32667099 20.25569821 38.65733249 21.28014494 39 24 C38.01 23.67 37.02 23.34 36 23 C36 22.34 36 21.68 36 21 C34.68 21.33 33.36 21.66 32 22 C36.18965788 26.17848497 36.18965788 26.17848497 41.875 27.3125 C42.90625 27.209375 43.9375 27.10625 45 27 C49.06153846 33.27692308 49.06153846 33.27692308 48.75 36.9375 C48.5025 37.618125 48.255 38.29875 48 39 C48.94875 38.979375 49.8975 38.95875 50.875 38.9375 C54 39 54 39 56 40 C56.484375 42.21484375 56.484375 42.21484375 56.75 44.9375 C56.89695312 46.28134766 56.89695312 46.28134766 57.046875 47.65234375 C57 50 57 50 55 52 C54.236875 51.34 53.47375 50.68 52.6875 50 C50.15722061 47.70149462 50.15722061 47.70149462 47 48 C47 47.34 47 46.68 47 46 C46.34 46 45.68 46 45 46 C45 45.34 45 44.68 45 44 C44.34 44 43.68 44 43 44 C43 43.34 43 42.68 43 42 C42.42320496 41.74819473 41.84640991 41.49638947 41.25213623 41.23695374 C38.71126165 39.84141457 37.01279644 38.25998127 34.96582031 36.20874023 C34.18531311 35.43130966 33.40480591 34.65387909 32.60064697 33.85289001 C31.76821472 33.01327225 30.93578247 32.17365448 30.078125 31.30859375 C28.78814606 30.01792747 28.78814606 30.01792747 27.47210693 28.70118713 C25.65758061 26.88364161 23.84548347 25.06366816 22.03564453 23.24145508 C19.25216706 20.43968131 16.46073067 17.64603183 13.66796875 14.85351562 C11.90838058 13.0890138 10.14924998 11.32405555 8.390625 9.55859375 C7.55009583 8.71695175 6.70956665 7.87530975 5.84356689 7.00816345 C5.07566833 6.23388504 4.30776978 5.45960663 3.51660156 4.66186523 C2.83583557 3.97728745 2.15506958 3.29270966 1.45367432 2.58738708 C0 1 0 1 0 0 Z " fill="#91C1B1" transform="translate(92,75)"/>
<path d="M0 0 C0 0.66 0 1.32 0 2 C0.33 1.67 0.66 1.34 1 1 C4 0 4 0 6.34423828 1.00048828 C9.28163828 2.69200556 12.21093494 4.39350748 15.125 6.125 C16.66607422 6.99898438 16.66607422 6.99898438 18.23828125 7.890625 C19.21410156 8.46554688 20.18992188 9.04046875 21.1953125 9.6328125 C22.09266113 10.15762207 22.99000977 10.68243164 23.91455078 11.22314453 C26.44917849 13.38271144 26.71593137 14.74328162 27 18 C27.99 18 28.98 18 30 18 C30 18.99 30 19.98 30 21 C32.4390706 23.20142332 32.4390706 23.20142332 35 25 C34.67 25.66 34.34 26.32 34 27 C34.66 27.33 35.32 27.66 36 28 C32.25 31 32.25 31 30 31 C29.67 32.65 29.34 34.3 29 36 C29.639375 36.226875 30.27875 36.45375 30.9375 36.6875 C33 38 33 38 33.75 40.625 C33.8325 41.40875 33.915 42.1925 34 43 C32.68 43.99 31.36 44.98 30 46 C27.82722286 43.88094537 25.66173092 41.75527122 23.5 39.625 C22.87996094 39.02171875 22.25992188 38.4184375 21.62109375 37.796875 C21.03457031 37.21679688 20.44804687 36.63671875 19.84375 36.0390625 C19.29912109 35.50490723 18.75449219 34.97075195 18.19335938 34.42041016 C17 33 17 33 17 31 C16.34 31 15.68 31 15 31 C15 30.34 15 29.68 15 29 C14.34 29 13.68 29 13 29 C13.66 27.68 14.32 26.36 15 25 C16.32 25 17.64 25 19 25 C19.33 25.99 19.66 26.98 20 28 C20 26.35 20 24.7 20 23 C18.02 23 16.04 23 14 23 C14 21.35 14 19.7 14 18 C13.01 18.33 12.02 18.66 11 19 C11.226875 18.113125 11.45375 17.22625 11.6875 16.3125 C12.21925404 13.0254418 12.21925404 13.0254418 11.0625 10.125 C10.381875 9.42375 9.70125 8.7225 9 8 C7.00199142 8 5.0009285 8.00869874 3.0078125 8.1484375 C1 8 1 8 -2 5.625 C-4 3 -4 3 -4 1 C-2 0 -2 0 0 0 Z M29 38 C29.33 38.99 29.66 39.98 30 41 C30.66 40.67 31.32 40.34 32 40 C31.67 39.34 31.34 38.68 31 38 C30.34 38 29.68 38 29 38 Z " fill="#B3CEA5" transform="translate(128,96)"/>
<path d="M0 0 C3.62245232 2.1580567 5.39024012 4.16188256 7 8 C7.73651586 12.71027588 7.42246633 16.17015542 5.25 20.4375 C1.80511628 24.36083979 0.30781468 24.89620518 -4.9375 25.3125 C-8.72776772 25.19273318 -11.05155934 24.52723485 -14 22 C-17.07613254 17.69341444 -17.41547451 14.26360571 -16.65234375 9.1875 C-15.57124277 5.56225119 -13.69409757 3.62838787 -11 1 C-7.53749757 -0.73125121 -3.78591771 -0.47815224 0 0 Z " fill="#F0F1F0" transform="translate(407,75)"/>
<path d="M0 0 C4.16636339 1.75913121 6.24086879 3.83363661 8 8 C8.53256641 13.59194732 8.22883266 17.21242054 5 22 C1.49348387 25.00558526 -1.59790058 25.47470979 -6.0703125 25.2890625 C-8.95761881 24.85655103 -10.76072509 23.84410875 -13 22 C-15.89721169 17.3521763 -15.77296801 12.29597881 -15 7 C-11.62198817 0.52024496 -6.93550554 -0.73356309 0 0 Z " fill="#F3F3F3" transform="translate(558,75)"/>
<path d="M0 0 C0.3221077 6.03653699 0.56806924 10.83245145 -3 16 C-8.17519028 20.78705101 -12.46544631 21.42678217 -19.32421875 21.3359375 C-22 21 -22 21 -25.1875 19 C-27.52083156 15.13793397 -27.92780591 12.39815686 -27 8 C-25.09750325 4.27772376 -22.90614106 2.7084059 -19.125 1.1875 C-12.88692371 -0.67242894 -6.440475 -0.24735821 0 0 Z " fill="#020202" transform="translate(795,179)"/>
<path d="M0 0 C13.53846154 0 13.53846154 0 18.875 4.625 C20.65663033 8.38621958 20.6372712 11.92146434 20 16 C17.80727567 20.38544865 15.61341775 23.23315916 11 25 C7.37 25 3.74 25 0 25 C0 16.75 0 8.5 0 0 Z " fill="#EFF1F0" transform="translate(431,75)"/>
<path d="M0 0 C12.86206897 0 12.86206897 0 17 3 C19.42166168 5.90599402 19.96330364 7.66361668 20.375 11.4375 C19.81733074 16.73535794 18.36202594 19.70607536 14.5 23.375 C11 25 11 25 0 25 C0 16.75 0 8.5 0 0 Z " fill="#EDEEED" transform="translate(343,75)"/>
<path d="M0 0 C2.0625 -0.061875 4.125 -0.12375 6.25 -0.1875 C7.99023438 -0.23970703 7.99023438 -0.23970703 9.765625 -0.29296875 C13.25565911 0.02315753 14.61763301 0.46692367 17 3 C17.75336323 9.02690583 17.75336323 9.02690583 15.5 11.9375 C15.005 12.288125 14.51 12.63875 14 13 C14.639375 13.886875 15.27875 14.77375 15.9375 15.6875 C17.80829757 18.69211428 18.59423966 20.5510371 19 24 C17.35 24 15.7 24 14 24 C11 18.25 11 18.25 11 16 C8.03 15.505 8.03 15.505 5 15 C5 17.97 5 20.94 5 24 C3.35 24 1.7 24 0 24 C0 16.08 0 8.16 0 0 Z " fill="#F1F2F1" transform="translate(368,75)"/>
<path d="M0 0 C6 0 6 0 7.50732422 1.37695312 C7.8529541 2.00537109 8.19858398 2.63378906 8.5546875 3.28125 C8.94140625 3.95800781 9.328125 4.63476562 9.7265625 5.33203125 C10.10554687 6.04746094 10.48453125 6.76289062 10.875 7.5 C11.2771875 8.21542969 11.679375 8.93085937 12.09375 9.66796875 C13.08278598 11.43410442 14.04412455 13.21569916 15 15 C15 10.05 15 5.1 15 0 C16.65 0 18.3 0 20 0 C20 8.25 20 16.5 20 25 C18.35 25 16.7 25 15 25 C13.12571214 22.6638447 11.67361142 20.56174947 10.1875 18 C9.78080078 17.33226563 9.37410156 16.66453125 8.95507812 15.9765625 C7.95383043 14.32744865 6.97474159 12.6649181 6 11 C5.67 15.62 5.34 20.24 5 25 C3.35 25 1.7 25 0 25 C0 16.75 0 8.5 0 0 Z " fill="#E3E5E4" transform="translate(571,75)"/>
<path d="M0 0 C6 0 6 0 7.50732422 1.37695312 C7.8529541 2.00537109 8.19858398 2.63378906 8.5546875 3.28125 C8.94140625 3.95800781 9.328125 4.63476562 9.7265625 5.33203125 C10.10554688 6.04746094 10.48453125 6.76289062 10.875 7.5 C11.2771875 8.21542969 11.679375 8.93085937 12.09375 9.66796875 C13.08278598 11.43410442 14.04412455 13.21569916 15 15 C15.33 10.05 15.66 5.1 16 0 C17.32 0 18.64 0 20 0 C20 8.25 20 16.5 20 25 C14.73064773 23.94612955 14.17512082 23.50007742 11.36132812 19.29101562 C10.7802832 18.37352539 10.7802832 18.37352539 10.1875 17.4375 C9.57745117 16.51420898 9.57745117 16.51420898 8.95507812 15.57226562 C7.9566127 14.05694751 6.97646735 12.52958612 6 11 C5.67 15.62 5.34 20.24 5 25 C3.35 25 1.7 25 0 25 C0 16.75 0 8.5 0 0 Z " fill="#E7E7E7" transform="translate(316,75)"/>
<path d="M0 0 C2.64 0 5.28 0 8 0 C9.17958694 3.22459272 10.34134131 6.45533436 11.5 9.6875 C11.83386719 10.59951172 12.16773438 11.51152344 12.51171875 12.45117188 C12.82753906 13.33740234 13.14335937 14.22363281 13.46875 15.13671875 C13.90864258 16.35427856 13.90864258 16.35427856 14.35742188 17.59643555 C15.04326336 20.16182665 15.11519796 22.35661819 15 25 C13.02 25 11.04 25 9 25 C8.67 22.69 8.34 20.38 8 18 C5.03 18 2.06 18 -1 18 C-1.33 20.31 -1.66 22.62 -2 25 C-3.98 25 -5.96 25 -8 25 C-7.38074535 21.5847973 -6.53132639 18.40646528 -5.37109375 15.13671875 C-5.05849609 14.25048828 -4.74589844 13.36425781 -4.42382812 12.45117188 C-3.9355957 11.0831543 -3.9355957 11.0831543 -3.4375 9.6875 C-3.10814453 8.75615234 -2.77878906 7.82480469 -2.43945312 6.86523438 C-1.62932179 4.57573277 -0.81608317 2.28738542 0 0 Z " fill="#E9EBEA" transform="translate(471,75)"/>
<path d="M0 0 C1.134375 0.020625 2.26875 0.04125 3.4375 0.0625 C4.77584986 3.85241493 6.10732663 7.64470836 7.4375 11.4375 C7.8190625 12.51773438 8.200625 13.59796875 8.59375 14.7109375 C8.9546875 15.7421875 9.315625 16.7734375 9.6875 17.8359375 C10.02265625 18.78903809 10.3578125 19.74213867 10.703125 20.72412109 C11.4375 23.0625 11.4375 23.0625 11.4375 25.0625 C9.1275 25.0625 6.8175 25.0625 4.4375 25.0625 C4.1075 22.7525 3.7775 20.4425 3.4375 18.0625 C0.4675 18.0625 -2.5025 18.0625 -5.5625 18.0625 C-5.8925 20.3725 -6.2225 22.6825 -6.5625 25.0625 C-8.5425 25.0625 -10.5225 25.0625 -12.5625 25.0625 C-11.24431225 19.40129753 -9.57796149 14.04994568 -7.5 8.625 C-7.23123047 7.90634766 -6.96246094 7.18769531 -6.68554688 6.44726562 C-4.27261458 0.07495815 -4.27261458 0.07495815 0 0 Z " fill="#E9EBEA" transform="translate(301.5625,74.9375)"/>
<path d="M0 0 C12.2219005 -0.49381416 12.2219005 -0.49381416 15.88671875 1.83203125 C18 4 18 4 18.625 6.9375 C17.77889009 11.08343857 16.37486243 12.48680457 13 15 C9.1875 15.8125 9.1875 15.8125 6 16 C6 18.97 6 21.94 6 25 C4.02 25 2.04 25 0 25 C0 16.75 0 8.5 0 0 Z " fill="#E0E1E0" transform="translate(512,75)"/>
<path d="M0 0 C0.33 0 0.66 0 1 0 C1.01458252 0.62044189 1.02916504 1.24088379 1.04418945 1.88012695 C1.11866588 4.69154633 1.21532564 7.50177749 1.3125 10.3125 C1.33505859 11.28896484 1.35761719 12.26542969 1.38085938 13.27148438 C1.41630859 14.20927734 1.45175781 15.14707031 1.48828125 16.11328125 C1.51446533 16.97735596 1.54064941 17.84143066 1.56762695 18.73168945 C2.07665372 21.40213987 2.92329908 22.31011183 5 24 C5.763125 23.62875 6.52625 23.2575 7.3125 22.875 C8.199375 22.58625 9.08625 22.2975 10 22 C10.99 22.66 11.98 23.32 13 24 C13.33 23.34 13.66 22.68 14 22 C14.99146059 21.07176298 16.01815277 20.18080692 17.0625 19.3125 C19.11005429 17.60199168 21.12875334 15.88273395 23.1015625 14.0859375 C23.78992188 13.45945313 24.47828125 12.83296875 25.1875 12.1875 C25.82042969 11.60355469 26.45335938 11.01960937 27.10546875 10.41796875 C29.09840388 8.92634926 30.56731861 8.41533585 33 8 C33 11 33 11 31.86108398 12.49967957 C31.32813721 13.02596451 30.79519043 13.55224945 30.24609375 14.09448242 C29.64547119 14.69487839 29.04484863 15.29527435 28.42602539 15.91386414 C27.76981201 16.55459366 27.11359863 17.19532318 26.4375 17.85546875 C25.77161865 18.51710526 25.1057373 19.17874176 24.41967773 19.86042786 C22.28670621 21.9765774 20.1435509 24.08207266 18 26.1875 C16.55400575 27.61845203 15.10868429 29.05008428 13.6640625 30.48242188 C10.1171401 33.99622824 6.56104822 37.50051246 3 41 C2.01 40.67 1.02 40.34 0 40 C0 26.8 0 13.6 0 0 Z " fill="#85B8B9" transform="translate(89,223)"/>
<path d="M0 0 C12.18458341 -0.4923064 12.18458341 -0.4923064 15.91796875 1.76171875 C18 4 18 4 18.4453125 6.03515625 C17.58780001 11.46258285 17.58780001 11.46258285 14.8125 14 C11.69362618 15.10893291 9.28637136 15.22928172 6 15 C6 18.3 6 21.6 6 25 C4.02 25 2.04 25 0 25 C0 16.75 0 8.5 0 0 Z " fill="#E3E4E3" transform="translate(490,75)"/>
<path d="M0 0 C4.05285525 0.59459018 6.97929718 1.90428832 10.51953125 3.94140625 C11.54111328 4.52470703 12.56269531 5.10800781 13.61523438 5.70898438 C14.67033203 6.32064453 15.72542969 6.93230469 16.8125 7.5625 C17.88693359 8.17802734 18.96136719 8.79355469 20.06835938 9.42773438 C22.71587518 10.94564344 25.35951856 12.46989764 28 14 C28 14.66 28 15.32 28 16 C27.34 16 26.68 16 26 16 C26.66 17.32 27.32 18.64 28 20 C26.35 21.32 24.7 22.64 23 24 C19.72128157 20.74592504 16.44580355 17.48863647 13.17333984 14.22827148 C12.05867476 13.11864792 10.94311557 12.0099218 9.82666016 10.90209961 C8.22585196 9.31336495 6.62824388 7.72147383 5.03125 6.12890625 C4.52815308 5.63097061 4.02505615 5.13303497 3.50671387 4.62001038 C2.31867898 3.43217036 1.15643985 2.21862122 0 1 C0 0.67 0 0.34 0 0 Z " fill="#76B1B4" transform="translate(92,75)"/>
<path d="M0 0 C2.475 0.99 2.475 0.99 5 2 C4.67 2.99 4.34 3.98 4 5 C4.66 5.33 5.32 5.66 6 6 C4.68 6.99 3.36 7.98 2 9 C0.4375 7.875 0.4375 7.875 -1 6 C-0.6875 2.8125 -0.6875 2.8125 0 0 Z M-16 3 C-14.35 3 -12.7 3 -11 3 C-10.34 4.32 -9.68 5.64 -9 7 C-6.36 7 -3.72 7 -1 7 C-1 9.33333333 -1 11.66666667 -1 14 C-0.360625 14.226875 0.27875 14.45375 0.9375 14.6875 C3 16 3 16 3.75 18.625 C3.8325 19.40875 3.915 20.1925 4 21 C2.68 21.99 1.36 22.98 0 24 C-2.17277714 21.88094537 -4.33826908 19.75527122 -6.5 17.625 C-7.12003906 17.02171875 -7.74007812 16.4184375 -8.37890625 15.796875 C-8.96542969 15.21679688 -9.55195313 14.63671875 -10.15625 14.0390625 C-10.97319336 13.23782959 -10.97319336 13.23782959 -11.80664062 12.42041016 C-13 11 -13 11 -13 9 C-13.66 9 -14.32 9 -15 9 C-15 8.34 -15 7.68 -15 7 C-15.66 7 -16.32 7 -17 7 C-16.67 5.68 -16.34 4.36 -16 3 Z M-1 16 C-0.67 16.99 -0.34 17.98 0 19 C0.66 18.67 1.32 18.34 2 18 C1.67 17.34 1.34 16.68 1 16 C0.34 16 -0.32 16 -1 16 Z " fill="#B8CFA4" transform="translate(158,118)"/>
<path d="M0 0 C3.18781084 0.28336096 5.37394881 0.51531521 7.9375 2.5 C9.55922953 6.3158342 9.14944684 10.04968585 8 14 C6.18144622 16.26432741 5.44424085 16.90887367 2.5625 17.5 C0 17 0 17 -2.3125 14.9375 C-4.43193033 11.24812128 -4.59967873 9.19775114 -4 5 C-2 2.0625 -2 2.0625 0 0 Z " fill="#050505" transform="translate(552,79)"/>
<path d="M0 0 C2.9375 1.125 2.9375 1.125 4.875 3.8125 C6.07783149 7.56250407 6.1534715 9.39602074 4.9375 13.125 C3.1875 15.5625 3.1875 15.5625 0.9375 17.125 C-1.92571168 17.05516557 -3.43845845 16.61703276 -5.6875 14.84375 C-7.87282783 12.11209022 -7.53697759 9.67303317 -7.41015625 6.29296875 C-7.0625 4.125 -7.0625 4.125 -5.4375 1.5 C-3.0625 0.125 -3.0625 0.125 0 0 Z " fill="#060606" transform="translate(403.0625,78.875)"/>
<path d="M0 0 C4.875 1.75 4.875 1.75 6 4 C5.34 4.66 4.68 5.32 4 6 C4 6.66 4 7.32 4 8 C3.34 8.66 2.68 9.32 2 10 C1.67 9.67 1.34 9.34 1 9 C0.34 9.66 -0.32 10.32 -1 11 C-1.66 10.01 -2.32 9.02 -3 8 C-3.66 9.98 -4.32 11.96 -5 14 C-5.66 13.67 -6.32 13.34 -7 13 C-7.66 13.66 -8.32 14.32 -9 15 C-9.66 13.68 -10.32 12.36 -11 11 C-11.33 11.99 -11.66 12.98 -12 14 C-11.34 14 -10.68 14 -10 14 C-10.3125 15.9375 -10.3125 15.9375 -11 18 C-11.99 18.33 -12.98 18.66 -14 19 C-14 18.01 -14 17.02 -14 16 C-14.185625 15.21625 -14.37125 14.4325 -14.5625 13.625 C-15.03793985 10.77236091 -14.71486391 8.78002633 -14 6 C-12.68 5.67 -11.36 5.34 -10 5 C-10 3.68 -10 2.36 -10 1 C-9.01 1.33 -8.02 1.66 -7 2 C-7 3.32 -7 4.64 -7 6 C-6.67 5.34 -6.34 4.68 -6 4 C-1.55555556 2 -1.55555556 2 0 2 C0 1.34 0 0.68 0 0 Z " fill="#55A1BA" transform="translate(110,156)"/>
<path d="M0 0 C7 1 7 1 8.9375 3.1875 C10.16194329 6.42867343 10.43879875 8.5627431 10 12 C8.9375 14.3125 8.9375 14.3125 7 16 C4.69 16.33 2.38 16.66 0 17 C0 11.39 0 5.78 0 0 Z " fill="#080808" transform="translate(436,79)"/>
<path d="M0 0 C5 0 5 0 7.25 1.5625 C9.56757865 4.79055597 9.9305855 7.04337373 10 11 C9 13.875 9 13.875 7 16 C4.69 16.33 2.38 16.66 0 17 C0 11.39 0 5.78 0 0 Z " fill="#080808" transform="translate(348,79)"/>
<path d="M0 0 C0.33 0 0.66 0 1 0 C1.01458252 0.62044189 1.02916504 1.24088379 1.04418945 1.88012695 C1.11866588 4.69154633 1.21532564 7.50177749 1.3125 10.3125 C1.33505859 11.28896484 1.35761719 12.26542969 1.38085938 13.27148438 C1.41630859 14.20927734 1.45175781 15.14707031 1.48828125 16.11328125 C1.51446533 16.97735596 1.54064941 17.84143066 1.56762695 18.73168945 C2.07665372 21.40213987 2.92329908 22.31011183 5 24 C5.763125 23.62875 6.52625 23.2575 7.3125 22.875 C8.199375 22.58625 9.08625 22.2975 10 22 C10.99 22.66 11.98 23.32 13 24 C13.33 23.34 13.66 22.68 14 22 C15.09222965 20.944178 16.2224567 19.92713106 17.375 18.9375 C17.98085937 18.41027344 18.58671875 17.88304687 19.2109375 17.33984375 C21 16 21 16 24 15 C24 15.66 24 16.32 24 17 C23.34 17 22.68 17 22 17 C22 17.66 22 18.32 22 19 C21.34 19 20.68 19 20 19 C20 19.66 20 20.32 20 21 C19.34 21 18.68 21 18 21 C18 21.66 18 22.32 18 23 C17.34 23 16.68 23 16 23 C15.7525 23.61875 15.505 24.2375 15.25 24.875 C13.79371361 27.35068687 12.62187494 27.95125002 10 29 C9.67 28.67 9.34 28.34 9 28 C8.01 30.475 8.01 30.475 7 33 C5.68 32.34 4.36 31.68 3 31 C3.33 30.01 3.66 29.02 4 28 C3.34 27.34 2.68 26.68 2 26 C2 30.95 2 35.9 2 41 C1.34 40.67 0.68 40.34 0 40 C0 26.8 0 13.6 0 0 Z " fill="#AAC4BD" transform="translate(89,223)"/>
<path d="M0 0 C1.65 0 3.3 0 5 0 C5 8.25 5 16.5 5 25 C3.35 25 1.7 25 0 25 C0 16.75 0 8.5 0 0 Z " fill="#F0F1F0" transform="translate(419,75)"/>
<path d="M0 0 C1.65 0 3.3 0 5 0 C5.33 0.66 5.66 1.32 6 2 C7.423125 1.9690625 7.423125 1.9690625 8.875 1.9375 C12 2 12 2 14 3 C14.484375 5.21484375 14.484375 5.21484375 14.75 7.9375 C14.89695313 9.28134766 14.89695313 9.28134766 15.046875 10.65234375 C15 13 15 13 13 15 C12.236875 14.34 11.47375 13.68 10.6875 13 C8.15722061 10.70149462 8.15722061 10.70149462 5 11 C5 10.34 5 9.68 5 9 C4.34 9 3.68 9 3 9 C3 8.34 3 7.68 3 7 C2.34 7 1.68 7 1 7 C1 6.34 1 5.68 1 5 C0.34 5 -0.32 5 -1 5 C-0.67 3.35 -0.34 1.7 0 0 Z " fill="#A6CBAA" transform="translate(134,112)"/>
<path d="M0 0 C2 1 2 1 4 3 C4 4.32 4 5.64 4 7 C1.40251918 8.5333805 -1.20187896 10.05179668 -3.8125 11.5625 C-4.55048828 12.00013672 -5.28847656 12.43777344 -6.04882812 12.88867188 C-6.76103516 13.29794922 -7.47324219 13.70722656 -8.20703125 14.12890625 C-9.18893433 14.70233765 -9.18893433 14.70233765 -10.19067383 15.28735352 C-12 16 -12 16 -15 15 C-10.05 10.05 -5.1 5.1 0 0 Z " fill="#A15569" transform="translate(107,248)"/>
<path d="M0 0 C1.3921875 0.556875 1.3921875 0.556875 2.8125 1.125 C4.3903125 1.558125 4.3903125 1.558125 6 2 C6.99 1.34 7.98 0.68 9 0 C9.66 0.66 10.32 1.32 11 2 C12.32 2 13.64 2 15 2 C17.66436316 5.33045394 18.3619323 7.7774565 18 12 C17.34 12 16.68 12 16 12 C15.67 11.01 15.34 10.02 15 9 C15.33 8.34 15.66 7.68 16 7 C15.01 7 14.02 7 13 7 C12.67 7.66 12.34 8.32 12 9 C11.34 8.01 10.68 7.02 10 6 C9.319375 6.144375 8.63875 6.28875 7.9375 6.4375 C6.968125 6.623125 5.99875 6.80875 5 7 C3.80375 7.2475 2.6075 7.495 1.375 7.75 C-2 8 -2 8 -4 6.8125 C-5 5 -5 5 -4.6875 2.8125 C-4.460625 2.214375 -4.23375 1.61625 -4 1 C-3.01 1.33 -2.02 1.66 -1 2 C-0.67 1.34 -0.34 0.68 0 0 Z " fill="#66ADBB" transform="translate(140,160)"/>
<path d="M0 0 C0 0.66 0 1.32 0 2 C0.33 1.67 0.66 1.34 1 1 C4 0 4 0 6.26171875 0.99609375 C7.06222656 1.47175781 7.86273438 1.94742188 8.6875 2.4375 C9.49574219 2.91058594 10.30398437 3.38367188 11.13671875 3.87109375 C11.75160156 4.24363281 12.36648437 4.61617188 13 5 C12.01 5.495 12.01 5.495 11 6 C11.33 6.99 11.66 7.98 12 9 C11.37351563 8.9278125 10.74703125 8.855625 10.1015625 8.78125 C8.87566406 8.64203125 8.87566406 8.64203125 7.625 8.5 C6.81289062 8.4071875 6.00078125 8.314375 5.1640625 8.21875 C3.03087175 7.96647649 3.03087175 7.96647649 1 8 C-1.625 5.625 -1.625 5.625 -4 3 C-4 2.34 -4 1.68 -4 1 C-2 0 -2 0 0 0 Z " fill="#A2C7A8" transform="translate(128,96)"/>
<path d="M0 0 C4.875 1.75 4.875 1.75 6 4 C5.34 4.66 4.68 5.32 4 6 C4 6.66 4 7.32 4 8 C3.34 8.66 2.68 9.32 2 10 C1.67 9.67 1.34 9.34 1 9 C0.34 9.66 -0.32 10.32 -1 11 C-1.66 10.01 -2.32 9.02 -3 8 C-3.66 8.99 -4.32 9.98 -5 11 C-5.33 8.69 -5.66 6.38 -6 4 C-1.125 2 -1.125 2 0 2 C0 1.34 0 0.68 0 0 Z " fill="#5FA8BA" transform="translate(110,156)"/>
<path d="M0 0 C2.34765625 0.85546875 2.34765625 0.85546875 5.0625 2.1875 C5.96097656 2.61417969 6.85945313 3.04085937 7.78515625 3.48046875 C10 5 10 5 10.80859375 7.17578125 C10.87175781 7.77777344 10.93492187 8.37976563 11 9 C10.01 8.67 9.02 8.34 8 8 C8 7.34 8 6.68 8 6 C6.03243548 6.03122943 6.03243548 6.03122943 4 7 C2.6954344 9.99615946 2.6954344 9.99615946 2 13 C0.68 11.68 -0.64 10.36 -2 9 C-1.67 8.34 -1.34 7.68 -1 7 C-0.01 7 0.98 7 2 7 C1.67 5.68 1.34 4.36 1 3 C0.01 3 -0.98 3 -2 3 C-2 2.34 -2 1.68 -2 1 C-1.34 0.67 -0.68 0.34 0 0 Z " fill="#91B8AA" transform="translate(120,90)"/>
<path d="M0 0 C2.875 -0.125 2.875 -0.125 6 0 C6.66 0.66 7.32 1.32 8 2 C7.625 4.625 7.625 4.625 7 7 C4.69 7.33 2.38 7.66 0 8 C0 5.36 0 2.72 0 0 Z " fill="#131313" transform="translate(517,79)"/>
<path d="M0 0 C2.875 -0.125 2.875 -0.125 6 0 C6.66 0.66 7.32 1.32 8 2 C7.625 4.625 7.625 4.625 7 7 C4.69 7.33 2.38 7.66 0 8 C0 5.36 0 2.72 0 0 Z " fill="#101010" transform="translate(495,79)"/>
<path d="M0 0 C1.99954746 -0.04254356 4.00041636 -0.04080783 6 0 C7 1 7 1 7.25 3.4375 C7.1675 4.283125 7.085 5.12875 7 6 C4 8 4 8 0 8 C0 5.36 0 2.72 0 0 Z " fill="#0F0F0F" transform="translate(373,79)"/>
<path d="M0 0 C0.66 0 1.32 0 2 0 C2.66 0.99 3.32 1.98 4 3 C4.66 2.01 5.32 1.02 6 0 C6.66 0 7.32 0 8 0 C8 2.97 8 5.94 8 9 C7.34 9 6.68 9 6 9 C5.67 8.34 5.34 7.68 5 7 C4.34 7.66 3.68 8.32 3 9 C2.67 8.34 2.34 7.68 2 7 C1.34 7.66 0.68 8.32 0 9 C0 6.03 0 3.06 0 0 Z " fill="#B4B6B5" transform="translate(648,149)"/>
<path d="M0 0 C1.65 0.33 3.3 0.66 5 1 C5.22162329 2.62324086 5.42689803 4.248721 5.625 5.875 C5.74101562 6.77992187 5.85703125 7.68484375 5.9765625 8.6171875 C5.98429688 9.40351562 5.99203125 10.18984375 6 11 C5.34 11.66 4.68 12.32 4 13 C-0.875 9.375 -0.875 9.375 -2 6 C-1.0625 2.8125 -1.0625 2.8125 0 0 Z " fill="#96BCB0" transform="translate(143,114)"/>
<path d="M0 0 C4.40114397 0.50298788 6.71195019 2.08772731 10 5 C9.67 6.65 9.34 8.3 9 10 C7.35 8.35 5.7 6.7 4 5 C3.67 6.65 3.34 8.3 3 10 C1.11608215 6.73454239 0.50712033 3.71888239 0 0 Z " fill="#A2BEA5" transform="translate(141,103)"/>
<path d="M0 0 C4.75 1.875 4.75 1.875 7 3 C7.33 2.01 7.66 1.02 8 0 C8.66 0 9.32 0 10 0 C8.87548273 2.9719385 7.77706209 5.33440687 6 8 C4.68 8 3.36 8 2 8 C2 6.68 2 5.36 2 4 C1.34 3.67 0.68 3.34 0 3 C0 2.01 0 1.02 0 0 Z " fill="#54A0BA" transform="translate(139,156)"/>
<path d="M0 0 C1.35432675 1.31200404 2.68733482 2.64631404 4 4 C4 4.33 4 4.66 4 5 C4.65035814 6.34136367 5.3162955 7.67532254 6 9 C5.34 9.66 4.68 10.32 4 11 C2.68 10.67 1.36 10.34 0 10 C0 6.7 0 3.4 0 0 Z " fill="#7DB7BA" transform="translate(90,248)"/>
<path d="M0 0 C0.66 0.33 1.32 0.66 2 1 C2.59355614 3.64860427 2.74209269 6.29197322 3 9 C1.35 9 -0.3 9 -2 9 C-1.125 2.25 -1.125 2.25 0 0 Z " fill="#121212" transform="translate(300,80)"/>
<path d="M0 0 C1.99097846 2.98646769 2.94124926 5.59687262 4 9 C2.02 9 0.04 9 -2 9 C-1.34 6.03 -0.68 3.06 0 0 Z " fill="#0D0E0E" transform="translate(474,80)"/>
<path d="M0 0 C0.66 0.66 1.32 1.32 2 2 C1.34 2 0.68 2 0 2 C-0.66 3.98 -1.32 5.96 -2 8 C-3.32 6.68 -4.64 5.36 -6 4 C-5.67 3.34 -5.34 2.68 -5 2 C-3.67696283 1.6278958 -2.34262065 1.29369827 -1 1 C-0.67 0.67 -0.34 0.34 0 0 Z " fill="#7AB7B8" transform="translate(124,95)"/>
<path d="M0 0 C-0.39803561 2.88575819 -0.79009069 3.82189513 -3.0625 5.75 C-3.701875 6.1625 -4.34125 6.575 -5 7 C-5.33 5.02 -5.66 3.04 -6 1 C-3 0 -3 0 0 0 Z " fill="#9FBDB4" transform="translate(96,257)"/>
<path d="M0 0 C1.9375 0.3125 1.9375 0.3125 4 1 C4.33 1.99 4.66 2.98 5 4 C4.34 4 3.68 4 3 4 C3 4.66 3 5.32 3 6 C2.01 6.33 1.02 6.66 0 7 C-1.04449911 3.86650268 -0.93423645 3.01031744 0 0 Z " fill="#66A7B6" transform="translate(181,167)"/>
<path d="M0 0 C2.97 0.33 5.94 0.66 9 1 C7.375 2.5625 7.375 2.5625 5 4 C1.75 3.6875 1.75 3.6875 -1 3 C-0.67 2.01 -0.34 1.02 0 0 Z " fill="#202121" transform="translate(559,123)"/>
<path d="M0 0 C0.66 0.33 1.32 0.66 2 1 C2 2.65 2 4.3 2 6 C0.02 6.99 0.02 6.99 -2 8 C-2.33 7.01 -2.66 6.02 -3 5 C-2.34 4.67 -1.68 4.34 -1 4 C-0.34786708 1.97536745 -0.34786708 1.97536745 0 0 Z " fill="#6CB1BB" transform="translate(139,168)"/>
<path d="M0 0 C0.99 0.99 1.98 1.98 3 3 C3.66 2.67 4.32 2.34 5 2 C4.67 3.65 4.34 5.3 4 7 C0.125 5.25 0.125 5.25 -1 3 C-0.67 2.01 -0.34 1.02 0 0 Z " fill="#8FBAB6" transform="translate(91,244)"/>
<path d="M0 0 C-2.12780579 2.34058637 -4.11562221 3.70700306 -7 5 C-7 2 -7 2 -6 0 C-3 -1 -3 -1 0 0 Z " fill="#AE4C67" transform="translate(131,242)"/>
<path d="M0 0 C0.66 0 1.32 0 2 0 C2.33 0.66 2.66 1.32 3 2 C5.02463255 2.65213292 5.02463255 2.65213292 7 3 C7 3.66 7 4.32 7 5 C4.625 5.125 4.625 5.125 2 5 C1.34 4.34 0.68 3.68 0 3 C0 2.01 0 1.02 0 0 Z " fill="#101212" transform="translate(87,261)"/>
<path d="M0 0 C1.32 0.66 2.64 1.32 4 2 C3.34 3.65 2.68 5.3 2 7 C0.68 5.68 -0.64 4.36 -2 3 C-1.34 3 -0.68 3 0 3 C0 2.01 0 1.02 0 0 Z " fill="#4F9CB9" transform="translate(179,164)"/>
<path d="M0 0 C0.99 0.33 1.98 0.66 3 1 C3 2.32 3 3.64 3 5 C1.35 5.33 -0.3 5.66 -2 6 C-1.49396008 3.83125748 -1.00016187 2.00032373 0 0 Z " fill="#866F75" transform="translate(108,250)"/>
<path d="M0 0 C1.98 0.66 3.96 1.32 6 2 C5.01 2.495 5.01 2.495 4 3 C4.33 3.99 4.66 4.98 5 6 C4.01 5.67 3.02 5.34 2 5 C0.8125 2.4375 0.8125 2.4375 0 0 Z " fill="#A1BD9D" transform="translate(135,99)"/>
<path d="M0 0 C0.99 0.33 1.98 0.66 3 1 C1.35 2.65 -0.3 4.3 -2 6 C-2 4.68 -2 3.36 -2 2 C-1.34 2 -0.68 2 0 2 C0 1.34 0 0.68 0 0 Z " fill="#7FB8B7" transform="translate(117,93)"/>
</svg>
