<?xml version="1.0" encoding="utf-8"?>
<!-- Generator: Adobe Illustrator 26.1.0, SVG Export Plug-In . SVG Version: 6.00 Build 0)  -->
<svg version="1.1" baseProfile="basic" id="Ebene_1"
	 xmlns="http://www.w3.org/2000/svg" xmlns:xlink="http://www.w3.org/1999/xlink" x="0px" y="0px" width="94.4365463px"
	 height="50px" viewBox="0 0 94.4365463 50" xml:space="preserve">
<style type="text/css">
	.st0{fill:#D2DBE5;}
	.st1{fill:#253786;}
	.st2{fill:#FFFFFF;}
	.st3{fill:#3B368B;}
</style>
<rect class="st0" width="94.4792938" height="50"/>
<path class="st1" d="M43.1869507,11.9322453c-0.6576767,0.0547657-1.3026123-0.2041378-1.7398605-0.698452
	c-0.4187088-0.636611-0.6143494-1.3941631-0.5562515-2.1539106c-0.0612068-0.7698708,0.1603508-1.5356503,0.6231689-2.1539102
	c0.5020218-0.5020247,1.1996422-0.7575126,1.9071503-0.6984525c0.1874046,0.0010047,0.3745728,0.013576,0.5604324,0.037641
	c0.2096367,0.0261993,0.4176712,0.0638971,0.6231689,0.1129236v0.8364701
	c-0.2258453-0.0418239-0.4182358-0.0711002-0.5980759-0.0961938c-0.1595306-0.0205526-0.3201294-0.0317245-0.4809723-0.0334587
	c-0.2453804-0.0067139-0.4901009,0.0286508-0.7235451,0.1045585c-0.1908875,0.0618353-0.3595238,0.1781368-0.485157,0.3345881
	c-0.132618,0.1811438-0.2226791,0.3898616-0.263485,0.6106224c-0.0564804,0.3104181-0.0830956,0.625535-0.0794678,0.9410286
	c-0.0048332,0.312582,0.0203781,0.6249046,0.0752831,0.9326639c0.0327797,0.2155275,0.1096649,0.4219761,0.2258492,0.6064415
	c0.1044807,0.1483068,0.2497711,0.2630882,0.4182358,0.3304062c0.2039604,0.0721388,0.4194489,0.106163,0.6357155,0.1003761
	h0.1840248h0.2007523V9.0338764h0.9535751v2.7770805c-0.3304062,0.0460062-0.6064377,0.0752821-0.8364677,0.0961943
	C43.6009903,11.9280624,43.3918839,11.9322453,43.1869507,11.9322453z"/>
<path class="st1" d="M47.0556259,11.9322453c-0.4935837,0.0341415-0.9761848-0.1564398-1.3132591-0.518611
	c-0.3272743-0.4403887-0.4860268-0.9834146-0.4475136-1.5307407c-0.0404053-0.5716095,0.1160393-1.1398315,0.4433289-1.6102047
	c0.3286324-0.3762412,0.8150406-0.5760717,1.3132591-0.5395226c0.4149399-0.0332971,0.8202705,0.1366301,1.08741,0.4558759
	c0.2700348,0.4215736,0.3989334,0.918129,0.3680496,1.4178171c0,0.1380177,0,0.2467585,0,0.3262234s0,0.1589289-0.0250931,0.2425766
	h-2.1204529c-0.0063972,0.2648029,0.0664177,0.525486,0.2091179,0.748641
	c0.1498756,0.1522512,0.3602715,0.2290373,0.5729828,0.2091169c0.1769333-0.0023422,0.3532944-0.0205374,0.5269775-0.0543699
	c0.2230492-0.038908,0.4436798-0.0905752,0.6608124-0.154747l0.0376396,0.7653694
	c-0.1991043,0.0763092-0.4049492,0.1337214-0.6148071,0.1714764C47.5238838,11.9058981,47.2901115,11.9296942,47.0556259,11.9322453
	z M47.0179863,8.5068998c-0.1907692-0.0090771-0.3726768,0.0810862-0.4809723,0.2383947
	c-0.1315727,0.2381783-0.2006416,0.5058136-0.2007561,0.7779169h1.2547073
	c0.0069885-0.2673235-0.0399513-0.5333157-0.1380196-0.7820997C47.3744774,8.5766058,47.198513,8.4818563,47.0179863,8.5068998z"/>
<path class="st1" d="M49.1635284,7.8000836h0.9410286l0.0460052,0.4182353h0.0292778
	c0.1203041-0.149827,0.273407-0.2700229,0.4475098-0.3513179c0.1834869-0.0842094,0.3836937-0.1256804,0.5855331-0.1212883
	c0.8615608,0,1.2965279,0.6566291,1.2965279,1.9698863c0.0029182,0.3114548-0.0336189,0.6220255-0.1087418,0.9242992
	c-0.0656891,0.2529058-0.1808281,0.4902935-0.3387718,0.6984529c-0.1514854,0.1955385-0.3500557,0.3495007-0.5771637,0.4475107
	c-0.2649727,0.1097794-0.5496979,0.1638765-0.8364677,0.1589289h-0.2007561
	c-0.0813828-0.0047827-0.1623917-0.0145597-0.2425766-0.0292759v1.6269341h-1.0330391L49.1635284,7.8000836z M50.6482658,11.2379761
	c0.1278801,0.0050888,0.2552261-0.0192356,0.3722267-0.0711002c0.1069145-0.0486689,0.1950226-0.1309042,0.2509422-0.234211
	c0.0706406-0.1374712,0.1173134-0.2859821,0.1380157-0.439147c0.0330505-0.2214861,0.0484314-0.4452505,0.0460091-0.6691761
	c0.0054398-0.2121325-0.0015411-0.4244022-0.020916-0.6357183c-0.0159454-0.1439142-0.0525703-0.2847767-0.1087418-0.4182348
	c-0.036869-0.0947962-0.1046562-0.1743736-0.1923866-0.2258472c-0.1738319-0.0866079-0.3782387-0.0866079-0.5520706,0
	c-0.0838547,0.051198-0.153019,0.1232433-0.2007523,0.2091179c-0.0615234,0.118022-0.103878,0.24508-0.125473,0.3764114
	c-0.041893,0.1841688-0.0670891,0.3717403-0.0752792,0.5604353v1.4680052
	C50.3294945,11.2145901,50.4884872,11.2415619,50.6482658,11.2379761z"/>
<path class="st1" d="M53.1911316,7.8000836h0.8741112l0.0627327,0.5646176h0.0501862
	c0.0430641-0.0544138,0.0937767-0.1023102,0.1505623-0.1422005c0.0752869-0.0557652,0.1631126-0.1143179,0.2634926-0.1756582
	c0.1003761-0.0585527,0.2091141-0.1171064,0.3220406-0.1714764c0.1129265-0.0543704,0.2174835-0.1045589,0.3178558-0.1422h0.1965714
	v0.9828525h-0.4182358c-0.0778618,0.0126772-0.1547241,0.0308466-0.2300224,0.0543699l-0.2258453,0.0836477
	c-0.0683403,0.0276194-0.1341248,0.0612078-0.1965714,0.1003761c-0.0489273,0.0323734-0.0950928,0.0687447-0.1380157,0.1087408
	v2.8021755h-1.028862V7.8000836z"/>
<path class="st1" d="M56.9636116,11.9406099c-0.2812119,0.0165873-0.5562782-0.0867538-0.7570038-0.284399
	c-0.1889305-0.2217779-0.2848358-0.5079937-0.2676697-0.7988291V7.8000836h1.0330429v2.7310748
	c-0.0170326,0.1463289,0.0169411,0.2940531,0.0961914,0.4182358c0.0824966,0.0855446,0.1995773,0.1286802,0.3178558,0.1171055
	c0.1075249-0.0014391,0.2138672-0.022706,0.3136749-0.0627346c0.1340942-0.0573549,0.2616844-0.1288605,0.3805962-0.2133007
	V7.8000836h1.028862v4.0652442h-0.8741112l-0.0585518-0.4182348h-0.0292778
	c-0.1422005,0.0961933-0.2634926,0.1714764-0.3680496,0.234211c-0.0955429,0.0567074-0.1947403,0.1070061-0.2969513,0.1505651
	c-0.0827446,0.0372887-0.1698685,0.0639877-0.259304,0.0794649C57.1377335,11.9300785,57.0508308,11.9398909,56.9636116,11.9406099z
	 M56.7168579,7.2103724c-0.1493111,0.0164633-0.2991905-0.0255041-0.4182358-0.1171064
	c-0.0926819-0.1090121-0.1378708-0.2505918-0.125473-0.3931408c0-0.3429527,0.1756592-0.5102472,0.5269737-0.5102472
	c0.1493416-0.0169082,0.2993889,0.025105,0.4182358,0.117106c0.1003189,0.1051497,0.1505966,0.2483554,0.1380196,0.3931413
	c0.0125771,0.1447854-0.0377007,0.287991-0.1380196,0.3931408C57.0038681,7.1811237,56.8606262,7.2229052,56.7168579,7.2103724z
	 M58.343792,7.2103724c-0.1493416,0.0169082-0.2993889-0.025105-0.4182358-0.1171064
	c-0.0926819-0.1090121-0.1378708-0.2505918-0.125473-0.3931408c0-0.3429527,0.1756592-0.5102472,0.5269737-0.5102472
	c0.1410942-0.0116339,0.2814102,0.0301623,0.3931427,0.117106c0.0974236,0.1066837,0.1459312,0.2491722,0.1338387,0.3931413
	c0.0120926,0.1439686-0.0364151,0.2864571-0.1338387,0.3931408C58.6128693,7.1762562,58.4792557,7.2178278,58.343792,7.2103724z"/>
<path class="st1" d="M63.9272232,11.911334c-0.3353729,0.0232639-0.6671104-0.0813389-0.9284821-0.2927647
	c-0.2177277-0.222187-0.3316193-0.5259094-0.3136749-0.8364706V8.6909237h-1.4303627v3.1744041h-1.0372238V8.6658297h-0.543705
	v-0.865746h0.543705V7.5742364c-0.0049706-0.2818456,0.0273743-0.5631108,0.0961952-0.8364701
	c0.052433-0.2134094,0.1640625-0.4076753,0.3220406-0.5604348c0.1700668-0.1536946,0.3755341-0.2628956,0.5980721-0.3178587
	c0.3026199-0.0747476,0.6126442-0.1154289,0.924305-0.1212878l0.0585518,0.7820992
	c-0.1625862,0.007494-0.3238678,0.0327377-0.4809685,0.0752826c-0.111187,0.0260744-0.2135849,0.0808773-0.2969475,0.1589293
	c-0.0743828,0.0814972-0.1262703,0.1809516-0.1505661,0.2885823c-0.0314941,0.147006-0.0455322,0.2972155-0.0418282,0.4475112
	v0.309494h1.493103l0.1338387-1.1208701l0.8364716-0.1129236v1.2337937h0.8364716v0.8741117h-0.8364716v1.8485985
	c-0.0160446,0.1662836,0.0252762,0.3330517,0.1171036,0.4726057c0.0875969,0.0979967,0.2161636,0.1491146,0.3471375,0.1380167
	h0.1798401c0.0664825-0.0068531,0.1322556-0.0194464,0.1965714-0.0376406v0.7528229
	c-0.10186,0.0248985-0.2052536,0.0430603-0.3095016,0.0543699C64.1365814,11.9115448,64.0318604,11.9143372,63.9272232,11.911334z"
	/>
<path class="st1" d="M66.7586746,11.9322453c-0.4936676,0.0347538-0.9765244-0.1559286-1.3132553-0.518611
	c-0.3289719-0.4395409-0.487915-0.9832125-0.4475174-1.5307407c-0.0477295-0.5686769,0.0997849-1.1366405,0.4182358-1.6102047
	c0.3290253-0.3756948,0.8151474-0.575408,1.3132629-0.5395226c0.4150467-0.0340133,0.820694,0.1360469,1.08741,0.4558759
	c0.2661743,0.4257746,0.3892746,0.9254894,0.3513184,1.4261818c0,0.1380177,0,0.2467585,0,0.3262234s0,0.1589289,0,0.2425766
	h-2.1246338c-0.0054169,0.2652683,0.0688858,0.5260592,0.213295,0.748641
	c0.1479111,0.1526146,0.357254,0.2295809,0.5688019,0.2091179c0.1769257-0.0023422,0.3532944-0.0205383,0.5269699-0.0543709
	c0.2243423-0.0393419,0.4463348-0.0910025,0.6649933-0.154747l0.0376434,0.7653704
	c-0.2003555,0.0768757-0.4076385,0.1343002-0.618988,0.1714764C67.2126694,11.9104548,66.9859314,11.9314489,66.7586746,11.9322453z
	 M66.7210388,8.5068998c-0.1909409-0.0098972-0.3732224,0.0804529-0.4809723,0.2383947
	c-0.1353302,0.2368555-0.2060013,0.5051289-0.2049332,0.7779169h1.2547073c0.0112-0.267621-0.0358963-0.5344782-0.1380234-0.7820997
	C67.0738449,8.578228,66.9001389,8.4837828,66.7210388,8.5068998z"/>
<path class="st1" d="M68.8665771,7.8000836h0.874115l0.058548,0.5646176h0.0376434
	c0.0430679-0.0544138,0.0937805-0.1023102,0.1505661-0.1422005c0.0752792-0.0557652,0.1631165-0.1143179,0.2634964-0.1756582
	c0.1003723-0.0585527,0.2049332-0.1171064,0.3178558-0.1714764c0.112915-0.0543704,0.2216644-0.1045589,0.3220367-0.1422h0.2007523
	v0.9828525h-0.4182358c-0.077858,0.0126772-0.1547318,0.0308466-0.2300262,0.0543699l-0.2258453,0.0836477
	c-0.0674591,0.0266399-0.1319504,0.0602827-0.1923904,0.1003761c-0.0501938,0.0324421-0.0977478,0.0688019-0.1421967,0.1087408
	v2.8021755h-1.028862L68.8665771,7.8000836z"/>
<path class="st1" d="M42.3295708,20.0627346c-0.1714783,0-0.3513184,0-0.5437088,0s-0.418232-0.0292759-0.6817207-0.0543709
	v-5.6001663c0.3011284-0.0334597,0.5562515-0.0585527,0.7611885-0.0710993c0.2049332-0.0125465,0.4182358,0,0.5855293,0
	c0.408371-0.0091848,0.8158112,0.0429773,1.2086983,0.1547461c0.3192673,0.0903759,0.608242,0.2652054,0.8364716,0.5060644
	c0.2227249,0.2540483,0.3805809,0.5582809,0.4600563,0.8866577c0.103138,0.4299097,0.1509209,0.8712358,0.1422005,1.3132582
	c0.0083733,0.4452553-0.0422554,0.8896599-0.1505661,1.3216228c-0.0826721,0.3352146-0.2480354,0.6443653-0.4809723,0.8992062
	c-0.2315407,0.2357864-0.5194626,0.4085369-0.8364677,0.5018806C43.2061272,20.0320091,42.7677879,20.0799313,42.3295708,20.0627346
	z M42.6767044,19.1969891c0.2094116,0.0053291,0.4179649-0.0287209,0.6148071-0.100378
	c0.1700287-0.0666866,0.3158493-0.1833439,0.4182358-0.3345871c0.1029396-0.1940136,0.1695557-0.4052048,0.1965675-0.6231689
	c0.0513763-0.3194065,0.075161-0.6426392,0.0710983-0.9661236c0.0030022-0.3177414-0.0193748-0.6352158-0.0669174-0.9493942
	c-0.0322495-0.2202225-0.1106377-0.4311514-0.2300301-0.618988c-0.1025772-0.151062-0.2483406-0.2676716-0.4182358-0.3345871
	c-0.2082214-0.0724621-0.4278831-0.1064739-0.6482658-0.1003771c-0.0891647-0.0046768-0.1785088-0.0046768-0.2676697,0
	c-0.0747223,0.0046902-0.1488914,0.0158854-0.2216644,0.0334597v3.9439564c0.125473,0,0.2300301,0.025095,0.3136749,0.0292759
	L42.6767044,19.1969891z"/>
<path class="st1" d="M46.6206589,19.9958172c-0.295208,0.0119495-0.5808983-0.1056881-0.7821007-0.3220406
	c-0.2014656-0.230835-0.3063049-0.5303841-0.2927628-0.8364697c0.0000038-0.7723427,0.4809723-1.1905766,1.4429092-1.2547054
	l0.6942711-0.0418243v-0.129652c0.0007477-0.1288414-0.0090408-0.2575302-0.029274-0.3847752
	c-0.0155983-0.0873528-0.0530014-0.1693516-0.1087418-0.2383938c-0.0568314-0.0644703-0.1332245-0.1085434-0.2174835-0.1254711
	c-0.1109352-0.0261402-0.2248611-0.0373917-0.338768-0.0334587h-0.2216644l-0.2927628,0.0292759l-0.3011284,0.0334587
	c-0.0829506,0.0094528-0.165329,0.0234146-0.2467575,0.0418224l-0.0669212-0.7528219
	c0.2174797-0.0418224,0.4182358-0.0752821,0.6608124-0.1003771c0.2082481-0.0242987,0.4176979-0.0368662,0.6273537-0.0376415
	c0.4202805-0.0343256,0.8399391,0.0731659,1.191967,0.3053112c0.2696075,0.2522831,0.4070778,0.6152668,0.3722305,0.9828529
	v2.8398151h-0.8364716l-0.0836449-0.4893341h-0.0585518c-0.1380844,0.1504211-0.3007202,0.276289-0.4809723,0.3722286
	C47.0567894,19.9528046,46.8397217,20.0016804,46.6206589,19.9958172z M47.0054359,19.2346306
	c0.1235695-0.0041027,0.2442284-0.0385761,0.3513145-0.100378c0.1212883-0.0710983,0.2300301-0.1338348,0.3262215-0.2007523
	v-0.7820988L47.21455,18.1974068c-0.1777344,0.0040112-0.3505402,0.0591927-0.4977036,0.1589298
	c-0.1064186,0.0967007-0.1620255,0.2372589-0.1505623,0.3805943c-0.0097084,0.1324863,0.0305824,0.2638035,0.1129227,0.3680477
	c0.0859566,0.0859051,0.2050323,0.1301746,0.3262329,0.1212864L47.0054359,19.2346306z"/>
<path class="st1" d="M51.0832291,20.0041828c-0.3353691,0.0232639-0.6671104-0.0813389-0.9284821-0.2927647
	c-0.2177238-0.2221889-0.3316193-0.5259094-0.3136749-0.8364716v-2.0911751h-0.6315384v-0.9033871h0.6942749l0.1338348-1.1208696
	l0.8364677-0.1129236v1.2547045h0.8364716v0.8741121h-0.8364716v1.8485985
	c-0.0160446,0.1662827,0.02528,0.3330498,0.1171074,0.4726048c0.0885048,0.0992374,0.2189293,0.1504765,0.3513145,0.1380196
	h0.1756592c0.0678101-0.0072136,0.1349373-0.0198021,0.2007523-0.0376415v0.7528229
	c-0.1032677,0.0249023-0.208046,0.0430641-0.3136749,0.0543709C51.2980156,20.0104103,51.1904831,20.0104103,51.0832291,20.0041828z
	"/>
<path class="st1" d="M53.9146767,20.0250931c-0.4935837,0.0341415-0.9761848-0.1564407-1.3132591-0.5186119
	c-0.3282356-0.4415054-0.4870377-0.9861908-0.447506-1.5349216c-0.0477371-0.568676,0.0997887-1.1366386,0.418232-1.6102047
	c0.3297997-0.3746099,0.815361-0.5740929,1.3132591-0.5395231c0.427063-0.0360346,0.8440781,0.1426868,1.1125069,0.4767885
	c0.2625656,0.4271622,0.3840103,0.9261341,0.3471375,1.4261799c0,0.1380196,0,0.2467594,0,0.3262234s0,0.1589298-0.020916,0.2425766
	h-2.1329994c-0.0054131,0.2652702,0.0688896,0.5260601,0.2132988,0.748642
	c0.1492043,0.1532955,0.3601151,0.2302685,0.5729866,0.2091179c0.1769066-0.002737,0.3532333-0.0209293,0.5269737-0.0543709
	c0.2230492-0.038908,0.443676-0.0905762,0.6608124-0.154747l0.0376396,0.7653713
	c-0.2003555,0.0768757-0.4076385,0.1342983-0.618988,0.1714764C54.362587,20.0141315,54.1386566,20.0295277,53.9146767,20.0250931z
	 M53.877037,16.5997486c-0.190937-0.0098991-0.3732262,0.080452-0.4809723,0.2383938
	c-0.1333733,0.2376518-0.203907,0.5054016-0.2049332,0.7779179h1.2547035
	c0.0081902-0.2678032-0.0402679-0.5343151-0.1421967-0.7820988C54.2261772,16.6726761,54.0546989,16.5785313,53.877037,16.5997486z"
	/>
<path class="st1" d="M56.0351295,15.8803844h0.8741112l0.0585518,0.4182358h0.0334587
	c0.1505661-0.0961952,0.28022-0.1756592,0.3973236-0.2425785c0.1020813-0.0630322,0.2099152-0.1162462,0.3220444-0.1589289
	c0.0947685-0.0369501,0.1927795-0.0649538,0.2927628-0.0836477c0.0952454-0.0170183,0.1918297-0.0254164,0.2885818-0.025094
	c0.254818-0.015564,0.5027885,0.0860891,0.6733589,0.2760344c0.1670685,0.2346802,0.2482872,0.519701,0.2300301,0.8071938v3.0572987
	h-1.03722v-2.6808853c0.01651-0.146862-0.0190125-0.2948627-0.1003799-0.4182339
	c-0.0701599-0.083292-0.1757164-0.1283092-0.2843971-0.1212883c-0.1192665,0.0005512-0.2372551,0.0247154-0.3471336,0.0710983
	c-0.1345787,0.0511456-0.262394,0.1185646-0.3805962,0.2007523v2.9652863h-1.0204964V15.8803844z"/>
<path class="st1" d="M61.0539513,20.0334587c-0.3952332-0.0067616-0.7872009-0.0730286-1.162693-0.1965714v-0.7695522
	c0.179142,0.0656376,0.363945,0.1146393,0.5520744,0.1463814c0.1907234,0.0322399,0.3837395,0.0490227,0.5771637,0.0501881
	c0.3680496,0,0.5520744-0.1463814,0.5520744-0.4433289c0.0051765-0.1148777-0.037178-0.2268162-0.1171036-0.3094959
	c-0.1091232-0.0888767-0.2409744-0.1453857-0.3805962-0.1631107l-0.3847771-0.079464
	c-0.1367455-0.034193-0.2658577-0.0937805-0.3805923-0.1756592c-0.1256905-0.0929089-0.2251244-0.2168427-0.2885857-0.3596821
	c-0.0838509-0.2039795-0.1223831-0.4237423-0.1129227-0.6440811c-0.0190468-0.3489132,0.108284-0.6899586,0.3513145-0.9410305
	c0.2726021-0.2359247,0.6273346-0.3546705,0.9870338-0.3304052c0.1776962,0.0007801,0.3551331,0.0133543,0.5311623,0.0376415
	c0.1882019,0.025094,0.3847733,0.0585527,0.5855255,0.1045589v0.7570066
	c-0.1747665-0.0466557-0.3521194-0.0829678-0.5311623-0.1087399c-0.1296501,0-0.2509422-0.0209122-0.3638611-0.0209122
	c-0.1578522-0.0097694-0.3146858,0.0312691-0.4475136,0.1171055c-0.1031609,0.0757961-0.1613121,0.1983776-0.154747,0.3262234
	c-0.0159454,0.1271305,0.0346146,0.2535267,0.1338387,0.3345871c0.1086044,0.0691395,0.2291756,0.1173668,0.3555031,0.1422005
	c0.1411896,0.0290146,0.2807922,0.0653114,0.4182358,0.1087399c0.1401939,0.0401402,0.2719727,0.10532,0.3889542,0.1923885
	c0.1212082,0.0902042,0.2176132,0.2096272,0.2802162,0.3471355c0.0823326,0.1838436,0.1209869,0.3842545,0.1129265,0.5855293
	c0.0146713,0.3616791-0.1399384,0.7095585-0.4182358,0.9410286C61.8283005,19.9223194,61.4449997,20.0466309,61.0539513,20.0334587z
	"/>
<path class="st1" d="M64.935173,20.0250931c-0.5231476,0.0411797-1.0389824-0.1429405-1.4178162-0.5060635
	c-0.3513603-0.4531536-0.5186615-1.0222664-0.4684219-1.5934753c-0.0499001-0.5718384,0.1189995-1.1413136,0.4726067-1.5934772
	c0.3775444-0.3624582,0.8918343-0.546567,1.4136391-0.5060635c0.2538223-0.0004368,0.5062408,0.0376377,0.7486343,0.1129236
	v0.8113756c-0.1116028-0.0274982-0.2247162-0.0484467-0.338768-0.0627365c-0.1016846-0.0058079-0.2036209-0.0058079-0.3053131,0
	c-0.2711563-0.0259991-0.538002,0.0816727-0.7151794,0.2885818c-0.167511,0.2915096-0.2433014,0.6267242-0.2174835,0.9619408
	c-0.025444,0.3378525,0.0502701,0.6756344,0.2174835,0.9703045c0.1737213,0.2103024,0.4390793,0.3226871,0.7109985,0.3011303
	c0.1044617,0.0062485,0.2092133,0.0062485,0.3136749,0c0.1131897-0.0130043,0.2251053-0.035387,0.3345871-0.0669174V19.94981
	c-0.1147156,0.037096-0.2321854,0.0650654-0.3513184,0.0836468C65.2000122,20.0389709,65.0673141,20.0361767,64.935173,20.0250931z"
	/>
<path class="st1" d="M66.3739014,13.8728571h1.0330429v2.4257631c0.1380157-0.0878296,0.2634888-0.1631126,0.3764038-0.2216644
	c0.0991821-0.0527687,0.2010956-0.1002369,0.3053131-0.1422005c0.0893478-0.0349894,0.1817627-0.0615921,0.2760391-0.079464
	c0.0918961-0.0065384,0.1841354-0.0065384,0.2760315,0c0.2548218-0.015563,0.5027924,0.0860901,0.6733627,0.2760353
	c0.1670685,0.2346802,0.248291,0.519701,0.2300262,0.8071938v3.0572987h-1.0246735v-2.7478065
	c0-0.3513165-0.1296463-0.5269756-0.3847733-0.5269756c-0.2638626,0.0178947-0.5167618,0.1123714-0.7277298,0.2718544v2.9652863
	h-1.0330429V13.8728571z"/>
<path class="st1" d="M71.3718109,20.0334587c-0.2812119,0.0165882-0.556282-0.0867538-0.7570038-0.2844009
	c-0.1874313-0.2224064-0.2818146-0.5085545-0.2634888-0.7988281v-3.0698452h1.0288544v2.7310753
	c-0.0183716,0.1469707,0.0173035,0.2956104,0.1003799,0.4182339c0.0804901,0.0859489,0.1965561,0.129282,0.3136749,0.1171055
	c0.1075287-0.0014381,0.2138672-0.022707,0.3136826-0.0627365c0.1345215-0.056469,0.262207-0.128027,0.3805923-0.2132988v-2.9903793
	h1.028862v4.0652447h-0.8741074l-0.0585556-0.4182339h-0.0292816c-0.1421967,0.0961933-0.2634888,0.1714764-0.3680496,0.234211
	c-0.0955429,0.0567074-0.1947403,0.1070061-0.2969437,0.1505661c-0.0827484,0.0372887-0.1698761,0.0639858-0.2593079,0.079464
	C71.5463791,20.0146103,71.4594727,20.0286274,71.3718109,20.0334587z"/>
<path class="st1" d="M75.9263916,20.0041828c-0.3353806,0.0232639-0.6671143-0.0813389-0.9284821-0.2927647
	c-0.2177277-0.2221889-0.3316269-0.5259094-0.3136826-0.8364716v-2.0911751h-0.6315308v-0.9033871h0.6942749l0.1338348-1.1208696
	l0.8364716-0.1129236v1.2547045h0.8364716v0.8741121h-0.8364716v1.8485985
	c-0.0160446,0.1662827,0.0252762,0.3330498,0.1171036,0.4726048c0.0876007,0.0979996,0.2161636,0.1491165,0.3471375,0.1380196
	h0.1798401c0.0664825-0.0068531,0.1322556-0.0194473,0.1965714-0.0376415v0.7528229
	c-0.1019287,0.0245705-0.2052994,0.0427303-0.3095016,0.0543709C76.1411743,20.0102825,76.0336456,20.0102825,75.9263916,20.0041828
	z"/>
<path class="st1" d="M76.9803391,19.2513599l1.5683823-2.5094109v-0.025095h-1.5140076v-0.8364697h2.6641541v0.7151814
	l-1.551651,2.4843159v0.0501881h1.6269302v0.8364697h-2.793808V19.2513599z"/>
<path class="st2" d="M1.9824342,38.6198235v9.3726463h90.5144196v-9.3726463H1.9824342z"/>
<path class="st1" d="M6.1145964,44.6800499c-0.342093,0.0377312-0.6500006-0.2090034-0.6877313-0.5510979
	c-0.005559-0.0503998-0.0049458-0.1012878,0.0018258-0.1515388v-1.5265579H4.9268088v-0.3513145h0.5018821l0.0585527-0.6357155
	L5.80092,41.41782v0.6817207h0.7193646v0.3513145H5.80092v1.4512787c0,0.3094902,0.1422,0.464241,0.4182353,0.464241h0.1463823
	l0.1589293-0.0376396v0.3178596C6.3894987,44.6728516,6.2520366,44.6840744,6.1145964,44.6800499z"/>
<path class="st1" d="M7.7457132,44.6967812c-0.4182348,0-0.6315351-0.2300339-0.6315351-0.6900902v-1.9071503H7.519866v1.8025932
	c-0.0119648,0.1226006,0.0159011,0.2457962,0.0794649,0.3513145c0.0777864,0.0753632,0.1851015,0.1121559,0.2927647,0.1003761
	c0.1436892,0.0012703,0.286087-0.0272102,0.4182348-0.0836449c0.1440935-0.0583115,0.2838583-0.1267967,0.4182358-0.204937
	v-1.9573402h0.3973236v2.5470543H8.7745714l-0.025094-0.2969475l0,0l-0.3053112,0.1589279
	c-0.0783739,0.0403595-0.1594219,0.0752945-0.2425766,0.1045609c-0.0702467,0.028038-0.143096,0.0490532-0.2174826,0.0627365
	C7.9051728,44.695488,7.8253927,44.6996841,7.7457132,44.6967812z"/>
<path class="st1" d="M10.9744873,44.6925964c-0.3136044,0.0219955-0.6205587-0.0977173-0.8364697-0.3262215
	c-0.206893-0.2730598-0.3079205-0.6117973-0.2844-0.9535751c-0.0250502-0.3581886,0.0738935-0.7140884,0.2802172-1.0079498
	c0.1999769-0.2380066,0.5011349-0.3668556,0.8113766-0.3471375c0.6106234,0,0.9159336,0.3764114,0.9159346,1.1292343
	c0,0.0710983,0,0.1338348,0,0.1882057c0.0025215,0.0487595,0.0025215,0.0976219,0,0.1463814h-1.6102047
	c-0.0051975,0.2315063,0.0669146,0.4581413,0.2049351,0.6440811c0.1457939,0.1475105,0.3496046,0.222599,0.5562525,0.204937
	c0.1194534-0.0007629,0.2385359-0.0133743,0.3555002-0.0376396c0.1283131-0.0236664,0.2542763-0.0586548,0.3764114-0.1045609
	v0.309494c-0.1217794,0.0530357-0.2495956,0.0909576-0.3805943,0.1129227
	C11.2351532,44.6753044,11.1050644,44.6892929,10.9744873,44.6925964z M10.9368467,42.3672104
	c-0.4182358,0-0.6524467,0.2885818-0.6859055,0.8657455h1.2547054c0.0101252-0.2306404-0.0403442-0.4599152-0.1463833-0.6649895
	C11.2661276,42.4284134,11.1038656,42.3512993,10.9368467,42.3672104z"/>
<path class="st1" d="M12.2835627,42.1413651v-0.0418243h0.4182348l0.6399002,1.8736954l0.0920115,0.338768h0.0460062
	l0.0961943-0.338768l0.6357174-1.8736954h0.4182348v0.0418243l-0.903388,2.509407h-0.5353413L12.2835627,42.1413651z"/>
<path class="st1" d="M15.1359262,43.1618576h1.37181v0.3220406h-1.37181V43.1618576z"/>
<path class="st1" d="M17.9757423,44.7009621c-0.1147575-0.0005112-0.2293434-0.0088959-0.3429527-0.0250931
	c-0.1212883,0-0.2676697-0.0460052-0.4433308-0.0836449v-0.3220406c0.1338367,0.0334587,0.2676716,0.0627365,0.4182358,0.0836449
	c0.1227207,0.0230255,0.2473679,0.0342293,0.3722286,0.0334625c0.1395016,0.0085564,0.2778664-0.0297165,0.3931408-0.1087418
	c0.0924683-0.0754547,0.1436768-0.1902847,0.1380177-0.309494c0.0113468-0.1171722-0.0374622-0.2321091-0.129652-0.3053131
	c-0.1090717-0.0720329-0.2313099-0.1217804-0.359684-0.1463814l-0.2718525-0.0669212
	c-0.0908966-0.0205879-0.1773243-0.0574265-0.2551231-0.1087418c-0.0802574-0.0516777-0.145237-0.1238785-0.1882057-0.2091179
	c-0.0552731-0.1130333-0.0811653-0.2381744-0.0752831-0.3638649c-0.0080795-0.2049065,0.0782394-0.4022064,0.2342129-0.5353394
	c0.1852455-0.1381607,0.4134064-0.2063141,0.6440811-0.1923866h0.1463814c0.0501213-0.0036659,0.1004448-0.0036659,0.1505661,0
	L18.58218,42.066082l0.2216644,0.0418205v0.3262253c-0.1505661-0.0334625-0.2718544-0.0543709-0.3680477-0.0711021
	c-0.0897655-0.0158844-0.1806965-0.0242805-0.2718525-0.0250931c-0.1471291-0.0122337-0.2941761,0.0245285-0.4182358,0.1045609
	c-0.092144,0.070179-0.143774,0.181263-0.1380177,0.2969475c-0.0030308,0.0653343,0.0114059,0.1302986,0.0418224,0.1882019
	c0.0287228,0.0490646,0.0671444,0.0917587,0.1129227,0.125473c0.0525837,0.0316391,0.1087418,0.0569115,0.1672955,0.0752831
	l0.2132988,0.05019c0.1006966,0.0231323,0.1998672,0.0524673,0.2969475,0.0878258
	c0.0847969,0.0316505,0.1638947,0.0768471,0.234211,0.1338387c0.0652962,0.0600624,0.1179104,0.1325874,0.154747,0.2132988
	c0.0399094,0.0995903,0.0584335,0.2064629,0.0543709,0.3136749c0.0114098,0.2103271-0.0750465,0.4141159-0.2342129,0.5520706
	C18.4596424,44.633667,18.2198448,44.7126045,17.9757423,44.7009621z"/>
<path class="st1" d="M20.0669174,44.6716843c-0.179203,0.0121307-0.3552551-0.0516129-0.4851532-0.1756592
	c-0.1204281-0.1352081-0.1821232-0.312767-0.1714764-0.4935188c-0.0135403-0.2101669,0.0696297-0.4150124,0.2258472-0.5562515
	c0.2068996-0.1500664,0.4554195-0.2319336,0.7110004-0.234211l0.5604343-0.0418243v-0.2049332
	c0.0008755-0.0928307-0.0089474-0.1854553-0.0292759-0.2760353c-0.0179443-0.0673752-0.0524502-0.1292-0.1003761-0.1798439
	c-0.0509758-0.0488701-0.1147995-0.0822334-0.1840229-0.0961952c-0.0930824-0.0223274-0.1887226-0.032177-0.2844009-0.029274
	c-0.1086712-0.005455-0.2175503-0.005455-0.3262234,0c-0.1212883,0-0.2467575,0.0334587-0.3764114,0.0585518l-0.0334587-0.309494
	l0.4182339-0.0627365c0.1338348,0,0.259306,0,0.3805943,0c0.2483215-0.0216026,0.4958,0.0499535,0.6942711,0.2007561
	c0.1617336,0.1634293,0.2428837,0.3900414,0.2216625,0.618988v1.756588h-0.3262215l-0.0418243-0.3136787h-0.0167294
	c-0.1307659,0.0949249-0.2709084,0.1762047-0.4182339,0.2425804C20.3544827,44.6378403,20.2116966,44.670681,20.0669174,44.6716843z
	 M20.2049351,44.3621902c0.0580406-0.0004425,0.1157436-0.0088882,0.1714764-0.0250931l0.1840229-0.0627365l0.179842-0.0920105
	l0.1672935-0.1045609v-0.6482658l-0.4558754,0.0418243c-0.1754475,0.006916-0.346447,0.0572052-0.4976997,0.1463814
	c-0.1007843,0.087677-0.1536236,0.2182198-0.1421986,0.3513145c-0.0281181,0.1896439,0.1028252,0.3661766,0.2924709,0.3942909
	c0.0361767,0.0053635,0.0729752,0.0049782,0.1090317-0.0011444H20.2049351z"/>
<path class="st1" d="M22.6390629,44.6716843c-0.1791286,0.0116119-0.3549786-0.0520554-0.4851513-0.1756592
	c-0.1193275-0.1356239-0.1795521-0.3132858-0.1672955-0.4935188c-0.0135403-0.2101669,0.0696297-0.4150124,0.2258472-0.5562515
	c0.2068977-0.1500664,0.4554176-0.2319336,0.7110004-0.234211l0.5562534-0.0418243v-0.2049332
	c0.0018559-0.0926552-0.0065613-0.1852341-0.025095-0.2760353c-0.0179462-0.0673752-0.0524502-0.1292-0.100378-0.1798439
	c-0.0509739-0.0488701-0.1147976-0.0822334-0.1840229-0.0961952c-0.0931225-0.0220871-0.1887283-0.031929-0.284399-0.029274
	c-0.1086712-0.005455-0.2175503-0.005455-0.3262234,0c-0.1212883,0-0.2467575,0.0334587-0.3764114,0.0585518l-0.0334606-0.309494
	l0.4182358-0.0627365c0.1338348,0,0.2634888,0,0.3847752,0c0.2482433-0.0208015,0.4954395,0.0506783,0.6942711,0.2007561
	c0.1602612,0.1643562,0.2411613,0.3902588,0.2216625,0.618988v1.756588H23.54245l-0.0418224-0.3136787h-0.0292778
	c-0.1300564,0.0960083-0.270319,0.1773643-0.4182339,0.2425804C22.9236794,44.6371193,22.7824116,44.6699371,22.6390629,44.6716843z
	 M22.7770824,44.3621902c0.0594368-0.0001106,0.1185665-0.0085564,0.1756573-0.0250931
	c0.0611916-0.0171585,0.1212559-0.0381126,0.179842-0.0627365l0.1798401-0.0920105l0.1672955-0.1045609v-0.6482658
	l-0.4516945,0.0418243c-0.1754475,0.006916-0.346447,0.0572052-0.4976997,0.1463814
	c-0.1007862,0.087677-0.1536255,0.2182198-0.1422005,0.3513145c-0.0270481,0.1898003,0.104887,0.365593,0.2946854,0.392643
	C22.7140636,44.3661423,22.745779,44.3663101,22.7770824,44.3621902z"/>
<path class="st1" d="M24.7176914,42.0995407h0.3304043l0.0292778,0.3345871h0.0083637
	c0.1380196-0.079464,0.2802181-0.1589279,0.4182358-0.2258453c0.1325798-0.0674515,0.2730846-0.1180344,0.4182358-0.1505661
	h0.1171036v0.388958h-0.1171036c-0.1429615,0.016407-0.2833996,0.0501099-0.4182358,0.1003761
	c-0.132122,0.0481262-0.2595253,0.108326-0.3805943,0.1798439v1.9196968h-0.4182339L24.7176914,42.0995407z"/>
<path class="st1" d="M26.5955658,44.6633186c-0.0686283,0.0053368-0.1365013-0.0172882-0.1882057-0.0627327
	c-0.048605-0.0483131-0.0731373-0.1157799-0.0669174-0.1840248c-0.0177765-0.1211281,0.0660038-0.2337265,0.1871281-0.251503
	c0.0225601-0.0033112,0.0454941-0.0031204,0.0679951,0.0005608c0.070509-0.0043869,0.1398239,0.019722,0.1923885,0.0669212
	c0.0458984,0.0499954,0.0699787,0.1162224,0.0669193,0.184021C26.8548737,44.5796738,26.7586784,44.6633186,26.5955658,44.6633186z"
	/>
<path class="st1" d="M28.502718,44.6967812c-0.2823544,0.0194626-0.5566597-0.0989876-0.7360954-0.3178596
	c-0.1870079-0.2920418-0.2736435-0.6371155-0.2467575-0.9828529c-0.026968-0.3637009,0.0885086-0.7236404,0.3220406-1.0037651
	c0.2319164-0.2316895,0.5508595-0.3547096,0.8782921-0.338768c0.0920124,0,0.1840248,0,0.2676716,0l0.259306,0.0334587v-1.2547073
	h0.4182358v3.8101234h-0.3513165l-0.0334606-0.2927628l0,0C29.1006718,44.5944214,28.8050919,44.7263222,28.502718,44.6967812z
	 M28.5947304,44.3789215c0.0837116,0.0003891,0.1669693-0.01231,0.2467556-0.0376396
	c0.0762253-0.0240707,0.1471863-0.0623894,0.2091179-0.1129227c0.0584793-0.0502892,0.1067505-0.1113434,0.1421986-0.1798439
	c0.0380039-0.0735817,0.0567112-0.1556091,0.054369-0.2383919v-1.396904
	c-0.1773491-0.0375557-0.3582458-0.0557861-0.5395222-0.0543709c-0.2217159-0.016449-0.4383602,0.0717545-0.5855312,0.2383957
	c-0.148901,0.2308006-0.2179585,0.5040855-0.1965694,0.777916c-0.0213165,0.2660675,0.0369148,0.5324631,0.1672935,0.7653732
	C28.2067604,44.3025093,28.3972054,44.3929672,28.5947304,44.3789215z"/>
<path class="st1" d="M31.497282,44.6925964c-0.3136063,0.0219955-0.6205597-0.0977173-0.8364697-0.3262215
	c-0.2054081-0.2736359-0.3049316-0.6123199-0.2802181-0.9535751c-0.0242405-0.3574944,0.0730343-0.7126923,0.2760372-1.0079498
	c0.2007904-0.2369118,0.5013676-0.365509,0.8113766-0.3471375c0.6106243,0,0.9159374,0.3764114,0.9159374,1.1292343
	c0.0045586,0.0626526,0.0045586,0.1255531,0,0.1882057c0,0.0543671,0,0.1003761,0,0.1463814h-1.6102123
	c-0.0039921,0.2319946,0.0696068,0.4586792,0.2091179,0.6440811c0.1441765,0.1473427,0.346674,0.2225113,0.5520706,0.204937
	c0.1194668-0.0005417,0.2385693-0.0131531,0.3554993-0.0376396c0.128458-0.0230331,0.2544804-0.0580368,0.3764133-0.1045609
	l0.0250931,0.309494c-0.1234283,0.0524864-0.2525597,0.0903854-0.3847771,0.1129227
	C31.7720165,44.6766815,31.6348667,44.6906738,31.497282,44.6925964z M31.4596424,42.3672104
	c-0.4182358,0-0.6524467,0.2885818-0.6859055,0.8657455h1.2547054c0.0089836-0.2300682-0.0399094-0.4587173-0.1421986-0.6649895
	C31.7911339,42.4284439,31.6277657,42.3515663,31.4596424,42.3672104z"/>
<path class="st1" d="M33.9397736,41.1585121h0.3471336l-1.0246735,4.0610619h-0.3513145L33.9397736,41.1585121z"/>
<path class="st1" d="M35.7423668,41.5014648H34.705143v-0.3429527h2.5094109v0.3429527h-1.0455856v3.1451263h-0.4182358
	L35.7423668,41.5014648z"/>
<path class="st1" d="M37.854454,41.1585121h0.4182358v1.5391045h0.5771599l1.0497742-1.5391045h0.4600563l-1.0748634,1.5641975
	l-0.154747,0.1171036v0.0292778l0.1672935,0.1129227l1.1459618,1.6729393h-0.4767838l-1.1083221-1.5892906h-0.6064415v1.601841
	h-0.4182358L37.854454,41.1585121z"/>
<path class="st1" d="M40.669178,43.5926399v-0.0292778l1.1668739-2.45504l0,0l0.359684,0.0543709v0.0376396l-1.0915947,2.2835655
	l0,0h1.1543312l0.1129189-1.1961517h0.28022v1.1961517h0.464241v0.3220406h-0.464241v0.8364677h-0.4182358v-0.8364677h-1.4805527
	L40.669178,43.5926399z"/>
<path class="st1" d="M44.3245506,44.705143c-0.1072617,0.0060997-0.2147789,0.0060997-0.3220406,0l-0.3429527-0.05019v-0.3345871
	h0.0836449c0.1784668,0.0403175,0.3607483,0.061348,0.5437088,0.0627365
	c0.2265625,0.0177193,0.4520111-0.0460548,0.6357155-0.1798401c0.1515732-0.1485825,0.2283516-0.3574219,0.2091179-0.5688019
	c0.002346-0.1088333-0.0175819-0.2169991-0.0585518-0.3178596c-0.0415154-0.0862236-0.1068153-0.1587791-0.1882057-0.2091141
	c-0.1001625-0.0597267-0.2109451-0.0994949-0.3262215-0.1171074c-0.1593323-0.0230293-0.3199997-0.0355988-0.4809723-0.0376396
	h-0.3220406l-0.0334587-0.0334587l0.125473-1.7398567h1.5474663v0.338768h-1.2296104l-0.0752831,1.1125069
	c0.2201958-0.0003929,0.4399757,0.019207,0.6566277,0.0585556c0.1605492,0.0286407,0.3139763,0.0883064,0.4516945,0.1756554
	c0.1166992,0.0764465,0.2083321,0.1855316,0.2634888,0.3136787c0.1144028,0.3075638,0.1144028,0.6460075,0,0.9535751
	c-0.0537872,0.128849-0.136837,0.2434044-0.2425766,0.3345871c-0.1126862,0.0923462-0.2439117,0.1593857-0.3847771,0.1965714
	C44.6673698,44.7001343,44.495739,44.7141991,44.3245506,44.705143z"/>
<path class="st1" d="M47.390213,44.7009621c-0.3635902,0.021431-0.7116013-0.1501923-0.9159355-0.4516945
	c-0.4185181-0.846096-0.4185181-1.8389702,0-2.6850662c0.3841858-0.5058594,1.1057053-0.6044922,1.6115646-0.2203064
	c0.0830879,0.0631027,0.1571999,0.1372185,0.2203026,0.2203064c0.4126968,0.8459816,0.412693,1.8349037,0,2.6808853
	C48.1022339,44.5475311,47.7544441,44.7206268,47.390213,44.7009621z M47.390213,44.3538284
	c0.2564201,0.0104179,0.4964638-0.125824,0.618988-0.3513184c0.273098-0.7064362,0.273098-1.489296,0-2.1957321
	c-0.1990852-0.3464813-0.6413574-0.4659576-0.9878349-0.2668686c-0.1109962,0.0637817-0.2030869,0.1558685-0.2668686,0.2668686
	c-0.2732239,0.7049675-0.2732239,1.4865837,0,2.1915512C46.8784943,44.2310982,47.126976,44.3700485,47.390213,44.3538284z"/>
<path class="st1" d="M50.0125465,41.631115L50.0125465,41.631115l-0.7444572,0.4182358h-0.0376396l-0.0752831-0.2258453v-0.0543709
	l0.9744873-0.6106224h0.2969475v3.4880791h-0.4182358L50.0125465,41.631115z"/>
<path class="st1" d="M51.9322472,44.705143c-0.1072617,0.0060997-0.2147789,0.0060997-0.3220406,0l-0.3429527-0.05019v-0.3345871
	h0.0836449c0.1784668,0.0403175,0.3607483,0.061348,0.5437088,0.0627365
	c0.2265625,0.0177193,0.4520111-0.0460548,0.6357155-0.1798401c0.1515732-0.1485825,0.2283516-0.3574219,0.2091179-0.5688019
	c0.002346-0.1088333-0.0175819-0.2169991-0.0585518-0.3178596c-0.0415154-0.0862236-0.1068153-0.1587791-0.1882057-0.2091141
	c-0.1001625-0.0597267-0.2109451-0.0994949-0.3262253-0.1171074c-0.1593285-0.0230293-0.3199959-0.0355988-0.4809685-0.0376396
	h-0.3220406l-0.0334587-0.0334587l0.125473-1.7398567h1.5474663v0.338768h-1.2296104l-0.0752831,1.1125069
	c0.2201958-0.0003929,0.4399757,0.019207,0.6566277,0.0585556c0.1605492,0.0286407,0.3139763,0.0883064,0.4516945,0.1756554
	c0.1166992,0.0764465,0.2083321,0.1855316,0.2634888,0.3136787c0.1144028,0.3075638,0.1144028,0.6460075,0,0.9535751
	c-0.0537872,0.128849-0.136837,0.2434044-0.2425766,0.3345871c-0.1126862,0.0923462-0.2439117,0.1593857-0.3847771,0.1965714
	C52.2750664,44.7001343,52.1034355,44.7141991,51.9322472,44.705143z"/>
<rect x="1.9824342" y="1.9782518" class="st3" width="34.6549568" height="34.6549568"/>
<polygon class="st2" points="29.5775814,24.3914661 33.9690475,6.3404431 30.6064396,6.3404431 28.1179409,17.519865 
	27.0639915,13.0907564 23.6344624,13.0907564 26.5872021,24.3914661 "/>
<polygon class="st2" points="8.2894182,24.4583855 11.8318691,24.4583855 11.8318691,12.3964863 13.8979502,12.3964863 
	13.8979502,8.6532831 5.968214,8.6532831 5.968214,12.4341278 8.2894182,12.4341278 "/>
<rect x="14.650773" y="8.6532831" class="st2" width="3.5089917" height="3.7432032"/>
<rect x="19.5775833" y="8.6532831" class="st2" width="3.5089917" height="3.7432032"/>
<path class="st2" d="M17.8335419,24.4667492h5.2530327V13.0907564h-3.5424519v7.9213724h-0.6482639
	c-0.6106224,0-0.7277298-0.3220406-0.7277298-0.7277298v-7.1936426h-3.5382671v7.8837309
	C14.6298618,23.5591793,15.8845673,24.4667492,17.8335419,24.4667492z"/>
<path class="st2" d="M10.3136759,26.2693424l-0.9577579,5.2070274h0.8657465l0.1589289-1.1543293h0.9786701l0.1589289,1.1543293
	h0.8699284l-0.9619398-5.2070274H10.3136759z M10.5102463,29.5441227l0.3555002-2.2375565l0,0l0.3513174,2.2375565H10.5102463z"/>
<path class="st2" d="M23.4127979,26.2693424l-0.9535751,5.2070274h0.8657455l0.1589298-1.1543293h0.9786701l0.1589298,1.1543293
	h0.8824749l-0.9744892-5.2070274H23.4127979z M23.6093693,29.5441227l0.3513165-2.2375565l0,0l0.3513184,2.2375565H23.6093693z"/>
<polygon class="st2" points="20.6817226,26.2693424 19.7867012,26.2693424 19.7867012,31.4763699 22.0869942,31.4763699 
	22.0869942,30.698452 20.6817226,30.698452 "/>
<path class="st2" d="M30.7862797,26.2693424h-1.3299866v5.2070274h1.3299866c0.9242992,0,1.4136333-0.5018806,1.4136333-1.5725651
	v-2.0618992C32.1957321,26.7544956,31.7105789,26.2693424,30.7862797,26.2693424z M31.3048916,30.0334568
	c0,0.5478878-0.1672955,0.7277279-0.6399002,0.7277279h-0.3136768v-3.7557487h0.3136768
	c0.4726048,0,0.6399002,0.179842,0.6399002,0.7277279V30.0334568z"/>
<path class="st2" d="M7.197825,27.4864063c0-0.3220387,0.1589289-0.5102463,0.4475112-0.5102463
	c0.2007527,0,0.439147,0.129652,0.4767876,0.5771637l0.8364706-0.0961971
	c-0.0794649-0.7360916-0.5144291-1.2547035-1.2547054-1.2547035c-0.8824763,0-1.3843579,0.4684219-1.3843579,1.3007107
	c0,1.4930992,1.8151402,1.7691345,1.8151402,2.7979927c0.0051394,0.2540321-0.1966286,0.4641304-0.4506598,0.4692707
	c-0.0128975,0.0002575-0.0258007-0.0000229-0.0386753-0.000845c-0.2885823,0-0.4976997-0.2593079-0.5311584-0.7862816
	L6.265161,30.1003761c0.037641,0.7779179,0.5102463,1.4429092,1.3425341,1.4429092
	c0.7002501,0.0772991,1.3305783-0.4276981,1.4078794-1.1279507c0.0077105-0.0698547,0.0096359-0.1402302,0.0057554-0.2103996
	C9.0171471,28.7996655,7.197825,28.3730659,7.197825,27.4864063z"/>
<path class="st2" d="M19.0673351,27.804266c0-1.112505-0.5102463-1.5349216-1.5140095-1.5349216h-1.2505245v5.2070255h0.8950233
	v-2.1329975c0.1537266,0.0012856,0.3073826-0.0070972,0.4600582-0.0250931l0.6357174,2.1580944h0.9117527l-0.7611885-2.3588467
	C18.7452946,28.9795055,19.0673351,28.6407356,19.0673351,27.804266z M17.5115013,28.6072769h-0.3178577v-1.601841h0.3178577
	c0.4809704,0,0.6608124,0.179842,0.6608124,0.79883C18.1723137,28.4232559,17.9757423,28.6072769,17.5115013,28.6072769z"/>
<path class="st2" d="M13.7055626,26.2693424l-0.9577589,5.2070274h0.8657465l0.179841-1.1543293h0.9786701l0.1589298,1.1543293
	h0.8657465l-0.9786701-5.2070274H13.7055626z M13.9021339,29.5441227l0.3513174-2.2375565l0,0l0.3764105,2.2375565H13.9021339z"/>
<polygon class="st2" points="27.9422836,29.2471752 27.9297371,29.2471752 26.8381443,26.2693424 26.0100365,26.2693424 
	26.0100365,31.4763699 26.8172302,31.4763699 26.8172302,28.2225018 26.8339596,28.2225018 27.9715595,31.4763699 
	28.7536583,31.4763699 28.7536583,26.2693424 27.9422836,26.2693424 "/>
<path class="st1" d="M41.7189445,31.7398567H41.472187c-0.0878296,0-0.1798401,0-0.2676697-0.0376396l-0.2634888-0.054369
	c-0.0836449,0-0.1589279-0.0460072-0.2300301-0.0711002l0.0376396-0.338768
	c0.0587616,0.0288486,0.1204605,0.0512829,0.1840248,0.0669174c0.0796928,0.0229874,0.1606979,0.0411415,0.2425766,0.0543709
	c0.0836449,0,0.1714783,0.0292759,0.2551231,0.0376396c0.0793648,0.0056686,0.1590309,0.0056686,0.2383957,0
	c0.2056084,0.0148849,0.4091225-0.0494633,0.5687981-0.179842c0.1389847-0.135561,0.2122345-0.3248024,0.2007561-0.51861
	c0.0079193-0.1780643-0.062355-0.3507004-0.1923866-0.4726048c-0.1769028-0.1463985-0.3778419-0.2610168-0.593895-0.3387699
	c-0.1344681-0.0553303-0.2657204-0.1181602-0.3931427-0.1882038c-0.1015091-0.0577202-0.1932564-0.1311207-0.2718506-0.2174816
	c-0.0748329-0.081501-0.1305542-0.1786575-0.1631126-0.284399c-0.038887-0.1215858-0.0572624-0.2487926-0.0543709-0.3764133
	c-0.0002518-0.1428032,0.0252495-0.284483,0.0752831-0.4182339c0.0498314-0.1267452,0.1269379-0.2409725,0.2258492-0.334589
	c0.1022034-0.0921478,0.2215881-0.1632118,0.3513145-0.2091179c0.147789-0.0517311,0.3034859-0.0772095,0.4600563-0.0752831
	c0.1286659,0.0001602,0.2571831,0.0085392,0.3847771,0.0250931c0.1408195,0.0203171,0.2804337,0.0482407,0.4182358,0.0836468
	l-0.0250931,0.3304062c-0.1375237-0.035614-0.2772331-0.0621586-0.4182358-0.0794659
	c-0.1108665-0.0156136-0.2226334-0.0239964-0.3345909-0.0250931c-0.2001724-0.0094547-0.3958549,0.0612926-0.543705,0.1965694
	c-0.1415634,0.1393108-0.2162437,0.3328609-0.2049332,0.5311546c-0.0022163,0.0828285,0.012001,0.1652756,0.0418205,0.2425766
	c0.032608,0.0715408,0.079586,0.135603,0.1380196,0.1882057c0.0717926,0.0648098,0.1519775,0.1196709,0.2383919,0.1631107
	c0.1082916,0.0611763,0.2216301,0.1129475,0.3387718,0.1547489c0.1440353,0.0584373,0.2837906,0.1269169,0.4182358,0.2049332
	c0.1056671,0.0621014,0.2003479,0.1412392,0.2802162,0.234211c0.0749931,0.0845776,0.1306572,0.1844845,0.1631088,0.2927628
	c0.0388298,0.1244698,0.0571899,0.2544193,0.0543709,0.3847752c0.0174942,0.2866631-0.0891533,0.5670052-0.2927628,0.7695522
	C42.3114624,31.6737633,42.0159492,31.7672443,41.7189445,31.7398567z"/>
<path class="st1" d="M43.6051865,32.7352562v-0.0250931l0.3554993-1.0455856l-0.9493942-2.7687168v-0.0250931h0.3805962
	l0.6817207,2.0660782l0.0669212,0.3136768h0.0250931l0.0752831-0.3136768l0.6733551-2.066082h0.3847771v0.0250931
	l-1.3132591,3.9188633L43.6051865,32.7352562z"/>
<path class="st1" d="M46.2777061,31.7273102c-0.1050415-0.0003605-0.2099075-0.008749-0.3136749-0.0250931
	c-0.1087418,0-0.2383957-0.0460072-0.4182358-0.0836468v-0.3136749c0.1128502,0.0386543,0.2290649,0.0666561,0.3471375,0.0836449
	c0.1118774,0.0194225,0.2252121,0.0292168,0.338768,0.0292759c0.1370811,0.009264,0.2723045-0.0358105,0.3764114-0.1254711
	c0.1664162-0.1978722,0.1784439-0.4830894,0.0292778-0.6942711c-0.091156-0.0949287-0.2095222-0.1592293-0.3387718-0.1840248
	l-0.2509384-0.0669193c-0.0856743-0.0257473-0.1653137-0.0684128-0.234211-0.1254711
	c-0.0735168-0.0630054-0.1320953-0.1415806-0.1714783-0.230032c-0.0503082-0.123251-0.073143-0.2559814-0.0669174-0.388958
	c-0.0140686-0.2172222,0.0650177-0.4301586,0.2174797-0.5855293c0.1638107-0.1489601,0.381382-0.2245045,0.6022606-0.2091179
	c0.0905151-0.0061169,0.1813354-0.0061169,0.2718506,0c0.1153793,0.0164776,0.2298431,0.0388145,0.3429527,0.0669193v0.3136768
	c-0.1338348-0.0334606-0.2383919-0.0543709-0.3220367-0.0669193c-0.0766258-0.0039959-0.1534081-0.0039959-0.2300339,0
	c-0.1395149-0.0083923-0.2770233,0.0364494-0.3847733,0.1254711c-0.0971184,0.0849438-0.1495934,0.2099571-0.1422005,0.3387699
	c-0.003643,0.0747948,0.0107002,0.1493702,0.0418243,0.2174797c0.0236168,0.0524178,0.057785,0.0993996,0.1003761,0.1380196
	c0.0453033,0.0358868,0.0961609,0.0641403,0.1505661,0.0836449l0.1923866,0.0752926
	c0.1000938,0.0291004,0.1979408,0.0654449,0.2927628,0.1087418c0.0825386,0.039732,0.1575432,0.0935097,0.2216644,0.1589279
	c0.061142,0.0649147,0.1081429,0.1418228,0.1380196,0.2258472c0.0361938,0.1077309,0.0531807,0.2209816,0.0501862,0.334589
	c0.0110512,0.221632-0.0725708,0.4375286-0.2300301,0.5938931C46.7185059,31.6662979,46.4999695,31.7396393,46.2777061,31.7273102z"
	/>
<path class="st1" d="M48.6323738,31.6980343c-0.4767914,0-0.7109985-0.2509403-0.7109985-0.748642v-1.7440395h-0.5060654v-0.334589
	h0.5186119l0.0543671-0.698452l0.3053131-0.054369v0.7528248h0.7109985v0.334589H48.293602v1.6729393
	c-0.0109901,0.1345482,0.0276947,0.2684555,0.1087418,0.3764133c0.0794792,0.0852051,0.1932869,0.1298046,0.309494,0.1212883
	c0.0459251,0.0038033,0.0920906,0.0038033,0.1380196,0c0.0467529-0.0035362,0.0930099-0.0119476,0.1380157-0.0250931v0.3094921
	C48.8709984,31.685236,48.7518578,31.6978493,48.6323738,31.6980343z"/>
<path class="st1" d="M50.4056892,31.7189465c-0.3102951,0.0181427-0.6099625-0.1160812-0.8030128-0.3596821
	c-0.2049065-0.3055267-0.3033943-0.6700783-0.2802162-1.0372238c-0.026535-0.3908005,0.0668488-0.7803879,0.2676697-1.1166878
	c0.1879578-0.2477207,0.4887619-0.3831596,0.7988281-0.3596821c0.2529373-0.0158939,0.4962654,0.0994511,0.6440811,0.3053131
	c0.1643486,0.2713203,0.240345,0.5869999,0.2174835,0.903389c0,0.0836468,0,0.1547489,0,0.2091179s0,0.1129227,0,0.1714783
	h-1.5265617c-0.0073128,0.2624435,0.0624847,0.5212708,0.2007561,0.7444572
	c0.1199112,0.1643505,0.3156052,0.2558823,0.5186119,0.2425766c0.110939-0.0007687,0.2215614-0.0119724,0.3304062-0.0334587
	c0.1238823-0.029356,0.2444153-0.0714035,0.3596802-0.1254711l0.0250931,0.3136749
	c-0.1106224,0.0527554-0.2271652,0.0920696-0.3471336,0.1171055C50.6776047,31.7181549,50.5414314,31.7265759,50.4056892,31.7189465
	z M50.3805962,29.1342545c-0.1911011-0.0065842-0.3718109,0.0869408-0.4767876,0.2467575
	c-0.128418,0.2254219-0.1947975,0.4808521-0.1923904,0.7402744h1.1836052
	c0.017395-0.2586498-0.0255623-0.5178013-0.1254692-0.7570057C50.6960449,29.218132,50.544075,29.1282616,50.3805962,29.1342545z"/>
<path class="st1" d="M51.8067741,28.8707638h0.309494l0.0334587,0.3011303l0,0
	c0.2501106-0.2072544,0.5585403-0.331501,0.8824768-0.3554993c0.1245728-0.0064754,0.2482719,0.0240841,0.3554993,0.0878296
	c0.0918541,0.0657158,0.1571388,0.1621571,0.1840248,0.2718525h0.0250931
	c0.1445312-0.1092854,0.3018303-0.200573,0.4684219-0.2718525c0.1323929-0.0561314,0.2744446-0.0859623,0.418232-0.0878296
	c0.1702423-0.0159416,0.3383484,0.0472908,0.4558754,0.1714783c0.1063728,0.168108,0.1548424,0.3663921,0.1380196,0.5646152
	v2.1204529h-0.3680496v-2.0284405c0.0116386-0.1303024-0.0191689-0.2608738-0.0878334-0.3722286
	c-0.0649147-0.0797787-0.1652222-0.1220951-0.2676697-0.1129227c-0.1203651,0.0029621-0.2392693,0.0270271-0.3513145,0.0711002
	c-0.1348991,0.0567341-0.2637901,0.1267872-0.3847771,0.2091179v2.2333755h-0.3680458v-2.0284424
	c0.0103493-0.1296768-0.0188141-0.2594471-0.0836449-0.3722286c-0.0657959-0.078598-0.1654587-0.1206398-0.2676697-0.1129227
	c-0.2699928,0.0136795-0.5288963,0.1116848-0.7402763,0.2802181v2.2333755H51.785862L51.8067741,28.8707638z"/>
<path class="st1" d="M55.7841873,28.8707638h0.3429565l0.0250931,0.2802162h0.0209122
	c0.1760292-0.2002964,0.431881-0.3121338,0.698452-0.3053093c0.2700806-0.0168915,0.5274467,0.1166134,0.669178,0.3471355
	c0.1712723,0.3176422,0.2495537,0.6771278,0.2258453,1.0372238c0.0009689,0.1955223-0.0200768,0.3905334-0.0627327,0.5813465
	c-0.0363464,0.1721401-0.105957,0.3355217-0.204937,0.4809723c-0.0947762,0.1392841-0.2226868,0.2528229-0.3722305,0.3304062
	c-0.1742172,0.0852699-0.3665504,0.126894-0.5604324,0.1212883c-0.1405907-0.0014324-0.2806969-0.0168419-0.4182358-0.0460072
	v1.1375999h-0.3764076L55.7841873,28.8707638z M56.5830193,31.4345436c0.2378197,0.0128822,0.465477-0.097784,0.6022568-0.2927628
	c0.1506119-0.2761192,0.2188301-0.5896568,0.1965714-0.903389c0.0172005-0.2868385-0.0344238-0.5736351-0.1505623-0.8364716
	c-0.0882225-0.1736507-0.2696304-0.2798843-0.464241-0.2718525c-0.0757141,0.001379-0.1506577,0.0155163-0.2216644,0.0418224
	c-0.0713577,0.0282974-0.1377144,0.067831-0.1965714,0.1171055c-0.0559807,0.0522118-0.1014137,0.1146832-0.1338387,0.1840248
	c-0.0375938,0.0782108-0.0562248,0.1641827-0.0543747,0.2509403v1.6729393
	C56.2997246,31.4239941,56.4412918,31.4366112,56.5830193,31.4345436z"/>
<path class="st1" d="M58.3479691,28.8707638h0.3262253l0.0250931,0.334589h0.0250931
	c0.0980682-0.0807648,0.2063446-0.1482639,0.3220406-0.2007542c0.1439934-0.0752907,0.2953568-0.1355553,0.4516945-0.1798401
	h0.0878334v0.4182339h-0.1505661c-0.1430664,0.0203552-0.2833672,0.0568371-0.4182358,0.1087418
	c-0.1097641,0.0378513-0.212822,0.0929089-0.3053093,0.1631126v2.1790028h-0.3764076L58.3479691,28.8707638z"/>
<path class="st1" d="M60.6566277,31.7231274c-0.1835136,0.0163326-0.3650932-0.0477524-0.4976997-0.1756592
	c-0.1223755-0.1599236-0.1805534-0.3598156-0.1631088-0.5604324v-2.116272h0.3805923v2.0326233
	c-0.0138283,0.1285686,0.0156097,0.2580814,0.0836487,0.3680458c0.0743599,0.0783577,0.1812897,0.1170979,0.2885818,0.1045589
	c0.1152344-0.0004005,0.2291489-0.0246067,0.3345871-0.0711002c0.1390877-0.0637188,0.2708931-0.1422405,0.3931427-0.234211
	v-2.1999168h0.3805962v2.8021736h-0.3220406l-0.0334625-0.2969456l0,0
	c-0.1409721,0.1044941-0.2923355,0.1941929-0.4516945,0.2676697C60.9259224,31.6979694,60.791851,31.7250671,60.6566277,31.7231274z
	 M60.4475136,28.4065228c-0.1071892,0.0172443-0.2080536-0.0556717-0.225296-0.1628571
	c-0.0031357-0.0194626-0.0033188-0.0392876-0.0005493-0.0588074c0-0.1463814,0.0752792-0.2174797,0.2258453-0.2174797
	c0.0598907-0.0031185,0.1190071,0.014616,0.1672897,0.0501881c0.0833473,0.0959606,0.0833473,0.2386303,0,0.334589
	c-0.0434914,0.046402-0.1037178,0.0735054-0.1672897,0.0752792V28.4065228z M61.3969078,28.4065228
	c-0.1071892,0.0172443-0.2080536-0.0556717-0.225296-0.1628571c-0.0031319-0.0194626-0.0033188-0.0392876-0.0005493-0.0588074
	c0-0.1463814,0.0752792-0.2174797,0.2258453-0.2174797c0.0587006-0.003973,0.1167984,0.0139046,0.1631126,0.0501881
	c0.0928192,0.0798168,0.1033707,0.2197685,0.0235519,0.3125954C61.5372047,28.3840885,61.4677773,28.4124889,61.3969078,28.4065228z
	"/>
<path class="st1" d="M62.7017975,29.1969872h-0.3931427v-0.3262234h0.388958v-0.2049351
	c-0.0033302-0.1825294,0.0134964-0.3648701,0.0501862-0.543705c0.0255127-0.1297264,0.0814133-0.2515564,0.1631088-0.3554993
	c0.0806351-0.0954819,0.1864014-0.1664715,0.3053131-0.2049351c0.1558609-0.0505981,0.3174324-0.0815086,0.4809647-0.0920124
	v0.3053131c-0.1081886,0.0099087-0.2148514,0.0323658-0.3178558,0.0669193
	c-0.0771408,0.0287914-0.1440659,0.0797138-0.1923904,0.1463814c-0.0511475,0.076973-0.0853691,0.1639309-0.1003799,0.2551231
	c-0.0211983,0.1383762-0.0309868,0.2782574-0.0292778,0.4182358v0.2258472h0.5227928v0.3262234h-0.5227928v2.4759502h-0.3764076
	L62.7017975,29.1969872z"/>
<path class="st1" d="M64.6716843,31.7231274c-0.1833038,0.0146866-0.3642273-0.0491657-0.4977036-0.1756592
	c-0.1184158-0.1617317-0.1748161-0.3606129-0.1589279-0.5604324v-2.116272h0.3764038v2.0326233
	c-0.0116806,0.1284351,0.0175934,0.2572746,0.0836487,0.3680458c0.0760193,0.0784817,0.184227,0.1171265,0.2927628,0.1045589
	c0.1151733-0.0009861,0.2289658-0.0251675,0.3345871-0.0711002c0.1376724-0.0638981,0.2680817-0.1424179,0.3889542-0.234211
	v-2.1999168h0.3806v2.8021736h-0.3220444l-0.0292816-0.2969456h-0.0209122
	c-0.1429291,0.1037769-0.2956009,0.1934204-0.4558716,0.2676697C64.9266052,31.6954517,64.7998962,31.7225037,64.6716843,31.7231274
	z"/>
<path class="st1" d="M66.5746536,28.8707638h0.3345871l0.0250931,0.3011303h0.0209122
	c0.148056-0.1073418,0.3080597-0.1971626,0.4767914-0.2676697c0.1321564-0.0568695,0.2743607-0.086729,0.4182358-0.0878296
	c0.1714783-0.0159988,0.340889,0.0471458,0.4600601,0.1714783c0.106369,0.168108,0.1548386,0.3663921,0.1380157,0.5646152v2.1204529
	h-0.3805923v-2.0284405c0.0129013-0.131176-0.0163956-0.2630463-0.0836487-0.3764114
	c-0.0653381-0.0763645-0.1633072-0.1167984-0.2634888-0.1087418c-0.1221848,0.0024815-0.2427979,0.0280247-0.3554993,0.0752811
	c-0.1475372,0.0556755-0.2879257,0.1286793-0.4182358,0.2174816v2.2208271h-0.3764114L66.5746536,28.8707638z"/>
<path class="st1" d="M69.9121628,32.8147202c-0.2339554-0.0001526-0.4660797-0.0411987-0.6858978-0.1212883l0.029274-0.3136749
	c0.1065445,0.0368996,0.2155609,0.066246,0.3262253,0.0878296c0.0990372,0.020504,0.1999969,0.0303154,0.3011322,0.029274
	c0.2130203,0.0205383,0.4220734-0.0674858,0.5562515-0.234211c0.1329041-0.2397652,0.1938858-0.5127506,0.1756592-0.7862797
	v-0.1212883H70.593895c-0.1587448,0.2127266-0.4123535,0.3332672-0.6775436,0.3220387
	c-0.2752686,0.0189476-0.5398026-0.1101303-0.6942673-0.338768c-0.1728287-0.3200932-0.251152-0.682703-0.2258453-1.0455894
	c-0.0262604-0.3880939,0.0815125-0.7734394,0.3053055-1.0915928c0.2165833-0.2506027,0.5398331-0.3826981,0.8699341-0.3554993
	c0.1398239-0.0014095,0.2795792,0.0069752,0.4182358,0.0250931c0.1410599,0.0226021,0.2807083,0.0533237,0.4182358,0.0920124
	v2.3923054c0.0314636,0.3887863-0.0591812,0.7777004-0.2593079,1.112505
	C70.5484772,32.7199936,70.2322311,32.8512344,69.9121628,32.8147202z M69.9916306,31.3927212
	c0.077301,0.0011063,0.1540604-0.0131092,0.2258453-0.0418224c0.0736465-0.0241814,0.1418457-0.062542,0.2007523-0.1129227
	c0.0559387-0.0506229,0.1014023-0.1117229,0.1338348-0.179842c0.0374985-0.0707664,0.0562134-0.1499653,0.0543747-0.2300301
	v-1.6729393l-0.2425766-0.0460072c-0.0668411-0.0044155-0.1339111-0.0044155-0.2007523,0
	c-0.5144272,0-0.773735,0.3847752-0.773735,1.1501465S69.5901337,31.3927212,69.9916306,31.3927212z"/>
</svg>
