<?xml version="1.0" encoding="UTF-8"?>
<svg id="Ebene_1" data-name="Ebene 1" xmlns="http://www.w3.org/2000/svg" width="80" height="80" viewBox="0 0 80 80">
  <defs>
    <style>
      .cls-1 {
        fill: #003554;
      }
    </style>
  </defs>
  <path class="cls-1" d="M40,38.99c-3.17,0-5.88-1.13-8.14-3.39-2.26-2.26-3.39-4.97-3.39-8.14s1.13-5.88,3.39-8.14c2.26-2.26,4.97-3.39,8.14-3.39s5.88,1.13,8.14,3.39c2.26,2.26,3.39,4.97,3.39,8.14s-1.13,5.88-3.39,8.14c-2.26,2.26-4.97,3.39-8.14,3.39ZM15.3,64.07v-7.32c0-1.61.44-3.11,1.31-4.48.88-1.37,2.05-2.43,3.51-3.17,3.25-1.6,6.54-2.79,9.85-3.59,3.31-.8,6.65-1.2,10.02-1.2s6.71.4,10.02,1.2c3.31.8,6.6,1.99,9.85,3.59,1.47.74,2.64,1.8,3.51,3.17s1.31,2.87,1.31,4.48v7.32H15.3ZM20.24,59.13h39.52v-2.38c0-.67-.19-1.28-.58-1.85-.39-.57-.91-1.03-1.57-1.39-2.84-1.4-5.73-2.46-8.68-3.18-2.95-.72-5.92-1.08-8.93-1.08-3,0-5.98.36-8.93,1.08-2.95.72-5.84,1.78-8.68,3.18-.66.36-1.19.82-1.57,1.39-.39.57-.58,1.19-.58,1.85,0,0,0,2.38,0,2.38ZM40,34.05c1.81,0,3.36-.64,4.65-1.93,1.29-1.29,1.93-2.84,1.93-4.65s-.64-3.36-1.93-4.65c-1.29-1.29-2.84-1.93-4.65-1.93s-3.36.64-4.65,1.93c-1.29,1.29-1.93,2.84-1.93,4.65s.64,3.36,1.93,4.65c1.29,1.29,2.84,1.93,4.65,1.93Z"/>
</svg>