<?xml version="1.0" encoding="utf-8"?><svg xmlns="http://www.w3.org/2000/svg" width="40" height="40" fill="none" class="sc-jXbUNg gcZWwT MuiSvgIcon-root MuiSvgIcon-fontSizeMedium sc-fKWMtX kDYlbs" focusable="false" aria-hidden="true" viewBox="0 0 40 40"><path fill="currentColor" d="M14.797 14.29h10.406v-3.602q0-2.22-1.512-3.74T20 5.428t-3.691 1.52-1.512 3.74zm7.331 21.543h-12.02q-1.062 0-1.834-.773-.774-.774-.774-1.834V16.897q0-1.059.774-1.833.773-.773 1.833-.773h2.596v-3.599q0-3.088 2.119-5.223Q16.94 3.333 20 3.333t5.178 2.136q2.12 2.135 2.12 5.223v3.599h2.595q1.06 0 1.833.773.774.774.774 1.833v2.776a7 7 0 0 0-.95-.172 10 10 0 0 0-1.144-.059v-2.545a.5.5 0 0 0-.144-.368.5.5 0 0 0-.37-.145H10.108a.5.5 0 0 0-.369.145.5.5 0 0 0-.144.368v16.33a.5.5 0 0 0 .144.368.5.5 0 0 0 .37.144h10.834q.21.597.479 1.082.27.484.707 1.012m8.222 1.222q-3.043 0-5.2-2.158t-2.158-5.195 2.158-5.2q2.157-2.165 5.2-2.165t5.201 2.164 2.158 5.196q0 3.042-2.158 5.2t-5.2 2.158m2.908-3.43 1.022-1.01-3.255-3.096v-4.85h-1.519v5.363zM9.594 21.193V33.74 16.385z"></path></svg>