<?xml version="1.0" encoding="UTF-8"?>
<svg id="Ebene_1" data-name="Ebene 1" xmlns="http://www.w3.org/2000/svg" width="80" height="80" viewBox="0 0 80 80">
  <defs>
    <style>
      .cls-1 {
        fill: #003554;
      }
    </style>
  </defs>
  <path class="cls-1" d="M40,51.96c4.16-3.5,7.31-6.89,9.45-10.16,2.14-3.27,3.21-6.33,3.21-9.18,0-3.76-1.18-6.85-3.54-9.25-2.36-2.41-5.4-3.61-9.11-3.61s-6.75,1.2-9.11,3.61c-2.36,2.41-3.54,5.49-3.54,9.25,0,2.85,1.07,5.92,3.21,9.18,2.14,3.27,5.29,6.65,9.45,10.16ZM40,56.77c-5.48-4.24-9.59-8.38-12.33-12.43-2.74-4.04-4.12-7.95-4.12-11.72,0-4.87,1.53-8.86,4.59-11.98,3.06-3.12,7.01-4.68,11.85-4.68s8.79,1.56,11.85,4.68c3.06,3.12,4.59,7.11,4.59,11.98,0,3.77-1.37,7.67-4.12,11.71-2.74,4.04-6.86,8.18-12.33,12.44ZM40,36.98c1.26,0,2.34-.45,3.23-1.34.89-.89,1.34-1.97,1.34-3.23s-.45-2.34-1.34-3.23c-.89-.89-1.97-1.34-3.23-1.34s-2.34.45-3.23,1.34c-.89.89-1.34,1.97-1.34,3.23,0,1.26.45,2.34,1.34,3.23.89.89,1.97,1.34,3.23,1.34ZM23.55,64.04v-3.8h32.9v3.8H23.55Z"/>
</svg>