<?xml version="1.0" encoding="UTF-8"?>
<svg id="Ebene_1" data-name="Ebene 1" xmlns="http://www.w3.org/2000/svg" width="80" height="80" viewBox="0 0 80 80">
  <defs>
    <style>
      .cls-1 {
        fill: #003554;
      }
    </style>
  </defs>
  <path class="cls-1" d="M50.74,38.35c.66,0,1.22-.23,1.68-.69.46-.46.69-1.02.69-1.68s-.23-1.22-.69-1.68c-.46-.46-1.02-.69-1.68-.69s-1.22.23-1.68.69c-.46.46-.69,1.02-.69,1.68s.23,1.22.69,1.68c.46.46,1.02.69,1.68.69ZM29.26,32.62h13.42v-4.03h-13.42v4.03ZM20.88,64.16c-1.42-4.89-2.83-9.76-4.25-14.61-1.42-4.85-2.12-9.82-2.12-14.92,0-3.74,1.3-6.91,3.91-9.51,2.6-2.6,5.78-3.91,9.51-3.91h14.09c1.23-1.61,2.7-2.91,4.42-3.89,1.72-.98,3.6-1.47,5.64-1.47.74,0,1.37.26,1.9.79s.79,1.16.79,1.9c0,.18-.03.36-.08.55-.05.18-.1.35-.16.51-.25.65-.46,1.31-.63,1.99-.17.68-.32,1.36-.45,2.05l6.98,6.98h5.06v16.4l-7.32,2.41-4.42,14.75h-12.41v-5.37h-8.05v5.37h-12.41ZM23.9,60.13h5.37v-5.37h16.1v5.37h5.37l4.16-13.82,6.58-2.21v-9.46h-2.68l-9.39-9.39c0-.89.06-1.76.17-2.58s.3-1.66.55-2.49c-1.3.36-2.43.98-3.4,1.87-.97.89-1.71,1.96-2.22,3.2h-16.57c-2.59,0-4.81.92-6.64,2.75s-2.75,4.05-2.75,6.64c0,4.38.6,8.67,1.81,12.85s2.39,8.4,3.56,12.65Z"/>
</svg>