<?xml version="1.0" encoding="utf-8"?><svg xmlns="http://www.w3.org/2000/svg" width="40" height="40" fill="none" class="sc-jXbUNg gcZWwT MuiSvgIcon-root MuiSvgIcon-fontSizeMedium sc-fKWMtX kDYlbs" focusable="false" aria-hidden="true" viewBox="0 0 40 40"><path fill="currentColor" d="M20.078 34.167q-2.948 0-5.534-1.121a14.6 14.6 0 0 1-4.52-3.04 14.3 14.3 0 0 1-3.054-4.512q-1.12-2.59-1.12-5.54 0-2.937 1.12-5.505a14.3 14.3 0 0 1 3.055-4.485 14.4 14.4 0 0 1 4.519-3.024q2.585-1.107 5.534-1.107 3.1 0 5.89 1.322t4.837 3.655V6.613h2.093v7.819h-7.824v-2.095h4.252a13.5 13.5 0 0 0-4.16-3.22 11.24 11.24 0 0 0-5.088-1.19q-5.044 0-8.59 3.475-3.545 3.475-3.545 8.491 0 5.079 3.529 8.629t8.606 3.55q4.781 0 8.19-3.247 3.41-3.247 3.75-7.988h2.11q-.309 5.638-4.363 9.483-4.053 3.847-9.687 3.847m5.158-7.562-6.25-6.206v-8.795h2.094v7.934l5.648 5.575z"></path></svg>