<?xml version="1.0" encoding="utf-8"?><svg xmlns="http://www.w3.org/2000/svg" width="40" height="40" fill="none" class="sc-jXbUNg gcZWwT MuiSvgIcon-root MuiSvgIcon-fontSizeMedium sc-fKWMtX kDYlbs" focusable="false" aria-hidden="true" viewBox="0 0 40 40"><path fill="currentColor" d="M6.551 34.256 4.975 32.68l11.923-11.923 6.666 6.684 12.02-13.632 1.473 1.414-13.46 15.36-6.7-6.672zM9.87 9.522l3.108 1.413 1.413 3.108 1.413-3.108 3.109-1.413-3.11-1.413L14.392 5l-1.413 3.109z"></path><path fill="currentColor" d="m19.217 16.044 2.87 1.304 1.304 2.87 1.304-2.87 2.87-1.304-2.87-1.305-1.304-2.87-1.304 2.87zM3 18.826l2.87 1.304L7.173 23l1.304-2.87 2.87-1.304-2.87-1.304-1.304-2.87-1.305 2.87z"></path></svg>