<?xml version="1.0" encoding="UTF-8"?>
<svg id="Logo" xmlns="http://www.w3.org/2000/svg" width="24" height="24" viewBox="0 0 24 24">
  <defs>
    <style>
      .cls-1 {
        fill: #0866ff;
      }

      .cls-2 {
        fill: #fff;
      }
    </style>
  </defs>
  <g id="Logo-2" data-name="Logo">
    <path id="Initiator" class="cls-1" d="M24,12C24,5.37,18.63,0,12,0S0,5.37,0,12c0,5.63,3.87,10.35,9.1,11.65v-7.98h-2.47v-3.67h2.47v-1.58c0-4.08,1.85-5.98,5.86-5.98.76,0,2.07.15,2.61.3v3.32c-.28-.03-.78-.04-1.39-.04-1.97,0-2.73.75-2.73,2.68v1.3h3.92l-.67,3.67h-3.25v8.25c5.94-.72,10.55-5.78,10.55-11.91Z"/>
    <path id="F" class="cls-2" d="M16.7,15.67l.67-3.67h-3.92v-1.3c0-1.94.76-2.68,2.73-2.68.61,0,1.1.01,1.39.04v-3.32c-.54-.15-1.85-.3-2.61-.3-4.01,0-5.86,1.89-5.86,5.98v1.58h-2.47v3.67h2.47v7.98c.93.23,1.9.35,2.9.35.49,0,.98-.03,1.45-.09v-8.25h3.25Z"/>
  </g>
</svg>